<?xml version="1.0" encoding="UTF-8" ?>
<!DOCTYPE svg PUBLIC "-//W3C//DTD SVG 1.1//EN" "http://www.w3.org/Graphics/SVG/1.1/DTD/svg11.dtd">
<svg width="500pt" height="475pt" viewBox="0 0 500 475" version="1.1" xmlns="http://www.w3.org/2000/svg">
<g id="#f4c613ff">
<path fill="#f4c613" opacity="1.00" d=" M 167.66 14.72 C 176.93 14.93 185.80 11.81 195.00 11.46 C 212.33 11.53 229.67 11.40 247.00 11.52 C 254.62 12.49 262.13 14.01 269.76 14.96 C 274.44 17.09 279.92 15.59 284.37 18.36 C 291.74 19.65 299.04 21.42 306.06 24.04 C 308.77 25.12 311.81 25.07 314.42 26.45 C 321.84 30.00 329.89 32.07 337.13 36.03 C 344.47 39.10 351.78 42.36 358.45 46.73 C 367.02 50.78 374.59 56.52 382.67 61.41 C 387.70 65.76 393.68 68.84 398.54 73.40 C 404.49 77.74 410.03 82.59 415.55 87.45 C 421.17 93.49 427.56 98.82 432.62 105.38 C 440.48 113.63 447.22 122.84 453.71 132.17 C 457.57 139.30 462.44 145.86 465.77 153.27 C 467.60 157.44 470.40 161.15 471.65 165.58 C 474.91 176.13 479.52 186.31 481.30 197.28 C 481.52 201.96 483.84 206.27 483.71 211.00 C 483.72 225.67 483.69 240.33 483.72 255.00 C 483.73 257.33 483.55 259.67 483.17 261.98 C 481.16 269.80 480.16 277.89 477.61 285.58 C 474.76 292.19 473.40 299.30 470.78 305.98 C 469.55 309.74 467.02 312.89 465.60 316.57 C 464.12 319.38 463.35 323.75 459.33 323.67 C 459.34 322.34 459.18 320.96 459.86 319.75 C 462.66 312.85 464.74 305.69 466.65 298.50 C 467.88 295.28 468.01 291.62 466.84 288.37 C 464.81 281.55 465.85 274.34 465.30 267.36 C 464.10 264.19 464.26 260.77 463.56 257.49 C 458.57 255.47 453.36 258.05 448.20 257.40 C 446.51 260.83 445.56 264.86 442.61 267.49 C 440.53 267.86 438.22 267.14 436.29 268.07 C 434.62 269.77 434.35 272.95 431.64 273.56 C 426.76 273.95 421.70 274.21 416.99 272.61 C 409.24 272.13 400.66 273.74 393.77 269.23 C 391.42 265.31 390.32 260.79 390.36 256.24 C 390.17 251.30 386.82 247.60 384.70 243.42 C 383.28 238.23 381.04 232.59 383.25 227.27 C 384.78 224.57 381.71 222.12 382.48 219.37 C 384.20 214.04 386.48 208.93 389.19 204.03 C 389.98 198.15 389.09 192.15 389.60 186.24 C 390.74 182.97 392.37 179.87 393.74 176.69 C 396.27 173.32 400.75 172.47 404.20 170.32 C 407.09 169.12 407.57 165.66 409.46 163.46 C 412.21 160.22 415.45 157.27 419.24 155.29 C 422.46 155.28 424.94 158.12 427.19 160.16 C 431.05 159.72 435.30 157.37 435.42 153.01 C 436.70 149.00 430.70 148.43 431.06 144.66 C 432.50 144.30 433.94 143.92 435.38 143.54 C 436.37 136.39 437.09 129.18 438.38 122.06 C 436.76 120.75 434.71 120.16 433.01 118.99 C 430.84 117.42 429.18 114.73 426.15 115.04 C 425.48 117.26 425.38 119.57 425.59 121.87 C 421.49 122.32 417.63 120.31 413.65 120.55 C 414.85 124.89 419.74 127.65 423.75 129.37 C 423.69 130.48 423.63 131.60 423.58 132.71 C 419.58 133.07 416.14 130.76 412.37 129.95 C 413.33 132.99 416.29 135.51 415.11 138.97 C 410.72 138.92 407.52 134.86 403.06 135.42 C 399.28 135.61 395.37 134.94 391.68 135.85 C 390.56 137.87 389.69 140.02 388.60 142.05 C 390.15 144.41 390.67 147.11 390.79 149.89 C 392.60 154.74 397.41 157.65 399.74 162.23 C 400.12 165.97 395.48 167.30 392.82 168.75 C 389.18 170.05 388.62 174.64 385.52 176.49 C 383.50 176.55 380.93 177.29 379.38 175.61 C 377.08 174.00 377.83 170.97 377.21 168.61 C 375.12 165.47 372.07 163.14 369.05 160.95 C 367.25 159.62 365.56 157.94 365.19 155.63 C 368.93 153.25 373.95 150.48 373.85 145.40 C 371.39 144.96 368.90 144.69 366.42 144.44 C 366.29 141.96 366.42 139.47 366.33 136.98 C 364.29 133.02 359.54 131.73 356.54 128.65 C 357.00 126.45 358.14 124.37 357.83 122.04 C 357.43 115.30 357.46 108.54 357.51 101.79 C 355.07 100.34 352.04 101.03 349.60 99.82 C 349.06 95.53 355.00 95.33 357.54 93.14 C 357.50 91.13 357.61 89.10 357.32 87.10 C 355.42 83.66 352.65 80.83 349.72 78.27 C 347.74 76.67 347.07 74.11 345.62 72.12 C 343.74 72.20 342.00 73.06 340.14 73.17 C 336.01 71.43 332.31 68.89 328.63 66.40 C 326.69 65.04 324.67 63.59 323.57 61.43 C 322.43 59.09 325.32 57.01 324.46 54.65 C 320.35 51.48 314.67 51.60 310.51 48.49 C 306.76 45.60 303.79 41.85 300.88 38.16 C 296.93 33.36 290.84 31.32 285.51 28.52 C 283.53 27.34 281.18 27.80 279.00 27.66 C 276.73 27.93 274.99 26.24 272.98 25.53 C 265.73 24.48 259.02 27.85 252.18 29.61 C 251.07 27.65 249.91 25.71 248.88 23.70 C 241.55 23.20 233.93 24.74 226.89 22.07 C 225.65 21.62 224.36 21.27 223.04 21.32 C 215.00 21.23 206.97 21.42 198.94 21.26 C 194.12 21.22 189.85 18.06 184.98 18.81 C 181.91 19.29 179.70 21.85 176.72 22.58 C 172.51 22.89 168.02 22.20 164.12 24.23 C 160.97 26.01 157.91 28.02 154.54 29.37 C 148.03 29.96 141.46 29.21 134.94 29.67 C 132.28 29.94 130.26 31.81 128.02 33.05 C 125.38 34.64 122.05 35.58 120.58 38.54 C 119.72 41.02 119.38 44.32 116.52 45.35 C 114.37 45.66 112.19 45.52 110.03 45.59 C 112.29 52.12 110.91 59.13 111.29 65.90 C 114.37 67.24 117.88 68.18 120.02 70.98 C 124.62 76.64 128.78 82.78 134.52 87.39 C 137.12 89.18 140.58 88.98 143.13 90.89 C 146.09 92.94 149.15 94.83 152.29 96.60 C 155.29 99.05 156.49 102.94 158.43 106.17 C 155.73 108.08 152.39 107.17 149.33 107.56 C 145.78 108.62 142.94 111.85 139.05 111.59 C 134.80 111.96 130.60 110.76 126.38 111.04 C 125.26 115.13 125.90 119.36 126.75 123.43 C 128.37 126.87 131.10 129.54 133.76 132.17 C 136.98 136.32 140.36 140.35 143.50 144.56 C 145.50 149.45 146.31 154.74 146.56 159.99 C 148.46 159.15 150.34 158.24 152.21 157.33 C 153.79 150.90 155.70 144.52 158.32 138.43 C 160.08 134.22 163.14 130.58 164.20 126.08 C 164.49 122.23 164.20 118.35 164.47 114.49 C 166.56 113.88 168.74 113.28 170.94 113.67 C 174.05 115.10 175.21 118.47 176.86 121.20 C 178.77 124.44 179.98 128.06 182.13 131.17 C 184.56 131.58 187.04 131.25 189.36 130.48 C 189.74 129.06 190.15 127.64 190.56 126.23 C 191.84 126.27 193.15 126.23 194.42 126.49 C 197.40 128.76 197.33 132.84 198.88 135.97 C 200.71 141.10 204.30 145.21 207.75 149.25 C 207.05 154.37 202.48 158.01 200.59 162.75 C 195.41 162.71 190.22 161.89 185.05 162.41 C 185.45 165.70 185.35 169.02 185.34 172.33 C 188.23 172.74 191.09 174.02 194.06 173.46 C 196.47 172.95 198.87 172.32 201.32 171.99 C 201.32 175.04 200.88 178.15 199.93 181.05 C 196.86 184.04 192.56 181.29 188.94 181.52 C 186.60 182.20 184.74 183.85 182.82 185.27 C 180.35 184.57 177.96 183.63 175.83 182.20 C 172.43 185.01 169.75 188.60 166.20 191.22 C 163.79 193.07 160.65 193.36 157.73 193.63 C 156.17 196.64 154.86 200.00 152.11 202.14 C 149.92 203.78 147.38 204.88 144.82 205.80 C 143.42 210.11 139.10 212.11 135.83 214.79 C 131.90 217.90 126.71 219.55 123.66 223.65 C 120.81 228.15 123.85 233.00 124.63 237.60 C 126.69 242.62 127.21 248.38 125.58 253.59 C 123.65 256.48 118.14 258.60 116.15 254.73 C 112.75 249.93 111.03 244.17 110.12 238.42 C 109.00 235.14 108.16 231.77 108.20 228.27 C 103.44 228.60 98.48 229.15 93.88 227.55 C 90.52 226.35 86.98 225.72 83.66 224.39 C 80.32 222.98 76.59 223.49 73.07 223.60 C 70.62 223.63 68.60 225.29 67.01 227.00 C 63.56 231.16 60.33 235.68 58.93 240.99 C 57.20 248.42 58.44 256.77 63.34 262.80 C 65.66 263.96 68.21 265.02 70.85 264.89 C 77.21 263.07 82.06 257.68 88.52 256.16 C 88.79 259.34 88.78 262.54 88.72 265.73 C 85.66 268.27 81.51 269.15 78.48 271.54 C 77.81 275.23 80.29 278.82 82.20 281.83 C 85.54 284.92 90.36 285.76 93.89 288.66 C 94.96 287.88 96.02 287.09 97.10 286.33 C 97.63 286.46 98.69 286.72 99.21 286.85 C 99.29 287.29 99.43 288.18 99.50 288.63 C 97.42 290.94 97.27 294.04 97.72 296.99 C 100.49 303.32 106.36 307.42 112.22 310.66 C 113.64 311.55 115.36 311.33 116.96 311.51 C 120.79 311.72 124.62 313.02 128.47 312.62 C 133.77 310.35 138.99 307.51 144.84 307.03 C 150.72 304.82 157.24 305.10 163.14 307.04 C 166.65 307.16 169.37 309.94 172.91 309.78 C 181.11 310.28 189.65 308.64 197.53 311.64 C 201.53 313.16 205.42 315.00 209.52 316.29 C 215.32 316.88 221.19 316.22 227.01 316.56 C 229.72 317.72 231.26 320.57 233.66 322.24 C 238.16 323.74 242.90 324.37 247.49 325.48 C 250.90 327.39 252.66 331.18 254.42 334.52 C 255.71 337.48 258.82 338.83 261.00 341.01 C 265.32 345.21 269.80 349.71 275.69 351.61 C 278.73 352.70 281.63 354.52 284.97 354.50 C 290.64 354.59 296.32 354.44 302.00 354.51 C 305.05 354.41 307.49 356.62 310.33 357.39 C 314.76 358.27 319.46 358.30 323.45 360.68 C 324.42 363.32 322.63 366.04 322.37 368.70 C 321.45 373.58 315.62 374.35 312.86 377.86 C 303.49 386.21 297.35 397.50 293.19 409.20 C 291.05 411.53 288.10 412.99 285.09 413.86 C 281.31 414.95 277.86 416.87 274.18 418.19 C 270.13 419.81 265.74 420.63 262.01 422.98 C 259.31 427.47 255.95 431.52 252.27 435.23 C 250.22 435.87 248.02 435.48 245.91 435.52 C 243.65 437.81 241.83 440.68 238.94 442.27 C 235.47 442.67 231.95 442.09 228.49 442.59 C 224.55 445.45 220.86 449.03 215.99 450.23 C 210.84 450.37 205.58 450.01 200.61 451.67 C 197.30 454.27 193.23 456.13 190.85 459.75 C 189.58 461.41 188.43 463.85 185.95 463.65 C 181.57 463.41 176.00 465.18 172.82 461.20 C 170.14 457.91 166.76 455.29 164.02 452.07 C 162.53 448.55 161.19 444.84 161.28 440.95 C 161.41 438.19 159.70 435.78 159.69 433.06 C 159.54 428.54 160.07 423.97 159.13 419.51 C 158.33 415.85 159.11 412.09 158.57 408.43 C 152.01 402.24 144.56 397.10 137.59 391.39 C 134.20 388.48 130.12 386.18 127.72 382.29 C 125.51 378.95 124.45 375.01 122.21 371.70 C 119.27 366.93 115.08 363.00 112.52 358.00 C 112.34 354.08 113.06 350.12 114.36 346.42 C 115.50 342.66 114.98 338.46 116.87 334.93 C 119.09 333.61 121.82 333.75 124.31 333.37 C 124.39 329.46 126.67 325.62 125.35 321.73 C 122.68 319.40 119.07 320.42 116.02 321.19 C 108.29 316.92 99.66 314.87 91.63 311.28 C 88.16 308.50 89.70 303.22 87.05 299.97 C 84.79 295.86 79.65 295.43 76.21 292.72 C 72.98 290.19 68.74 289.18 65.97 286.03 C 63.30 283.67 61.65 280.42 59.10 277.97 C 55.79 275.85 51.05 277.74 48.13 274.78 C 44.62 271.31 41.78 267.07 37.55 264.39 C 35.71 263.69 33.66 263.81 31.86 263.03 C 29.62 259.69 28.84 255.68 27.80 251.86 C 28.83 247.64 28.90 243.26 28.79 238.93 C 28.86 234.59 25.13 231.30 24.77 227.04 C 24.69 220.79 24.34 214.54 24.52 208.29 C 23.96 208.27 22.85 208.22 22.29 208.20 C 22.34 214.20 20.15 219.96 20.59 225.98 C 18.85 226.10 16.59 227.04 15.52 225.07 C 15.36 219.70 15.42 214.32 15.47 208.95 C 15.28 206.07 17.77 203.87 17.58 201.02 C 17.35 195.31 19.01 189.77 18.70 184.04 C 20.81 177.95 19.85 171.50 20.29 165.21 C 20.76 161.82 20.58 158.40 20.71 155.00 C 22.24 151.34 25.98 149.32 28.95 146.95 C 34.24 142.93 38.57 137.58 44.65 134.67 C 46.92 133.39 49.90 132.52 50.80 129.78 C 52.58 125.51 55.50 121.86 57.49 117.71 C 59.98 112.07 63.91 107.19 66.42 101.57 C 67.14 96.01 68.51 90.58 69.04 85.00 C 69.79 82.00 70.98 79.08 70.77 75.91 C 67.97 75.48 65.13 75.58 62.32 75.59 C 62.36 74.56 62.40 73.53 62.45 72.50 C 63.32 71.75 64.20 71.00 65.08 70.25 C 61.92 69.32 56.90 70.89 55.44 67.05 C 55.86 64.83 58.33 65.12 60.04 64.79 C 63.59 64.56 66.98 63.38 70.29 62.15 C 73.84 59.56 76.29 55.17 81.08 54.70 C 87.05 54.61 93.39 54.83 98.76 51.77 C 101.85 49.91 106.30 49.27 107.82 45.62 C 102.74 45.30 97.61 45.87 92.55 45.28 C 90.79 44.41 89.16 43.30 87.46 42.32 C 87.43 41.40 87.40 40.47 87.37 39.55 C 91.39 38.58 95.05 36.69 98.66 34.75 C 106.52 31.90 114.58 29.54 122.14 25.94 C 133.02 23.90 143.42 19.52 154.47 18.21 C 158.21 16.58 162.28 16.13 166.33 16.25 C 166.66 15.87 167.33 15.10 167.66 14.72 Z" />
<path fill="#f4c613" opacity="1.00" d=" M 216.72 56.74 C 217.97 55.93 219.78 56.06 220.85 57.14 C 230.69 64.25 240.57 71.87 247.47 82.02 C 248.29 88.04 246.89 93.95 246.42 99.90 C 244.77 107.08 245.97 114.55 244.50 121.77 C 239.58 122.27 235.40 118.88 231.13 116.92 C 227.53 114.41 223.19 113.49 219.39 111.41 C 217.64 107.22 216.25 102.85 216.09 98.28 C 214.88 94.50 214.07 90.61 213.19 86.75 C 211.49 84.57 208.52 84.72 206.06 84.32 C 203.47 82.41 203.86 77.85 200.57 76.60 C 197.16 76.37 193.77 75.99 190.41 75.37 C 190.29 74.31 190.17 73.26 190.05 72.21 C 193.19 69.32 192.09 64.99 193.26 61.32 C 195.75 60.76 198.36 60.40 200.90 60.85 C 203.20 61.55 205.43 63.11 207.95 62.39 C 211.00 60.72 213.74 58.54 216.72 56.74 Z" />
</g>
</svg>
