<?xml version="1.0" encoding="UTF-8" ?>
<!DOCTYPE svg PUBLIC "-//W3C//DTD SVG 1.1//EN" "http://www.w3.org/Graphics/SVG/1.1/DTD/svg11.dtd">
<svg width="100pt" height="25pt" viewBox="0 0 100 25" version="1.1" xmlns="http://www.w3.org/2000/svg">
<g id="#fcc301fe">
<path fill="#fcc301" opacity="1.00" d=" M 35.43 1.66 C 38.78 1.61 42.19 1.00 45.50 1.73 C 49.67 3.42 54.37 6.99 54.02 11.99 C 54.02 13.95 53.84 15.90 53.54 17.83 C 53.51 16.84 53.45 14.86 53.43 13.87 C 52.22 14.72 50.96 14.94 49.65 14.52 C 48.79 13.10 49.34 11.49 49.56 9.98 C 47.84 8.83 47.88 6.64 47.66 4.82 C 44.60 1.42 38.00 0.46 34.75 3.66 C 35.41 4.19 36.71 5.27 37.37 5.81 C 36.90 6.08 35.96 6.62 35.49 6.89 C 35.94 7.42 36.84 8.49 37.29 9.02 C 37.43 8.26 37.69 6.74 37.82 5.98 C 38.57 6.75 40.97 8.22 39.31 9.33 C 37.86 10.70 35.64 11.68 35.55 13.96 C 34.64 12.44 33.31 11.92 31.63 12.70 C 32.79 14.00 33.95 15.32 35.09 16.64 C 39.24 15.87 42.61 18.42 46.34 19.60 C 44.31 22.37 41.29 24.47 37.70 24.11 C 37.63 23.58 37.49 22.51 37.42 21.97 C 36.56 21.10 35.71 20.22 34.87 19.33 C 35.07 18.92 35.45 18.09 35.65 17.68 C 33.96 16.64 32.37 15.45 30.83 14.20 C 30.52 12.52 29.84 10.80 30.29 9.08 C 31.31 7.43 33.20 6.03 32.70 3.85 C 33.61 3.12 34.52 2.39 35.43 1.66 M 49.94 8.70 C 51.24 9.29 51.86 8.86 51.81 7.42 C 50.51 6.82 49.89 7.25 49.94 8.70 Z" />
<path fill="#fcc301" opacity="1.00" d=" M 38.87 3.23 C 41.11 3.27 42.77 4.82 42.16 7.18 C 40.74 6.16 39.58 4.83 38.87 3.23 Z" />
</g>
<g id="#ffffffff">
<path fill="#ffffff" opacity="1.00" d=" M 8.91 5.89 C 12.63 0.85 21.25 1.36 24.28 6.91 C 23.35 7.62 22.42 8.33 21.49 9.03 C 19.90 6.71 17.15 4.68 14.23 5.97 C 8.82 8.36 8.93 17.42 14.50 19.56 C 17.06 20.74 19.54 18.98 21.45 17.43 C 21.47 16.89 21.53 15.81 21.56 15.28 C 20.12 15.26 18.69 15.25 17.25 15.24 C 17.25 14.55 17.25 13.18 17.25 12.50 C 19.67 12.50 22.08 12.50 24.50 12.50 C 24.50 16.00 24.50 19.50 24.50 23.00 C 23.48 23.00 22.46 23.00 21.44 22.99 L 21.72 21.18 C 18.74 23.20 14.55 23.92 11.46 21.77 C 6.23 18.53 5.00 10.62 8.91 5.89 Z" />
<path fill="#ffffff" opacity="1.00" d=" M 59.00 2.75 C 59.87 2.75 61.63 2.75 62.50 2.75 C 62.50 8.58 62.50 14.42 62.50 20.25 C 66.09 20.25 69.67 20.25 73.25 20.25 C 73.25 21.00 73.25 22.50 73.25 23.25 C 68.50 23.25 63.75 23.25 59.00 23.25 C 59.00 16.42 59.00 9.58 59.00 2.75 Z" />
<path fill="#ffffff" opacity="1.00" d=" M 76.25 2.76 C 80.84 3.00 86.13 1.72 90.06 4.81 C 95.49 9.34 94.60 20.09 87.56 22.58 C 83.90 23.74 80.01 23.11 76.25 23.24 C 76.25 16.41 76.25 9.59 76.25 2.76 M 80.01 5.68 C 79.99 10.56 79.99 15.44 80.01 20.33 C 82.60 20.14 85.59 20.51 87.68 18.63 C 90.27 15.99 90.50 11.47 88.62 8.38 C 86.71 5.57 83.01 5.78 80.01 5.68 Z" />
</g>
</svg>
