<?xml version="1.0" encoding="UTF-8" ?>
<!DOCTYPE svg PUBLIC "-//W3C//DTD SVG 1.1//EN" "http://www.w3.org/Graphics/SVG/1.1/DTD/svg11.dtd">
<svg width="100pt" height="25pt" viewBox="0 0 100 25" version="1.1" xmlns="http://www.w3.org/2000/svg">
<g id="#f8c50aff">
<path fill="#f8c50a" opacity="1.00" d=" M 35.39 1.62 C 39.58 1.66 44.28 0.38 47.99 2.94 C 51.13 4.83 54.51 8.04 53.98 12.03 C 53.92 14.01 53.82 15.99 53.66 17.96 C 53.58 17.03 53.42 15.17 53.34 14.24 C 52.08 14.58 50.81 14.71 49.53 14.63 C 49.14 13.17 49.30 11.66 49.35 10.17 C 48.24 8.50 47.86 6.54 47.49 4.61 C 44.06 1.04 38.61 1.32 34.33 3.03 C 35.17 3.82 36.03 4.60 36.89 5.36 C 35.93 6.66 36.22 8.01 37.00 9.29 C 37.25 8.43 37.74 6.73 37.99 5.87 C 38.82 6.71 39.46 7.64 39.93 8.69 C 38.33 10.21 36.50 11.52 35.39 13.48 C 34.30 12.49 32.89 12.41 31.48 12.47 C 32.67 13.86 33.90 15.22 35.10 16.61 C 39.22 16.05 42.80 18.20 46.39 19.81 C 44.14 22.32 41.29 24.37 37.75 24.25 C 37.67 23.69 37.51 22.58 37.43 22.03 C 36.56 21.13 35.69 20.22 34.83 19.31 C 35.05 18.93 35.47 18.15 35.69 17.77 C 33.99 16.64 32.36 15.43 30.76 14.18 C 30.47 12.53 30.21 10.87 30.02 9.21 C 31.47 7.69 32.80 5.98 33.04 3.81 C 33.81 3.07 34.60 2.34 35.39 1.62 M 49.95 8.61 C 51.18 9.32 51.81 8.95 51.83 7.49 C 50.59 6.78 49.97 7.15 49.95 8.61 Z" />
<path fill="#f8c50a" opacity="1.00" d=" M 38.46 3.20 C 41.16 3.23 42.61 4.78 42.29 7.56 C 40.95 6.16 39.68 4.71 38.46 3.20 Z" />
<path fill="#f8c50a" opacity="1.00" d=" M 76.26 2.75 C 80.91 2.99 86.27 1.72 90.20 4.93 C 95.46 9.53 94.55 20.08 87.58 22.57 C 83.92 23.72 80.02 23.12 76.26 23.25 C 76.26 16.41 76.26 9.58 76.26 2.75 M 80.04 5.62 C 79.97 10.54 79.97 15.46 80.03 20.38 C 82.62 20.11 85.62 20.50 87.70 18.61 C 90.28 15.97 90.49 11.47 88.62 8.38 C 86.72 5.57 83.02 5.83 80.04 5.62 Z" />
</g>
<g id="#212226fe">
<path fill="#212226" opacity="1.00" d=" M 12.24 3.23 C 16.64 1.14 21.60 3.03 24.39 6.76 C 23.50 7.48 22.61 8.20 21.72 8.92 C 19.85 7.29 17.81 4.90 15.01 5.74 C 8.90 7.37 8.62 17.31 14.46 19.55 C 17.01 20.77 19.38 18.78 21.50 17.61 C 21.51 17.03 21.52 15.86 21.53 15.28 C 20.10 15.26 18.68 15.25 17.25 15.24 C 17.25 14.55 17.25 13.18 17.25 12.50 C 19.67 12.50 22.08 12.50 24.50 12.50 C 24.50 16.00 24.50 19.50 24.50 23.00 C 23.74 23.00 22.21 23.00 21.44 23.00 C 21.52 22.61 21.68 21.84 21.76 21.46 C 18.35 23.06 13.92 24.01 10.79 21.30 C 4.76 17.00 5.36 6.35 12.24 3.23 Z" />
<path fill="#212226" opacity="1.00" d=" M 59.00 2.75 C 59.88 2.75 61.63 2.75 62.50 2.75 C 62.50 8.58 62.51 14.42 62.50 20.25 C 66.09 20.25 69.67 20.25 73.25 20.25 C 73.25 21.00 73.25 22.50 73.25 23.25 C 68.50 23.25 63.75 23.25 59.00 23.25 C 59.00 16.42 59.00 9.58 59.00 2.75 Z" />
</g>
</svg>
