<?xml version="1.0" encoding="UTF-8" ?>
<!DOCTYPE svg PUBLIC "-//W3C//DTD SVG 1.1//EN" "http://www.w3.org/Graphics/SVG/1.1/DTD/svg11.dtd">
<svg width="1500pt" height="200pt" viewBox="0 0 1500 200" version="1.1" xmlns="http://www.w3.org/2000/svg">
<g id="#ffffffff">
</g>
<g id="#bc2024ff">
<path fill="#bc2024" opacity="1.00" d=" M 741.41 26.48 C 744.07 26.47 747.77 25.76 749.00 28.92 C 770.57 75.08 791.98 121.33 813.52 167.51 C 814.67 169.39 814.03 171.52 813.27 173.41 C 804.18 173.79 795.09 173.53 786.00 173.59 C 783.30 173.99 781.39 171.63 780.34 169.46 C 777.62 163.72 775.14 157.87 772.48 152.11 C 769.17 149.67 764.77 151.23 760.98 150.94 C 746.32 150.73 731.62 151.44 716.98 150.46 C 716.77 150.91 716.35 151.79 716.14 152.24 C 713.64 157.67 711.26 163.16 708.77 168.59 C 707.58 171.23 705.17 173.94 702.00 173.59 C 693.99 173.58 685.98 173.65 677.97 173.56 C 675.99 173.83 674.10 172.04 674.43 170.04 C 674.69 167.54 676.19 165.39 677.14 163.11 C 696.38 121.98 715.42 80.76 734.64 39.62 C 736.99 35.30 738.18 30.29 741.41 26.48 M 744.14 89.88 C 738.98 101.12 733.79 112.36 728.82 123.68 C 739.20 123.91 749.60 123.86 759.99 123.70 C 754.55 112.50 749.70 101.02 744.14 89.88 Z" />
<path fill="#bc2024" opacity="1.00" d=" M 885.94 27.17 C 906.01 23.97 926.90 30.76 942.54 43.40 C 942.42 45.45 942.98 47.79 941.57 49.53 C 938.19 54.52 934.95 59.60 931.49 64.53 C 929.89 66.95 926.48 69.10 923.78 67.00 C 915.64 61.63 906.97 56.30 897.09 55.04 C 898.51 54.85 899.93 54.64 901.36 54.40 C 897.46 53.53 893.42 53.37 889.53 54.38 C 890.39 54.53 892.10 54.83 892.96 54.98 C 887.03 55.44 880.74 60.61 881.76 67.00 C 882.35 72.41 886.74 76.21 891.05 78.96 C 899.97 84.58 910.37 87.21 919.41 92.61 C 929.64 98.34 939.13 106.62 943.43 117.80 C 947.99 129.08 946.91 142.36 940.75 152.83 C 935.21 162.14 926.24 169.39 915.95 172.81 C 904.07 176.96 891.10 176.47 878.93 173.96 C 868.40 171.63 858.04 167.22 850.18 159.68 C 848.61 158.30 848.07 155.99 849.27 154.19 C 852.21 149.11 855.11 144.01 857.92 138.85 C 858.87 137.12 859.98 135.00 862.20 134.79 C 865.50 134.27 868.04 136.80 870.70 138.27 C 878.39 142.82 886.87 146.97 896.01 146.83 C 900.13 146.89 904.50 145.44 907.15 142.15 C 911.51 137.31 910.51 129.37 906.31 124.74 C 899.39 116.69 888.64 114.17 879.52 109.54 C 868.54 103.99 858.04 96.10 852.41 84.88 C 845.60 71.63 847.65 54.53 857.02 43.01 C 864.11 34.16 874.84 28.84 885.94 27.17 Z" />
<path fill="#bc2024" opacity="1.00" d=" M 1013.80 26.79 C 1017.16 26.55 1022.05 25.15 1023.76 29.14 C 1039.53 58.80 1055.72 88.26 1071.31 118.03 C 1073.34 115.73 1074.60 112.90 1076.02 110.21 C 1090.52 83.26 1104.99 56.30 1119.47 29.34 C 1120.99 25.05 1127.04 25.90 1130.23 27.78 C 1138.30 74.84 1146.09 121.95 1154.04 169.03 C 1154.47 170.91 1153.36 173.81 1151.06 173.57 C 1142.35 173.59 1133.63 173.68 1124.92 173.52 C 1122.59 173.74 1121.57 171.11 1121.43 169.23 C 1118.34 148.11 1115.33 126.97 1112.16 105.87 C 1100.75 128.13 1089.15 150.30 1077.66 172.52 C 1075.93 177.44 1067.41 177.41 1065.66 172.51 C 1054.07 150.34 1042.57 128.13 1030.91 106.00 C 1027.88 127.03 1024.82 148.06 1021.95 169.11 C 1021.78 170.21 1021.40 171.22 1020.80 172.16 C 1020.89 171.72 1021.06 170.84 1021.15 170.40 C 1019.33 170.92 1017.51 171.46 1015.62 171.55 C 1007.41 171.95 999.19 171.70 991.02 170.93 C 990.92 164.06 993.20 157.48 993.79 150.68 C 994.57 142.83 997.67 135.15 996.53 127.20 C 997.56 117.39 999.78 107.71 1001.24 97.95 C 1004.50 78.29 1007.85 58.65 1011.13 38.99 C 1011.87 34.90 1012.16 30.66 1013.80 26.79 Z" />
<path fill="#bc2024" opacity="1.00" d=" M 1302.71 37.01 C 1302.92 33.58 1301.43 29.12 1304.67 26.69 C 1307.08 26.32 1309.54 26.42 1312.00 26.41 C 1338.38 51.89 1364.85 77.27 1391.24 102.74 C 1392.32 103.85 1393.57 104.78 1394.83 105.73 L 1395.74 106.45 C 1396.78 95.66 1396.01 84.77 1396.23 73.93 C 1396.24 60.93 1396.20 47.92 1396.22 34.91 C 1396.48 33.29 1396.05 30.47 1398.39 30.40 C 1401.89 29.87 1405.44 30.25 1408.98 30.20 C 1415.20 30.34 1421.64 29.42 1427.64 31.57 L 1427.68 31.58 C 1427.43 79.14 1427.85 126.71 1427.47 174.26 C 1423.97 176.94 1418.65 176.57 1415.84 173.08 C 1391.60 148.38 1366.91 124.10 1342.63 99.44 C 1340.38 97.18 1338.16 94.89 1335.70 92.87 C 1335.49 118.20 1335.72 143.54 1335.59 168.87 C 1335.63 170.49 1334.86 171.95 1334.25 173.40 C 1324.33 173.76 1314.39 173.64 1304.48 173.48 C 1303.81 172.05 1302.70 170.71 1302.80 169.05 C 1302.72 125.04 1302.91 81.02 1302.71 37.01 Z" />
<path fill="#bc2024" opacity="1.00" d=" M 602.22 29.12 C 603.71 28.40 605.43 28.71 607.04 28.60 C 615.37 28.59 623.71 28.65 632.05 28.60 C 632.94 29.93 634.28 31.19 634.06 32.95 C 634.07 65.65 634.09 98.35 634.05 131.05 C 633.96 142.63 630.06 154.44 621.97 162.91 C 612.50 172.61 598.31 176.99 584.96 175.61 C 575.65 174.85 566.83 170.35 560.41 163.64 C 558.94 162.05 556.96 160.45 557.10 158.06 C 557.21 155.70 559.20 154.23 560.81 152.80 C 564.96 149.26 568.48 145.06 572.51 141.40 C 573.52 140.20 575.18 140.57 576.56 140.36 C 579.88 143.63 584.10 146.54 589.03 145.80 C 596.77 145.41 601.04 136.99 600.74 129.99 C 600.80 98.66 600.78 67.32 600.75 35.98 C 600.82 33.66 600.31 30.88 602.22 29.12 Z" />
<path fill="#bc2024" opacity="1.00" d=" M 1207.63 33.01 C 1207.36 31.03 1208.50 28.38 1210.89 28.67 C 1217.27 28.50 1223.65 28.68 1230.04 28.60 C 1233.23 28.63 1236.55 28.25 1239.60 29.51 C 1239.90 30.98 1240.33 32.44 1240.37 33.95 C 1240.38 76.65 1240.37 119.35 1240.37 162.05 C 1240.30 165.84 1240.87 169.80 1239.18 173.35 C 1229.77 173.82 1220.32 173.56 1210.90 173.53 C 1208.33 173.95 1207.41 171.05 1207.64 169.02 C 1207.61 123.69 1207.63 78.35 1207.63 33.01 Z" />
</g>
<g id="#a03033ff">
<path fill="#a03033" opacity="1.00" d=" M 61.79 28.72 C 64.40 28.44 67.04 28.64 69.67 28.64 L 69.68 28.84 C 69.86 31.22 70.05 33.59 70.07 35.97 C 70.05 78.95 70.06 121.93 70.06 164.92 C 70.43 164.92 71.17 164.92 71.54 164.92 C 93.44 164.86 115.35 165.00 137.25 164.85 C 137.74 165.12 138.71 165.67 139.19 165.94 C 138.97 168.56 140.10 171.85 137.60 173.67 C 137.56 171.38 137.62 169.09 137.69 166.80 C 132.48 165.99 127.20 166.44 121.96 166.38 C 105.61 166.36 89.25 166.36 72.90 166.39 C 71.64 166.19 69.55 166.59 69.22 164.89 C 68.72 161.29 69.18 157.64 69.14 154.03 C 69.14 113.99 69.11 73.96 69.15 33.93 C 69.75 30.35 65.10 29.43 62.58 30.59 C 61.05 34.52 61.96 38.90 61.78 43.03 C 61.85 81.69 61.77 120.34 61.79 159.00 C 61.94 163.09 61.10 167.42 62.63 171.32 C 65.04 172.24 67.69 172.16 70.22 172.47 C 67.46 172.67 64.69 172.85 61.92 172.98 L 60.47 172.88 C 60.25 126.27 60.44 79.66 60.37 33.05 C 60.50 31.50 59.97 29.46 61.79 28.72 Z" />
</g>
<g id="#a9282dff">
<path fill="#a9282d" opacity="1.00" d=" M 189.57 28.62 C 192.51 28.59 195.44 28.61 198.38 28.76 C 198.86 35.84 198.51 42.95 198.61 50.04 C 198.49 91.15 198.86 132.27 198.43 173.37 C 195.45 173.62 192.46 173.62 189.47 173.55 C 188.42 170.12 188.84 166.52 188.79 162.99 C 188.78 119.66 188.82 76.33 188.77 33.00 C 188.71 31.49 189.07 30.03 189.57 28.62 M 190.58 30.54 C 190.03 38.67 190.51 46.83 190.33 54.97 C 190.47 93.83 190.11 132.70 190.50 171.56 C 192.58 171.92 194.69 171.98 196.79 171.82 C 197.38 160.91 196.99 149.97 197.11 139.04 C 197.15 105.04 197.04 71.04 197.15 37.03 C 197.15 34.75 196.96 32.47 196.77 30.19 C 194.70 30.29 192.64 30.41 190.58 30.54 Z" />
<path fill="#a9282d" opacity="1.00" d=" M 996.53 127.20 C 997.67 135.15 994.57 142.83 993.79 150.68 C 993.20 157.48 990.92 164.06 991.02 170.93 C 999.19 171.70 1007.41 171.95 1015.62 171.55 C 1017.51 171.46 1019.33 170.92 1021.15 170.40 C 1021.06 170.84 1020.89 171.72 1020.80 172.16 C 1020.73 172.46 1020.60 173.08 1020.53 173.39 C 1011.68 173.85 1002.80 173.50 993.95 173.62 C 992.30 173.78 990.80 173.17 989.43 172.37 C 989.13 166.62 990.80 161.06 991.57 155.42 C 993.19 146.01 994.47 136.52 996.53 127.20 Z" />
</g>
<g id="#ffd3d2ff">
<path fill="#ffd3d2" opacity="1.00" d=" M 69.68 28.84 C 71.95 30.92 70.50 34.30 70.78 36.98 C 70.72 77.31 70.77 117.65 70.77 157.99 C 70.81 160.31 71.15 162.62 71.54 164.92 C 71.17 164.92 70.43 164.92 70.06 164.92 C 70.06 121.93 70.05 78.95 70.07 35.97 C 70.05 33.59 69.86 31.22 69.68 28.84 Z" />
</g>
<g id="#bb2125ff">
<path fill="#bb2125" opacity="1.00" d=" M 248.42 28.70 C 251.63 28.58 254.85 28.60 258.07 28.72 C 273.74 65.14 289.71 101.43 305.45 137.82 C 308.43 144.47 311.13 151.25 314.28 157.83 C 314.53 157.80 315.02 157.75 315.26 157.73 C 333.92 115.51 352.46 73.24 371.01 30.98 C 371.57 29.86 372.18 28.11 373.85 28.62 C 376.38 28.54 378.92 28.63 381.46 28.67 C 381.32 30.24 381.11 31.82 380.38 33.24 C 359.44 79.97 338.61 126.75 317.66 173.47 C 316.97 176.67 312.13 176.85 311.38 173.57 C 291.18 127.75 271.13 81.86 250.98 36.02 C 249.86 33.68 248.81 31.28 248.42 28.70 Z" />
</g>
<g id="#bb2026ff">
<path fill="#bb2026" opacity="1.00" d=" M 431.62 32.96 C 431.57 31.46 432.05 30.03 432.48 28.62 C 461.48 28.60 490.47 28.60 519.46 28.62 C 520.74 31.39 520.68 34.58 519.50 37.37 C 493.53 37.43 467.55 37.31 441.58 37.44 C 441.63 56.48 441.57 75.53 441.62 94.58 C 464.15 94.75 486.69 94.40 509.22 94.75 C 510.68 97.47 510.35 100.60 509.44 103.44 C 486.83 103.88 464.21 103.45 441.60 103.65 C 441.57 124.04 441.66 144.43 441.55 164.83 C 466.02 165.01 490.48 164.88 514.95 164.89 C 516.72 164.92 518.47 165.30 520.21 165.64 C 520.42 168.30 520.50 171.00 519.57 173.55 C 490.51 173.62 461.44 173.65 432.37 173.53 C 432.00 172.02 431.61 170.50 431.63 168.94 C 431.62 123.62 431.64 78.29 431.62 32.96 Z" />
</g>
<g id="#9a2e34ff">
<path fill="#9a2e34" opacity="1.00" d=" M 1394.79 32.89 C 1394.63 31.05 1395.77 28.52 1397.93 28.66 C 1406.64 28.57 1415.36 28.58 1424.07 28.63 C 1426.01 28.25 1426.85 30.20 1427.64 31.57 C 1421.64 29.42 1415.20 30.34 1408.98 30.20 C 1405.44 30.25 1401.89 29.87 1398.39 30.40 C 1396.05 30.47 1396.48 33.29 1396.22 34.91 C 1396.20 47.92 1396.24 60.93 1396.23 73.93 C 1396.01 84.77 1396.78 95.66 1395.74 106.45 L 1394.83 105.73 C 1394.73 81.45 1394.81 57.17 1394.79 32.89 Z" />
</g>
<g id="#bb2024ff">
<path fill="#bb2024" opacity="1.00" d=" M 62.58 30.59 C 65.10 29.43 69.75 30.35 69.15 33.93 C 69.11 73.96 69.14 113.99 69.14 154.03 C 69.18 157.64 68.72 161.29 69.22 164.89 C 69.55 166.59 71.64 166.19 72.90 166.39 C 89.25 166.36 105.61 166.36 121.96 166.38 C 127.20 166.44 132.48 165.99 137.69 166.80 C 137.62 169.09 137.56 171.38 137.60 173.67 C 116.06 173.49 94.52 173.64 72.99 173.60 C 68.88 173.54 64.74 173.86 60.66 173.21 L 61.92 172.98 C 64.69 172.85 67.46 172.67 70.22 172.47 C 67.69 172.16 65.04 172.24 62.63 171.32 C 61.10 167.42 61.94 163.09 61.79 159.00 C 61.77 120.34 61.85 81.69 61.78 43.03 C 61.96 38.90 61.05 34.52 62.58 30.59 Z" />
</g>
<g id="#ba2024ff">
<path fill="#ba2024" opacity="1.00" d=" M 190.58 30.54 C 192.64 30.41 194.70 30.29 196.77 30.19 C 196.96 32.47 197.15 34.75 197.15 37.03 C 197.04 71.04 197.15 105.04 197.11 139.04 C 196.99 149.97 197.38 160.91 196.79 171.82 C 194.69 171.98 192.58 171.92 190.50 171.56 C 190.11 132.70 190.47 93.83 190.33 54.97 C 190.51 46.83 190.03 38.67 190.58 30.54 Z" />
</g>
<g id="#992e37ff">
<path fill="#992e37" opacity="1.00" d=" M 889.53 54.38 C 893.42 53.37 897.46 53.53 901.36 54.40 C 899.93 54.64 898.51 54.85 897.09 55.04 C 895.70 55.21 894.32 55.19 892.96 54.98 C 892.10 54.83 890.39 54.53 889.53 54.38 Z" />
</g>
<g id="#fefefeff">
</g>
<g id="#a32b2fff">
<path fill="#a32b2f" opacity="1.00" d=" M 716.98 150.46 C 731.62 151.44 746.32 150.73 760.98 150.94 C 764.77 151.23 769.17 149.67 772.48 152.11 C 753.70 152.32 734.92 152.06 716.14 152.24 C 716.35 151.79 716.77 150.91 716.98 150.46 Z" />
</g>
</svg>
