<?xml version="1.0" encoding="UTF-8" ?>
<!DOCTYPE svg PUBLIC "-//W3C//DTD SVG 1.1//EN" "http://www.w3.org/Graphics/SVG/1.1/DTD/svg11.dtd">
<svg width="714pt" height="188pt" viewBox="0 0 714 188" version="1.1" xmlns="http://www.w3.org/2000/svg">
<g id="#ffffffff">
</g>
<g id="#000000ff">
<path fill="#000000" opacity="1.00" d=" M 78.45 15.68 C 94.43 13.27 111.13 16.02 125.48 23.45 C 141.12 31.61 153.95 45.18 160.77 61.51 C 167.59 77.39 168.80 95.58 164.18 112.23 C 158.95 131.53 145.87 148.57 128.49 158.48 C 114.35 166.73 97.47 170.09 81.24 168.24 C 64.89 166.47 49.12 159.20 37.24 147.80 C 23.64 135.25 14.98 117.50 13.41 99.06 C 11.65 81.79 16.10 63.99 25.64 49.51 C 37.34 31.39 57.12 18.79 78.45 15.68 M 52.16 50.22 C 41.42 59.80 34.70 73.77 33.92 88.15 C 39.95 82.06 46.33 76.35 52.87 70.82 C 56.63 67.74 60.43 64.54 65.05 62.83 C 65.61 63.01 66.75 63.37 67.31 63.54 C 69.03 71.56 68.00 79.75 67.42 87.83 C 70.65 84.25 73.91 80.69 77.38 77.34 C 83.60 71.17 89.61 64.53 97.29 60.12 C 98.88 59.17 100.74 58.94 102.56 59.13 C 106.65 69.70 103.31 81.10 102.48 91.95 C 106.14 87.19 110.44 82.91 115.13 79.16 C 118.21 76.82 122.81 74.44 126.15 77.69 C 132.21 83.87 138.33 90.01 144.08 96.49 C 144.59 97.22 144.93 98.04 145.33 98.83 C 146.55 95.36 146.33 91.66 146.16 88.05 C 145.57 79.15 142.84 70.41 138.22 62.78 C 135.18 57.66 131.13 53.29 126.86 49.19 C 118.64 42.39 108.72 37.47 98.08 36.09 C 81.66 33.47 64.34 38.97 52.16 50.22 M 81.18 85.14 C 77.44 88.39 74.03 91.98 71.07 95.96 C 64.07 103.98 57.40 112.56 48.49 118.58 C 48.03 118.52 47.11 118.39 46.65 118.33 C 46.47 108.92 49.60 99.87 50.39 90.54 C 50.00 90.51 49.21 90.46 48.82 90.43 C 44.14 94.36 39.29 98.06 34.57 101.93 C 38.31 122.40 54.15 140.10 74.19 145.83 C 86.71 149.48 100.54 148.75 112.46 143.35 C 125.68 137.51 137.06 126.43 141.90 112.70 C 134.14 106.08 127.23 98.11 117.97 93.51 C 117.00 94.04 116.03 94.57 115.07 95.12 C 108.48 101.13 102.43 107.70 96.19 114.06 C 93.32 117.14 90.63 121.75 85.83 121.42 C 85.13 119.87 84.35 118.31 84.16 116.60 C 83.39 107.24 87.25 98.28 87.29 88.98 C 87.21 87.08 87.22 84.49 85.12 83.66 C 83.68 83.74 82.46 84.57 81.18 85.14 Z" />
</g>
<g id="#035f92ff">
<path fill="#035f92" opacity="1.00" d=" M 246.97 56.11 C 250.67 55.21 254.29 54.01 257.98 53.08 C 258.19 57.97 258.02 62.87 258.13 67.77 C 263.29 67.73 268.46 67.75 273.63 67.66 C 273.81 70.60 273.79 73.56 273.65 76.50 C 268.47 76.52 263.29 76.53 258.12 76.47 C 258.00 87.65 258.06 98.82 258.06 110.00 C 258.09 113.92 258.83 118.96 263.00 120.59 C 266.21 121.20 269.56 121.00 272.75 120.27 C 272.79 123.29 273.03 126.30 273.33 129.30 C 266.38 130.89 257.91 131.99 252.11 126.87 C 247.81 122.83 247.25 116.58 246.94 111.03 C 246.83 99.51 246.98 87.98 246.87 76.46 C 243.74 76.52 240.61 76.53 237.48 76.51 C 237.45 73.58 237.45 70.64 237.54 67.70 C 240.65 67.72 243.76 67.70 246.87 67.72 C 246.91 63.85 246.91 59.98 246.97 56.11 Z" />
<path fill="#035f92" opacity="1.00" d=" M 615.51 56.12 C 619.22 55.22 622.79 53.84 626.55 53.11 C 626.49 57.97 626.49 62.83 626.52 67.70 C 631.77 67.80 637.02 67.70 642.28 67.74 C 642.24 70.65 642.25 73.56 642.30 76.47 C 637.05 76.55 631.80 76.49 626.56 76.55 C 626.40 87.36 626.54 98.18 626.47 109.00 C 626.53 111.96 626.65 115.14 628.12 117.79 C 630.78 122.31 636.85 120.92 641.16 120.38 C 641.35 123.35 641.46 126.33 641.52 129.32 C 634.61 130.96 626.02 131.91 620.42 126.59 C 615.57 121.79 615.39 114.38 615.47 107.99 C 615.54 97.52 615.37 87.04 615.57 76.57 C 612.43 76.51 609.28 76.50 606.15 76.53 C 605.94 73.60 605.85 70.65 605.84 67.71 C 609.07 67.74 612.31 67.74 615.56 67.72 C 615.49 63.85 615.48 59.99 615.51 56.12 Z" />
<path fill="#035f92" opacity="1.00" d=" M 305.25 68.29 C 308.44 66.40 312.21 66.47 315.79 66.38 C 316.12 70.01 316.08 73.65 316.13 77.28 C 312.16 77.05 307.83 77.11 304.46 79.52 C 299.79 83.14 297.28 89.08 297.30 94.93 C 297.29 106.40 297.24 117.87 297.34 129.34 C 293.65 129.24 289.96 129.21 286.28 129.44 C 285.33 108.93 286.58 88.33 285.50 67.80 C 288.80 67.69 292.11 67.68 295.42 67.75 C 295.44 71.85 295.73 75.95 295.76 80.06 C 297.37 75.17 300.80 70.88 305.25 68.29 Z" />
<path fill="#035f92" opacity="1.00" d=" M 653.81 80.33 C 658.27 71.96 667.46 66.19 677.03 66.47 C 683.77 66.15 690.92 68.27 695.49 73.43 C 702.00 80.65 703.68 91.12 702.68 100.49 C 688.50 100.52 674.32 100.59 660.13 100.45 C 659.56 109.21 664.84 118.38 673.64 120.67 C 681.50 122.50 690.02 121.59 697.42 118.37 C 698.22 121.14 698.95 123.93 699.62 126.73 C 690.82 130.45 680.97 131.42 671.58 129.91 C 662.35 128.20 654.39 121.37 651.35 112.49 C 647.85 102.05 648.60 90.08 653.81 80.33 M 670.78 75.81 C 664.34 78.66 661.12 85.69 660.16 92.31 C 670.73 92.15 681.31 92.31 691.89 92.25 C 692.21 86.08 689.68 78.99 683.81 76.15 C 679.80 74.14 674.92 74.29 670.78 75.81 Z" />
<path fill="#035f92" opacity="1.00" d=" M 196.77 72.69 C 205.09 64.68 218.35 64.94 228.18 69.87 C 227.66 72.90 226.75 75.84 225.50 78.65 C 219.63 74.65 210.69 73.12 204.89 77.98 C 203.14 81.08 202.57 84.99 205.06 87.90 C 210.32 93.36 218.68 93.72 224.37 98.61 C 231.59 104.03 232.59 115.27 227.48 122.44 C 223.99 127.42 217.98 129.84 212.09 130.38 C 204.77 131.02 197.03 130.11 190.66 126.20 C 191.65 123.47 192.47 120.68 193.30 117.90 C 199.42 120.50 206.10 123.17 212.85 121.37 C 217.42 120.52 220.74 115.64 219.51 111.08 C 218.63 106.57 214.11 104.14 210.17 102.67 C 203.95 100.34 197.27 97.29 193.96 91.18 C 190.97 85.19 192.55 77.70 196.77 72.69 Z" />
<path fill="#035f92" opacity="1.00" d=" M 323.28 86.12 C 326.01 77.29 333.02 69.72 342.08 67.33 C 350.78 65.24 361.17 66.46 367.48 73.40 C 373.91 80.66 375.77 91.13 374.61 100.52 C 360.44 100.51 346.26 100.57 332.09 100.49 C 331.73 108.81 336.25 117.59 344.48 120.29 C 352.62 122.70 361.67 121.70 369.42 118.37 C 370.20 121.12 370.93 123.89 371.67 126.65 C 363.31 130.37 353.89 131.24 344.88 130.14 C 336.49 128.97 328.72 123.66 324.94 116.04 C 320.24 106.87 320.31 95.81 323.28 86.12 M 342.75 75.81 C 336.35 78.70 333.05 85.64 332.17 92.30 C 342.75 92.20 353.32 92.28 363.90 92.26 C 364.20 87.12 362.50 81.70 358.73 78.10 C 354.46 74.19 347.99 73.91 342.75 75.81 Z" />
<path fill="#035f92" opacity="1.00" d=" M 390.65 70.06 C 398.45 66.47 407.43 65.65 415.83 67.21 C 424.22 69.11 430.10 77.03 430.79 85.41 C 432.20 99.98 430.23 114.71 432.01 129.27 C 428.60 129.29 425.18 129.31 421.77 129.26 C 421.60 126.81 421.41 124.37 421.19 121.93 C 418.61 124.01 416.43 126.65 413.35 128.04 C 406.09 131.58 396.68 131.79 389.99 126.87 C 381.33 119.87 381.49 105.07 389.96 97.98 C 398.18 90.97 409.58 90.13 419.91 89.85 C 420.19 84.57 418.54 78.11 413.08 76.05 C 405.33 73.14 397.19 76.19 389.95 79.05 C 389.36 76.69 388.50 74.40 388.12 71.99 C 388.45 70.87 389.76 70.62 390.65 70.06 M 404.89 99.65 C 399.69 101.02 394.93 105.49 394.79 111.13 C 394.91 114.77 395.97 118.96 399.48 120.76 C 407.33 124.55 418.07 119.72 419.96 111.05 C 420.52 106.78 420.13 102.45 420.27 98.16 C 415.11 98.00 409.84 98.04 404.89 99.65 Z" />
<path fill="#035f92" opacity="1.00" d=" M 458.58 77.83 C 462.20 70.73 469.93 65.99 477.96 66.45 C 485.67 66.03 492.89 71.55 495.13 78.82 C 497.66 73.55 502.41 69.53 507.81 67.46 C 514.97 65.25 523.71 66.33 528.99 72.04 C 533.93 77.36 535.51 84.94 535.51 92.00 C 535.55 104.39 535.40 116.78 535.58 129.16 C 531.89 129.35 528.20 129.27 524.51 129.29 C 524.44 117.17 524.53 105.05 524.47 92.93 C 524.38 88.03 523.33 82.81 519.93 79.09 C 516.98 76.07 512.29 75.06 508.28 76.29 C 502.53 77.73 498.66 83.27 497.81 88.93 C 497.58 102.40 498.06 115.89 497.59 129.35 C 493.91 129.26 490.23 129.25 486.56 129.33 C 486.37 116.22 486.57 103.11 486.44 90.01 C 486.14 85.82 485.07 81.15 481.56 78.46 C 477.69 74.92 471.47 75.12 467.23 77.89 C 462.69 81.03 459.79 86.49 459.78 92.02 C 459.60 104.44 459.90 116.86 459.63 129.28 C 455.99 129.26 452.35 129.29 448.71 129.29 C 448.54 108.79 449.22 88.26 448.17 67.77 C 451.33 67.74 454.50 67.74 457.66 67.60 C 458.57 70.93 458.40 74.41 458.58 77.83 Z" />
<path fill="#035f92" opacity="1.00" d=" M 552.51 71.70 C 560.42 67.03 569.96 65.56 578.99 66.87 C 585.56 67.93 591.60 72.52 593.86 78.87 C 596.79 86.56 595.97 94.94 596.06 103.00 C 596.17 111.77 595.69 120.56 596.70 129.30 C 593.36 129.27 590.02 129.29 586.69 129.28 C 586.41 126.76 586.01 124.26 585.57 121.77 C 578.78 130.91 564.42 133.57 555.03 127.00 C 546.68 120.82 546.23 107.55 552.83 99.93 C 560.84 91.11 573.67 90.20 584.82 89.76 C 585.08 84.23 582.99 77.64 577.19 75.80 C 569.76 73.75 561.44 75.43 555.03 79.60 C 554.25 76.95 553.41 74.31 552.51 71.70 M 561.64 104.60 C 559.95 107.78 558.98 111.48 560.06 115.03 C 560.87 119.08 564.84 122.12 568.95 121.94 C 573.94 122.31 579.21 120.40 582.17 116.23 C 586.46 111.18 584.47 104.17 584.86 98.14 C 576.79 97.78 567.58 98.42 561.64 104.60 Z" />
</g>
</svg>
