<?xml version="1.0" encoding="UTF-8" ?>
<!DOCTYPE svg PUBLIC "-//W3C//DTD SVG 1.1//EN" "http://www.w3.org/Graphics/SVG/1.1/DTD/svg11.dtd">
<svg width="700pt" height="215pt" viewBox="0 0 700 215" version="1.1" xmlns="http://www.w3.org/2000/svg">
<g id="#a02238ff">
<path fill="#a02238" opacity="1.00" d=" M 0.00 0.00 L 700.00 0.00 L 700.00 215.00 L 0.00 215.00 L 0.00 0.00 M 78.55 36.53 C 68.94 40.23 62.62 49.04 57.53 57.57 C 46.40 77.72 41.33 101.04 42.09 123.98 C 42.46 131.58 43.77 139.53 48.23 145.89 C 50.90 149.68 55.11 152.86 59.91 152.86 C 62.70 152.65 64.90 150.82 66.01 148.34 C 63.84 145.49 62.08 142.33 61.14 138.86 C 58.23 128.87 57.65 118.35 58.05 108.01 C 58.63 93.69 60.77 79.31 65.84 65.85 C 68.24 59.70 71.16 53.57 75.73 48.72 C 77.34 46.88 79.68 45.99 82.02 45.54 C 84.13 49.00 84.31 53.16 83.89 57.09 C 82.63 69.78 78.22 82.00 72.13 93.15 C 70.22 96.95 66.91 99.71 64.24 102.94 C 65.65 107.09 68.33 111.36 72.81 112.59 C 75.20 113.46 78.11 112.40 79.08 109.98 C 81.97 104.47 85.52 99.30 89.69 94.68 C 95.24 88.67 101.69 82.66 109.90 80.80 C 112.73 80.00 115.98 81.42 116.81 84.36 C 119.08 91.33 115.82 98.53 112.54 104.61 C 111.44 107.16 108.60 108.02 106.47 109.48 C 97.20 115.34 88.37 121.90 79.88 128.83 C 75.36 132.95 70.18 136.74 67.23 142.22 C 66.64 146.39 68.69 150.67 71.17 153.94 C 73.75 157.15 78.41 156.33 81.73 154.87 C 91.01 150.77 98.37 143.51 105.26 136.24 C 109.87 131.09 114.19 125.63 117.77 119.70 C 119.03 117.66 119.94 115.15 122.35 114.21 C 122.13 123.67 122.81 133.75 128.03 141.94 C 131.10 146.91 137.48 150.34 143.26 148.16 C 150.34 145.61 154.13 138.38 156.78 131.81 C 161.19 119.87 163.36 106.47 159.79 94.02 C 158.25 88.23 154.58 83.40 151.44 78.41 C 148.72 74.30 142.82 71.39 138.23 74.24 C 133.49 77.01 131.04 82.29 129.02 87.16 C 128.95 80.38 125.38 73.53 119.12 70.57 C 110.12 66.23 99.18 68.97 91.58 74.90 C 94.37 63.69 97.26 51.06 91.91 40.15 C 89.64 35.03 83.14 34.67 78.55 36.53 M 352.71 48.72 C 342.39 61.14 337.82 77.31 336.22 93.12 C 335.07 108.32 336.07 124.52 343.80 138.03 C 347.94 145.68 356.73 151.10 365.55 149.43 C 374.08 147.45 379.74 140.03 384.08 132.95 C 385.31 136.35 386.64 139.98 389.59 142.29 C 392.81 145.03 398.10 145.22 401.26 142.29 C 405.31 139.03 407.80 134.37 409.80 129.68 C 412.17 135.20 414.66 141.86 420.98 143.85 C 426.54 145.46 431.21 141.25 434.06 136.99 C 441.20 126.14 444.03 113.27 447.41 100.93 C 448.75 110.97 446.89 121.16 445.04 131.03 C 444.71 134.32 442.00 137.82 443.98 140.97 C 446.33 145.12 451.49 146.55 455.95 146.71 C 458.40 146.93 460.88 144.64 460.34 142.12 C 459.43 132.06 460.36 121.97 461.41 111.97 C 462.47 104.82 463.50 97.43 466.92 90.96 C 467.96 88.73 470.09 87.42 472.22 86.40 C 475.49 89.71 474.94 94.74 475.05 99.00 C 474.40 112.50 472.38 125.91 469.56 139.11 C 469.41 144.30 475.36 146.21 479.56 146.72 C 480.26 146.22 480.97 145.75 481.71 145.31 C 481.95 145.80 482.45 146.80 482.69 147.29 C 483.38 146.70 484.77 145.52 485.47 144.93 C 484.58 130.15 485.68 115.05 489.69 100.74 C 490.92 97.27 492.41 91.84 497.11 92.56 C 499.59 96.57 499.78 101.41 499.77 105.99 C 499.36 116.03 498.01 126.12 494.74 135.66 C 492.01 142.02 501.43 147.50 506.55 144.51 C 509.65 140.42 509.44 134.90 509.70 130.00 C 514.23 137.21 520.85 143.44 529.03 146.18 C 534.08 147.90 540.36 147.20 543.97 142.95 C 547.07 139.02 546.85 133.60 545.95 128.94 C 543.45 116.94 537.24 106.18 533.48 94.59 C 531.23 88.15 532.24 80.99 534.97 74.87 C 533.98 71.95 531.13 69.47 527.91 70.25 C 522.78 71.50 520.47 77.21 519.95 81.97 C 519.55 89.09 517.03 95.83 514.54 102.44 C 512.89 106.36 511.46 110.52 508.50 113.68 C 509.24 105.53 509.78 97.26 508.51 89.12 C 507.76 85.01 506.75 80.52 503.55 77.56 C 500.37 74.87 495.79 76.58 493.13 79.15 C 488.99 82.93 487.47 88.48 485.60 93.55 C 485.66 87.01 484.94 79.70 480.40 74.60 C 477.42 71.21 472.14 71.39 468.57 73.70 C 462.70 77.13 460.03 83.89 458.62 90.21 C 458.57 85.03 458.39 79.37 455.20 75.02 C 451.98 70.39 443.74 71.17 441.24 76.00 C 440.33 90.29 437.81 104.71 431.64 117.74 C 429.92 121.09 427.95 125.08 423.82 125.75 C 422.22 122.38 421.82 118.62 422.17 114.95 C 422.98 104.97 425.06 94.87 430.05 86.09 C 429.04 84.43 427.88 82.87 426.42 81.59 C 425.75 79.51 425.18 76.94 422.86 76.12 C 416.07 72.48 407.72 74.57 401.95 79.17 C 393.05 86.36 388.17 97.23 384.74 107.88 C 382.31 116.79 378.75 125.63 372.79 132.79 C 369.71 136.32 364.81 139.89 359.93 138.07 C 355.20 135.08 354.14 129.02 352.95 123.97 C 349.83 107.40 351.01 90.05 356.02 73.97 C 358.76 65.57 362.66 57.29 368.91 50.91 C 370.55 49.44 372.47 47.58 374.88 47.98 C 376.68 49.37 376.34 51.85 376.30 53.84 C 375.60 63.18 370.77 71.39 366.20 79.30 C 369.88 80.67 373.72 78.99 376.63 76.71 C 382.15 72.36 386.47 66.41 388.65 59.72 C 389.97 54.22 389.84 47.99 386.98 42.98 C 384.07 37.92 377.78 35.41 372.13 36.52 C 364.27 37.66 357.72 42.84 352.71 48.72 M 556.77 62.94 C 553.49 67.01 550.59 71.76 550.12 77.07 C 550.29 80.38 553.34 82.86 556.52 83.20 C 561.20 73.87 567.57 65.28 575.70 58.68 C 584.15 51.73 594.96 47.35 606.00 47.69 C 617.95 47.58 630.23 52.72 637.50 62.40 C 647.01 74.67 646.37 93.44 636.27 105.17 C 629.73 112.81 620.07 118.55 609.78 118.32 C 606.11 130.03 600.19 141.80 589.85 148.96 C 593.99 140.31 597.39 130.75 596.18 121.02 C 595.79 117.01 593.58 112.41 589.17 111.78 C 581.50 110.35 573.65 113.14 567.04 116.89 C 562.02 119.82 556.45 124.56 557.57 131.07 C 564.83 126.89 572.37 122.03 580.95 121.49 C 584.11 121.15 586.61 123.96 586.19 127.08 C 586.42 141.59 579.64 155.44 570.51 166.41 C 576.27 168.29 582.59 166.90 587.64 163.75 C 598.28 157.20 606.19 146.80 611.20 135.47 C 625.61 137.08 639.78 129.85 649.43 119.49 C 657.53 110.77 662.61 99.00 662.19 87.00 C 662.31 74.60 657.98 61.75 648.69 53.24 C 638.78 44.10 625.18 40.14 611.96 39.38 C 591.26 37.99 570.04 46.96 556.77 62.94 M 581.26 67.04 C 579.07 72.12 579.36 78.21 582.03 83.06 C 593.63 80.55 605.46 79.11 616.92 75.94 C 620.44 75.18 623.38 72.68 624.33 69.15 C 615.58 68.03 606.74 68.16 597.95 67.52 C 592.40 67.11 586.82 67.01 581.26 67.04 M 308.30 75.62 C 302.88 73.78 296.62 73.13 291.57 76.38 C 282.92 81.69 278.43 91.68 275.85 101.12 C 272.81 102.36 269.73 103.52 266.82 105.03 C 264.63 96.55 262.18 87.96 257.56 80.44 C 255.42 77.10 252.35 73.67 248.16 73.29 C 245.80 73.37 244.49 75.27 243.81 77.31 C 238.77 76.58 232.97 76.25 229.04 80.13 C 220.55 88.12 217.13 99.90 214.92 111.00 C 213.66 116.03 214.54 121.65 211.62 126.17 C 211.08 125.21 210.39 124.24 210.42 123.07 C 209.89 115.73 210.28 108.31 209.06 101.02 C 208.07 94.35 206.67 87.13 201.81 82.11 C 198.20 78.14 191.48 77.96 187.38 81.26 C 183.56 84.10 181.41 88.48 179.46 92.70 C 179.30 86.11 177.18 78.35 170.89 75.10 C 167.31 73.18 162.98 75.07 161.01 78.36 C 161.76 80.67 163.26 82.68 163.97 85.02 C 166.76 93.71 166.28 102.96 166.02 111.95 C 165.40 121.45 163.99 130.89 162.28 140.25 C 162.18 141.49 161.62 143.25 162.87 144.11 C 166.21 146.88 171.02 148.98 175.31 147.28 C 178.52 145.91 177.42 141.73 177.98 138.96 C 179.39 126.12 180.16 112.92 184.71 100.71 C 186.17 96.41 190.28 91.35 195.34 93.62 C 196.22 95.38 197.26 97.10 197.67 99.05 C 199.47 107.97 198.43 117.10 197.86 126.09 C 197.53 131.16 195.91 136.66 198.43 141.44 C 200.23 145.31 205.71 146.52 209.15 144.15 C 212.70 141.76 214.58 137.78 216.50 134.10 C 217.82 139.29 223.16 144.21 228.77 142.72 C 233.16 140.07 235.39 135.09 237.82 130.77 C 243.93 118.98 247.70 106.19 252.43 93.84 C 254.34 100.22 256.74 106.52 257.33 113.20 C 250.76 119.97 245.58 128.00 241.30 136.37 C 236.93 145.56 233.66 155.81 235.14 166.09 C 236.30 174.53 242.34 182.66 250.93 184.53 C 256.80 186.08 263.21 183.43 266.76 178.63 C 270.64 173.37 272.75 166.96 273.73 160.55 C 274.92 145.27 272.43 130.02 269.48 115.07 C 271.22 113.94 273.00 112.85 274.83 111.86 C 274.62 120.07 274.94 128.47 277.65 136.31 C 278.83 139.42 280.66 142.81 284.07 143.86 C 287.34 144.75 290.29 142.53 292.24 140.15 C 296.90 134.49 299.27 127.43 301.72 120.63 C 301.97 126.55 302.90 132.48 304.95 138.05 C 306.46 141.78 308.52 145.68 312.22 147.64 C 314.64 148.85 318.24 149.29 319.84 146.57 C 320.10 144.28 318.11 142.55 317.42 140.49 C 315.67 135.89 315.59 130.86 315.27 126.01 C 315.07 111.25 316.96 96.38 321.57 82.33 C 322.35 79.72 323.93 77.49 325.08 75.05 C 324.15 73.39 322.09 72.93 320.44 72.33 C 316.24 71.49 310.70 71.32 308.30 75.62 M 588.08 87.03 C 586.48 91.36 586.47 96.39 588.70 100.52 C 598.59 98.45 608.70 97.29 618.42 94.45 C 621.28 93.76 623.52 91.59 624.41 88.80 C 612.32 87.93 600.20 87.33 588.08 87.03 Z" />
<path fill="#a02238" opacity="1.00" d=" M 232.39 94.42 C 234.42 90.99 237.53 86.76 242.09 87.72 C 239.68 97.06 236.87 106.32 233.29 115.28 C 231.62 119.05 230.07 123.15 226.89 125.94 C 224.37 127.44 223.97 123.54 224.12 121.95 C 224.91 112.35 227.66 102.82 232.39 94.42 Z" />
<path fill="#a02238" opacity="1.00" d=" M 290.21 97.38 C 293.18 91.74 298.41 86.47 305.24 86.59 C 303.37 96.60 300.34 106.52 295.34 115.43 C 293.50 118.32 291.41 121.87 287.80 122.60 C 285.93 123.11 284.81 121.12 284.82 119.52 C 284.23 111.82 286.66 104.14 290.21 97.38 Z" />
<path fill="#a02238" opacity="1.00" d=" M 407.34 91.31 C 409.36 89.13 412.35 88.20 415.27 88.64 C 412.55 100.00 408.73 111.33 402.22 121.12 C 400.51 123.25 398.07 126.90 394.93 125.00 C 394.58 120.46 395.08 115.89 396.48 111.55 C 398.80 104.24 401.96 96.92 407.34 91.31 Z" />
<path fill="#a02238" opacity="1.00" d=" M 141.33 96.16 C 142.64 93.76 143.98 90.99 146.77 90.05 C 148.75 90.12 149.18 92.72 149.78 94.24 C 152.18 104.95 149.26 116.06 144.85 125.86 C 143.05 129.49 140.62 134.00 136.01 134.14 C 132.29 126.93 135.23 118.87 134.54 111.30 C 134.82 111.09 135.38 110.69 135.66 110.49 C 137.58 105.46 143.44 105.24 147.96 104.63 C 147.57 100.74 145.61 96.76 141.33 96.16 Z" />
<path fill="#a02238" opacity="1.00" d=" M 524.52 98.12 C 528.14 105.38 531.18 113.05 532.58 121.07 C 532.93 123.99 533.42 127.87 530.73 129.88 C 528.16 131.77 524.79 130.31 522.48 128.71 C 519.72 126.65 517.01 124.16 515.74 120.88 C 517.88 113.04 521.84 105.80 524.52 98.12 Z" />
<path fill="#a02238" opacity="1.00" d=" M 249.27 157.91 C 250.56 146.70 255.02 136.10 260.83 126.52 C 262.65 138.32 264.23 150.55 261.39 162.33 C 260.30 165.75 258.83 169.83 255.19 171.23 C 253.48 172.03 251.39 171.01 250.58 169.41 C 248.53 165.94 248.81 161.75 249.27 157.91 Z" />
</g>
<g id="#fdfdfeff">
<path fill="#fdfdfe" opacity="1.00" d=" M 78.55 36.53 C 83.14 34.67 89.64 35.03 91.91 40.15 C 97.26 51.06 94.37 63.69 91.58 74.90 C 99.18 68.97 110.12 66.23 119.12 70.57 C 125.38 73.53 128.95 80.38 129.02 87.16 C 131.04 82.29 133.49 77.01 138.23 74.24 C 142.82 71.39 148.72 74.30 151.44 78.41 C 154.58 83.40 158.25 88.23 159.79 94.02 C 163.36 106.47 161.19 119.87 156.78 131.81 C 154.13 138.38 150.34 145.61 143.26 148.16 C 137.48 150.34 131.10 146.91 128.03 141.94 C 122.81 133.75 122.13 123.67 122.35 114.21 C 119.94 115.15 119.03 117.66 117.77 119.70 C 114.19 125.63 109.87 131.09 105.26 136.24 C 98.37 143.51 91.01 150.77 81.73 154.87 C 78.41 156.33 73.75 157.15 71.17 153.94 C 68.69 150.67 66.64 146.39 67.23 142.22 C 70.18 136.74 75.36 132.95 79.88 128.83 C 88.37 121.90 97.20 115.34 106.47 109.48 C 108.60 108.02 111.44 107.16 112.54 104.61 C 115.82 98.53 119.08 91.33 116.81 84.36 C 115.98 81.42 112.73 80.00 109.90 80.80 C 101.69 82.66 95.24 88.67 89.69 94.68 C 85.52 99.30 81.97 104.47 79.08 109.98 C 78.11 112.40 75.20 113.46 72.81 112.59 C 68.33 111.36 65.65 107.09 64.24 102.94 C 66.91 99.71 70.22 96.95 72.13 93.15 C 78.22 82.00 82.63 69.78 83.89 57.09 C 84.31 53.16 84.13 49.00 82.02 45.54 C 79.68 45.99 77.34 46.88 75.73 48.72 C 71.16 53.57 68.24 59.70 65.84 65.85 C 60.77 79.31 58.63 93.69 58.05 108.01 C 57.65 118.35 58.23 128.87 61.14 138.86 C 62.08 142.33 63.84 145.49 66.01 148.34 C 64.90 150.82 62.70 152.65 59.91 152.86 C 55.11 152.86 50.90 149.68 48.23 145.89 C 43.77 139.53 42.46 131.58 42.09 123.98 C 41.33 101.04 46.40 77.72 57.53 57.57 C 62.62 49.04 68.94 40.23 78.55 36.53 M 141.33 96.16 C 145.61 96.76 147.57 100.74 147.96 104.63 C 143.44 105.24 137.58 105.46 135.66 110.49 C 135.38 110.69 134.82 111.09 134.54 111.30 C 135.23 118.87 132.29 126.93 136.01 134.14 C 140.62 134.00 143.05 129.49 144.85 125.86 C 149.26 116.06 152.18 104.95 149.78 94.24 C 149.18 92.72 148.75 90.12 146.77 90.05 C 143.98 90.99 142.64 93.76 141.33 96.16 Z" />
<path fill="#fdfdfe" opacity="1.00" d=" M 352.71 48.72 C 357.72 42.84 364.27 37.66 372.13 36.52 C 377.78 35.41 384.07 37.92 386.98 42.98 C 389.84 47.99 389.97 54.22 388.65 59.72 C 386.47 66.41 382.15 72.36 376.63 76.71 C 373.72 78.99 369.88 80.67 366.20 79.30 C 370.77 71.39 375.60 63.18 376.30 53.84 C 376.34 51.85 376.68 49.37 374.88 47.98 C 372.47 47.58 370.55 49.44 368.91 50.91 C 362.66 57.29 358.76 65.57 356.02 73.97 C 351.01 90.05 349.83 107.40 352.95 123.97 C 354.14 129.02 355.20 135.08 359.93 138.07 C 364.81 139.89 369.71 136.32 372.79 132.79 C 378.75 125.63 382.31 116.79 384.74 107.88 C 388.17 97.23 393.05 86.36 401.95 79.17 C 407.72 74.57 416.07 72.48 422.86 76.12 C 425.18 76.94 425.75 79.51 426.42 81.59 C 427.88 82.87 429.04 84.43 430.05 86.09 C 425.06 94.87 422.98 104.97 422.17 114.95 C 421.82 118.62 422.22 122.38 423.82 125.75 C 427.95 125.08 429.92 121.09 431.64 117.74 C 437.81 104.71 440.33 90.29 441.24 76.00 C 443.74 71.17 451.98 70.39 455.20 75.02 C 458.39 79.37 458.57 85.03 458.62 90.21 C 460.03 83.89 462.70 77.13 468.57 73.70 C 472.14 71.39 477.42 71.21 480.40 74.60 C 484.94 79.70 485.66 87.01 485.60 93.55 C 487.47 88.48 488.99 82.93 493.13 79.15 C 495.79 76.58 500.37 74.87 503.55 77.56 C 506.75 80.52 507.76 85.01 508.51 89.12 C 509.78 97.26 509.24 105.53 508.50 113.68 C 511.46 110.52 512.89 106.36 514.54 102.44 C 517.03 95.83 519.55 89.09 519.95 81.97 C 520.47 77.21 522.78 71.50 527.91 70.25 C 531.13 69.47 533.98 71.95 534.97 74.87 C 532.24 80.99 531.23 88.15 533.48 94.59 C 537.24 106.18 543.45 116.94 545.95 128.94 C 546.85 133.60 547.07 139.02 543.97 142.95 C 540.36 147.20 534.08 147.90 529.03 146.18 C 520.85 143.44 514.23 137.21 509.70 130.00 C 509.44 134.90 509.65 140.42 506.55 144.51 C 501.43 147.50 492.01 142.02 494.74 135.66 C 498.01 126.12 499.36 116.03 499.77 105.99 C 499.78 101.41 499.59 96.57 497.11 92.56 C 492.41 91.84 490.92 97.27 489.69 100.74 C 485.68 115.05 484.58 130.15 485.47 144.93 C 484.77 145.52 483.38 146.70 482.69 147.29 C 482.45 146.80 481.95 145.80 481.71 145.31 C 480.97 145.75 480.26 146.22 479.56 146.72 C 475.36 146.21 469.41 144.30 469.56 139.11 C 472.38 125.91 474.40 112.50 475.05 99.00 C 474.94 94.74 475.49 89.71 472.22 86.40 C 470.09 87.42 467.96 88.73 466.92 90.96 C 463.50 97.43 462.47 104.82 461.41 111.97 C 460.36 121.97 459.43 132.06 460.34 142.12 C 460.88 144.64 458.40 146.93 455.95 146.71 C 451.49 146.55 446.33 145.12 443.98 140.97 C 442.00 137.82 444.71 134.32 445.04 131.03 C 446.89 121.16 448.75 110.97 447.41 100.93 C 444.03 113.27 441.20 126.14 434.06 136.99 C 431.21 141.25 426.54 145.46 420.98 143.85 C 414.66 141.86 412.17 135.20 409.80 129.68 C 407.80 134.37 405.31 139.03 401.26 142.29 C 398.10 145.22 392.81 145.03 389.59 142.29 C 386.64 139.98 385.31 136.35 384.08 132.95 C 379.74 140.03 374.08 147.45 365.55 149.43 C 356.73 151.10 347.94 145.68 343.80 138.03 C 336.07 124.52 335.07 108.32 336.22 93.12 C 337.82 77.31 342.39 61.14 352.71 48.72 M 407.34 91.31 C 401.96 96.92 398.80 104.24 396.48 111.55 C 395.08 115.89 394.58 120.46 394.93 125.00 C 398.07 126.90 400.51 123.25 402.22 121.12 C 408.73 111.33 412.55 100.00 415.27 88.64 C 412.35 88.20 409.36 89.13 407.34 91.31 M 524.52 98.12 C 521.84 105.80 517.88 113.04 515.74 120.88 C 517.01 124.16 519.72 126.65 522.48 128.71 C 524.79 130.31 528.16 131.77 530.73 129.88 C 533.42 127.87 532.93 123.99 532.58 121.07 C 531.18 113.05 528.14 105.38 524.52 98.12 Z" />
<path fill="#fdfdfe" opacity="1.00" d=" M 556.77 62.94 C 570.04 46.96 591.26 37.99 611.96 39.38 C 625.18 40.14 638.78 44.10 648.69 53.24 C 657.98 61.75 662.31 74.60 662.19 87.00 C 662.61 99.00 657.53 110.77 649.43 119.49 C 639.78 129.85 625.61 137.08 611.20 135.47 C 606.19 146.80 598.28 157.20 587.64 163.75 C 582.59 166.90 576.27 168.29 570.51 166.41 C 579.64 155.44 586.42 141.59 586.19 127.08 C 586.61 123.96 584.11 121.15 580.95 121.49 C 572.37 122.03 564.83 126.89 557.57 131.07 C 556.45 124.56 562.02 119.82 567.04 116.89 C 573.65 113.14 581.50 110.35 589.17 111.78 C 593.58 112.41 595.79 117.01 596.18 121.02 C 597.39 130.75 593.99 140.31 589.85 148.96 C 600.19 141.80 606.11 130.03 609.78 118.32 C 620.07 118.55 629.73 112.81 636.27 105.17 C 646.37 93.44 647.01 74.67 637.50 62.40 C 630.23 52.72 617.95 47.58 606.00 47.69 C 594.96 47.35 584.15 51.73 575.70 58.68 C 567.57 65.28 561.20 73.87 556.52 83.20 C 553.34 82.86 550.29 80.38 550.12 77.07 C 550.59 71.76 553.49 67.01 556.77 62.94 Z" />
<path fill="#fdfdfe" opacity="1.00" d=" M 581.26 67.04 C 586.82 67.01 592.40 67.11 597.95 67.52 C 606.74 68.16 615.58 68.03 624.33 69.15 C 623.38 72.68 620.44 75.18 616.92 75.94 C 605.46 79.11 593.63 80.55 582.03 83.06 C 579.36 78.21 579.07 72.12 581.26 67.04 Z" />
<path fill="#fdfdfe" opacity="1.00" d=" M 308.30 75.62 C 310.70 71.32 316.24 71.49 320.44 72.33 C 322.09 72.93 324.15 73.39 325.08 75.05 C 323.93 77.49 322.35 79.72 321.57 82.33 C 316.96 96.38 315.07 111.25 315.27 126.01 C 315.59 130.86 315.67 135.89 317.42 140.49 C 318.11 142.55 320.10 144.28 319.84 146.57 C 318.24 149.29 314.64 148.85 312.22 147.64 C 308.52 145.68 306.46 141.78 304.95 138.05 C 302.90 132.48 301.97 126.55 301.72 120.63 C 299.27 127.43 296.90 134.49 292.24 140.15 C 290.29 142.53 287.34 144.75 284.07 143.86 C 280.66 142.81 278.83 139.42 277.65 136.31 C 274.94 128.47 274.62 120.07 274.83 111.86 C 273.00 112.85 271.22 113.94 269.48 115.07 C 272.43 130.02 274.92 145.27 273.73 160.55 C 272.75 166.96 270.64 173.37 266.76 178.63 C 263.21 183.43 256.80 186.08 250.93 184.53 C 242.34 182.66 236.30 174.53 235.14 166.09 C 233.66 155.81 236.93 145.56 241.30 136.37 C 245.58 128.00 250.76 119.97 257.33 113.20 C 256.74 106.52 254.34 100.22 252.43 93.84 C 247.70 106.19 243.93 118.98 237.82 130.77 C 235.39 135.09 233.16 140.07 228.77 142.72 C 223.16 144.21 217.82 139.29 216.50 134.10 C 214.58 137.78 212.70 141.76 209.15 144.15 C 205.71 146.52 200.23 145.31 198.43 141.44 C 195.91 136.66 197.53 131.16 197.86 126.09 C 198.43 117.10 199.47 107.97 197.67 99.05 C 197.26 97.10 196.22 95.38 195.34 93.62 C 190.28 91.35 186.17 96.41 184.71 100.71 C 180.16 112.92 179.39 126.12 177.98 138.96 C 177.42 141.73 178.52 145.91 175.31 147.28 C 171.02 148.98 166.21 146.88 162.87 144.11 C 161.62 143.25 162.18 141.49 162.28 140.25 C 163.99 130.89 165.40 121.45 166.02 111.95 C 166.28 102.96 166.76 93.71 163.97 85.02 C 163.26 82.68 161.76 80.67 161.01 78.36 C 162.98 75.07 167.31 73.18 170.89 75.10 C 177.18 78.35 179.30 86.11 179.46 92.70 C 181.41 88.48 183.56 84.10 187.38 81.26 C 191.48 77.96 198.20 78.14 201.81 82.11 C 206.67 87.13 208.07 94.35 209.06 101.02 C 210.28 108.31 209.89 115.73 210.42 123.07 C 210.39 124.24 211.08 125.21 211.62 126.17 C 214.54 121.65 213.66 116.03 214.92 111.00 C 217.13 99.90 220.55 88.12 229.04 80.13 C 232.97 76.25 238.77 76.58 243.81 77.31 C 244.49 75.27 245.80 73.37 248.16 73.29 C 252.35 73.67 255.42 77.10 257.56 80.44 C 262.18 87.96 264.63 96.55 266.82 105.03 C 269.73 103.52 272.81 102.36 275.85 101.12 C 278.43 91.68 282.92 81.69 291.57 76.38 C 296.62 73.13 302.88 73.78 308.30 75.62 M 232.39 94.42 C 227.66 102.82 224.91 112.35 224.12 121.95 C 223.97 123.54 224.37 127.44 226.89 125.94 C 230.07 123.15 231.62 119.05 233.29 115.28 C 236.87 106.32 239.68 97.06 242.09 87.72 C 237.53 86.76 234.42 90.99 232.39 94.42 M 290.21 97.38 C 286.66 104.14 284.23 111.82 284.82 119.52 C 284.81 121.12 285.93 123.11 287.80 122.60 C 291.41 121.87 293.50 118.32 295.34 115.43 C 300.34 106.52 303.37 96.60 305.24 86.59 C 298.41 86.47 293.18 91.74 290.21 97.38 M 249.27 157.91 C 248.81 161.75 248.53 165.94 250.58 169.41 C 251.39 171.01 253.48 172.03 255.19 171.23 C 258.83 169.83 260.30 165.75 261.39 162.33 C 264.23 150.55 262.65 138.32 260.83 126.52 C 255.02 136.10 250.56 146.70 249.27 157.91 Z" />
<path fill="#fdfdfe" opacity="1.00" d=" M 588.08 87.03 C 600.20 87.33 612.32 87.93 624.41 88.80 C 623.52 91.59 621.28 93.76 618.42 94.45 C 608.70 97.29 598.59 98.45 588.70 100.52 C 586.47 96.39 586.48 91.36 588.08 87.03 Z" />
</g>
</svg>
