<?xml version="1.0" encoding="UTF-8" ?>
<!DOCTYPE svg PUBLIC "-//W3C//DTD SVG 1.1//EN" "http://www.w3.org/Graphics/SVG/1.1/DTD/svg11.dtd">
<svg width="811pt" height="280pt" viewBox="0 0 811 280" version="1.1" xmlns="http://www.w3.org/2000/svg">
<g id="#ffffffff">
</g>
<g id="#33669bff">
<path fill="#33669b" opacity="1.00" d=" M 293.24 43.29 C 296.52 40.54 300.70 39.01 304.89 38.31 C 308.07 37.66 311.39 39.73 312.11 42.91 C 314.05 50.03 311.57 57.22 310.16 64.18 C 309.22 68.34 309.91 72.72 308.69 76.82 C 303.90 85.36 305.22 95.60 303.48 104.93 C 302.30 111.77 298.56 118.00 298.36 125.03 C 298.00 132.70 295.00 139.87 293.12 147.23 C 291.30 152.28 291.42 157.71 290.26 162.90 C 287.56 176.15 284.51 189.41 283.83 202.97 C 283.89 205.88 284.53 208.77 285.65 211.46 C 290.01 212.56 294.52 211.70 298.91 211.19 C 309.27 209.31 319.57 206.54 329.15 202.12 C 329.32 201.60 329.65 200.55 329.82 200.02 C 333.16 197.88 335.99 195.08 337.74 191.48 C 343.19 184.74 349.93 179.22 356.31 173.40 C 359.82 170.19 362.34 166.10 365.68 162.75 C 369.18 160.54 374.13 161.30 377.55 163.36 C 382.76 166.49 383.05 173.12 384.34 178.42 C 385.64 186.72 387.12 195.07 390.10 202.96 C 391.12 205.88 394.60 206.50 397.30 206.08 C 403.94 205.05 408.74 199.75 413.51 195.48 C 418.00 188.14 424.74 182.62 429.84 175.74 C 434.76 168.15 437.74 159.51 441.81 151.47 C 445.15 148.53 448.87 145.90 452.80 143.78 C 454.62 142.80 456.86 143.52 457.33 145.66 C 458.97 151.95 458.17 158.54 458.10 164.96 C 458.14 169.65 456.53 174.40 458.08 179.00 C 457.22 185.63 457.60 192.35 458.04 199.01 C 458.55 204.42 458.77 210.16 461.73 214.91 C 467.22 212.38 469.93 206.62 473.09 201.82 C 480.04 189.23 486.51 176.36 492.09 163.10 C 493.87 158.90 495.17 154.51 495.95 150.02 C 496.92 144.95 498.41 139.47 502.68 136.17 C 502.80 136.42 503.05 136.92 503.17 137.17 C 504.65 137.49 506.30 137.34 507.66 138.12 C 508.32 140.95 508.67 143.84 509.41 146.66 L 509.47 146.89 C 508.38 153.46 504.49 159.16 503.76 165.79 C 502.19 173.37 496.37 179.24 495.33 186.99 C 492.10 196.31 486.09 204.39 481.61 213.10 C 479.61 221.76 472.18 227.33 466.44 233.53 C 463.80 236.10 462.07 239.81 458.52 241.28 C 452.99 243.18 446.20 241.15 443.09 236.07 C 439.30 229.82 439.27 222.22 439.57 215.18 C 436.65 207.15 437.63 198.52 437.45 190.16 C 430.05 195.80 424.30 203.25 418.02 210.05 C 411.76 215.21 405.29 220.17 398.39 224.46 C 391.43 229.16 382.22 227.88 374.74 225.28 C 369.47 221.22 367.90 214.28 365.47 208.40 C 363.62 205.04 361.30 201.96 359.39 198.63 C 358.40 197.25 356.90 194.82 354.93 196.05 C 350.82 197.92 347.71 201.35 344.54 204.46 C 340.26 208.55 338.05 214.15 334.81 218.99 C 332.06 222.92 327.53 225.03 323.13 226.55 C 317.29 228.64 311.75 231.44 306.06 233.90 C 301.30 236.03 296.00 236.10 290.95 237.06 C 285.34 238.11 279.51 239.20 273.84 238.03 C 270.52 236.52 267.68 234.14 264.50 232.38 C 262.44 231.36 261.97 228.94 261.58 226.90 C 260.76 221.49 260.34 215.98 260.85 210.51 C 262.02 199.78 266.09 189.62 267.46 178.92 C 267.94 174.93 266.92 170.93 267.46 166.94 C 268.88 155.19 272.93 143.72 272.48 131.78 C 271.22 130.59 269.87 129.47 268.83 128.07 C 268.04 120.94 270.11 113.88 271.89 107.05 C 274.16 96.69 277.15 86.49 278.78 76.01 C 280.31 69.13 283.72 62.87 286.32 56.36 C 288.62 52.01 289.34 46.63 293.24 43.29 Z" />
<path fill="#33669b" opacity="1.00" d=" M 386.08 87.00 C 389.46 85.51 393.38 85.15 396.98 85.93 C 399.58 86.70 400.76 89.52 400.04 92.04 C 398.77 98.88 397.09 105.75 394.08 112.06 C 391.84 116.73 387.17 119.41 382.95 122.05 C 378.48 124.94 372.99 123.06 368.10 122.69 C 364.85 117.44 364.06 110.14 367.63 104.85 C 370.21 100.79 373.35 96.79 377.84 94.74 C 381.36 93.06 382.78 88.97 386.08 87.00 Z" />
<path fill="#33669b" opacity="1.00" d=" M 539.13 133.01 C 543.21 127.75 548.98 122.95 555.96 122.82 C 560.00 122.63 565.02 122.67 567.55 126.42 C 570.14 130.45 570.89 135.38 571.37 140.07 C 569.69 146.75 568.19 153.69 564.36 159.56 C 557.98 169.76 549.29 178.21 540.99 186.82 C 538.62 189.04 538.96 192.68 539.65 195.55 C 541.41 200.56 547.26 202.23 552.00 202.77 C 558.98 202.82 565.94 200.54 571.77 196.74 C 572.94 196.13 574.12 195.10 575.55 195.33 C 577.41 199.38 579.26 203.45 580.82 207.64 C 574.97 212.95 569.23 218.82 561.73 221.74 C 559.20 222.81 556.44 223.05 553.87 223.93 C 545.82 227.31 535.43 227.14 528.46 221.47 C 522.86 217.03 522.60 209.01 517.95 203.95 C 514.94 201.92 513.41 207.04 510.79 206.60 C 508.94 202.67 507.26 198.67 505.31 194.79 C 507.75 190.55 511.25 187.10 514.96 183.96 C 517.23 182.39 516.82 179.31 517.32 176.92 C 517.79 166.87 522.52 157.77 526.94 148.97 C 529.88 142.86 535.08 138.34 539.13 133.01 M 547.55 150.39 C 542.61 156.27 537.31 162.79 536.56 170.74 C 540.83 171.53 541.75 166.69 544.37 164.49 C 548.24 160.80 552.20 156.32 551.62 150.54 C 550.26 150.47 548.90 150.43 547.55 150.39 Z" />
</g>
<g id="#797979ff">
<path fill="#797979" opacity="1.00" d=" M 682.95 41.96 C 692.71 40.84 703.11 41.18 711.91 46.02 C 712.43 46.48 713.47 47.39 713.98 47.85 C 713.18 48.51 712.38 49.19 711.60 49.86 C 711.53 49.39 711.39 48.44 711.32 47.96 C 704.43 43.63 695.96 42.74 687.99 43.19 C 682.18 43.41 676.48 44.84 671.15 47.12 C 671.14 47.63 671.12 48.67 671.11 49.19 C 670.72 49.26 669.93 49.41 669.54 49.48 C 669.56 48.82 669.59 47.50 669.61 46.84 C 673.21 44.03 678.38 42.85 682.95 41.96 Z" />
</g>
<g id="#0d0c0dff">
<path fill="#0d0c0d" opacity="1.00" d=" M 687.99 43.19 C 695.96 42.74 704.43 43.63 711.32 47.96 C 711.39 48.44 711.53 49.39 711.60 49.86 C 711.13 50.28 710.18 51.13 709.70 51.55 C 708.81 52.33 707.94 53.13 707.06 53.90 C 703.05 54.80 699.47 56.83 695.94 58.85 C 696.31 55.05 699.16 50.68 696.52 47.19 C 695.13 46.47 693.73 45.78 692.32 45.11 C 691.67 47.11 691.33 49.20 691.63 51.31 C 690.09 51.72 688.54 52.06 687.00 52.42 C 686.01 51.77 685.04 51.11 684.09 50.44 C 682.05 50.88 680.03 51.32 678.05 51.90 C 676.58 52.30 675.11 52.70 673.66 53.12 C 673.38 52.76 672.84 52.04 672.57 51.68 C 672.03 50.87 671.54 50.04 671.11 49.19 C 671.12 48.67 671.14 47.63 671.15 47.12 C 676.48 44.84 682.18 43.41 687.99 43.19 M 688.22 46.15 C 688.43 49.50 691.16 44.56 688.22 46.15 M 686.06 47.22 C 684.62 50.24 689.43 47.28 686.06 47.22 Z" />
</g>
<g id="#626262ff">
<path fill="#626262" opacity="1.00" d=" M 688.22 46.15 C 691.16 44.56 688.43 49.50 688.22 46.15 Z" />
</g>
<g id="#8b898aff">
<path fill="#8b898a" opacity="1.00" d=" M 691.63 51.31 C 691.33 49.20 691.67 47.11 692.32 45.11 C 693.73 45.78 695.13 46.47 696.52 47.19 C 695.13 48.82 693.68 50.50 691.63 51.31 Z" />
</g>
<g id="#c2bcbcff">
<path fill="#c2bcbc" opacity="1.00" d=" M 711.91 46.02 C 714.97 47.24 717.76 49.03 720.35 51.07 L 720.44 51.60 C 721.42 58.90 730.84 62.31 730.13 70.25 C 727.82 67.11 726.01 63.53 723.04 60.92 C 718.95 57.33 714.89 53.50 709.70 51.55 C 710.18 51.13 711.13 50.28 711.60 49.86 C 712.38 49.19 713.18 48.51 713.98 47.85 C 713.47 47.39 712.43 46.48 711.91 46.02 Z" />
</g>
<g id="#b8b3b0ff">
<path fill="#b8b3b0" opacity="1.00" d=" M 644.72 77.96 C 648.06 64.75 657.07 52.55 669.61 46.84 C 669.59 47.50 669.56 48.82 669.54 49.48 C 661.44 53.54 655.88 61.13 651.37 68.75 C 647.90 73.02 648.11 78.85 648.17 84.04 C 648.22 88.80 651.46 92.55 653.26 96.73 C 655.14 101.35 655.17 106.48 656.94 111.14 C 658.30 114.96 663.22 115.30 665.26 118.65 C 665.99 119.78 666.73 120.91 667.48 122.03 C 663.07 120.13 658.22 118.69 654.66 115.31 C 653.84 114.65 653.78 113.55 653.58 112.62 C 652.46 105.01 649.91 97.72 647.73 90.37 C 646.83 86.42 646.68 82.26 644.94 78.53 L 644.72 77.96 Z" />
</g>
<g id="#807f80ff">
<path fill="#807f80" opacity="1.00" d=" M 686.06 47.22 C 689.43 47.28 684.62 50.24 686.06 47.22 Z" />
</g>
<g id="#6c7764ff">
<path fill="#6c7764" opacity="1.00" d=" M 696.52 47.19 C 699.16 50.68 696.31 55.05 695.94 58.85 C 699.47 56.83 703.05 54.80 707.06 53.90 L 705.98 54.86 C 702.42 57.63 698.04 59.08 693.76 60.32 C 686.38 61.08 678.85 58.40 673.66 53.12 C 675.11 52.70 676.58 52.30 678.05 51.90 C 677.61 52.28 676.74 53.05 676.30 53.43 C 678.24 55.18 680.50 56.54 682.94 57.49 C 685.24 58.37 687.68 58.76 688.67 55.95 C 690.14 55.35 691.63 54.80 693.06 54.05 C 691.29 53.61 689.53 53.18 687.76 52.79 L 687.00 52.42 C 688.54 52.06 690.09 51.72 691.63 51.31 C 693.68 50.50 695.13 48.82 696.52 47.19 Z" />
</g>
<g id="#eae6e6ff">
<path fill="#eae6e6" opacity="1.00" d=" M 651.37 68.75 C 655.88 61.13 661.44 53.54 669.54 49.48 C 669.93 49.41 670.72 49.26 671.11 49.19 C 671.54 50.04 672.03 50.87 672.57 51.68 C 667.35 53.30 664.08 57.96 660.94 62.11 C 658.36 66.17 654.83 70.27 655.27 75.41 C 655.05 79.47 658.23 82.46 661.10 84.81 C 662.25 84.24 663.40 83.68 664.56 83.12 C 664.41 84.28 664.28 85.43 664.15 86.59 C 663.62 88.31 663.02 90.01 662.45 91.72 C 660.44 91.55 658.18 91.89 656.43 90.67 C 652.83 88.05 650.46 83.59 650.85 79.09 C 651.08 75.64 651.57 72.21 651.37 68.75 Z" />
</g>
<g id="#9f9d9eff">
<path fill="#9f9d9e" opacity="1.00" d=" M 678.05 51.90 C 680.03 51.32 682.05 50.88 684.09 50.44 C 685.04 51.11 686.01 51.77 687.00 52.42 L 687.76 52.79 C 686.52 53.33 685.32 53.91 684.11 54.49 C 684.53 54.79 685.36 55.41 685.78 55.72 C 684.83 56.31 683.87 56.90 682.94 57.49 C 680.50 56.54 678.24 55.18 676.30 53.43 C 676.74 53.05 677.61 52.28 678.05 51.90 Z" />
</g>
<g id="#fdfdfcff">
<path fill="#fdfdfc" opacity="1.00" d=" M 660.94 62.11 C 664.08 57.96 667.35 53.30 672.57 51.68 C 672.84 52.04 673.38 52.76 673.66 53.12 C 678.85 58.40 686.38 61.08 693.76 60.32 C 695.96 61.55 698.25 62.63 700.58 63.59 C 700.35 64.38 700.13 65.16 699.92 65.95 C 699.57 65.82 698.87 65.55 698.52 65.42 C 685.29 59.70 668.75 68.19 664.76 81.83 C 664.71 82.15 664.61 82.80 664.56 83.12 C 663.40 83.68 662.25 84.24 661.10 84.81 C 658.23 82.46 655.05 79.47 655.27 75.41 C 654.83 70.27 658.36 66.17 660.94 62.11 Z" />
</g>
<g id="#dbd4d2ff">
<path fill="#dbd4d2" opacity="1.00" d=" M 707.06 53.90 C 707.94 53.13 708.81 52.33 709.70 51.55 C 714.89 53.50 718.95 57.33 723.04 60.92 C 726.01 63.53 727.82 67.11 730.13 70.25 C 730.85 71.33 731.56 72.42 732.25 73.54 C 732.15 78.80 734.22 83.78 734.28 89.02 C 734.42 94.59 734.50 100.32 732.61 105.63 C 731.25 109.82 728.05 113.13 724.59 115.70 C 722.04 117.55 718.29 115.56 715.95 117.87 C 712.83 120.55 710.07 123.63 706.83 126.17 C 698.44 130.40 688.52 131.67 679.53 128.67 C 675.23 127.02 671.35 124.49 667.48 122.03 C 666.73 120.91 665.99 119.78 665.26 118.65 C 667.76 117.65 670.44 117.30 673.08 116.77 C 673.18 117.42 673.38 118.73 673.48 119.38 C 674.85 120.01 676.21 120.65 677.60 121.24 C 683.44 123.59 689.93 123.82 696.12 123.04 C 698.24 122.76 700.33 122.19 702.36 121.50 C 703.81 120.73 705.18 119.82 706.51 118.85 C 708.25 117.57 710.23 116.69 712.22 115.86 C 712.43 115.50 712.87 114.78 713.09 114.42 C 712.22 114.23 710.49 113.83 709.62 113.64 C 710.12 113.53 711.11 113.30 711.61 113.19 C 716.63 112.26 722.53 112.29 726.27 108.26 C 730.12 104.62 731.59 99.15 731.37 93.98 C 731.05 87.51 731.26 80.88 729.30 74.63 C 727.54 67.98 721.90 63.39 716.76 59.29 C 713.69 56.74 709.91 55.35 705.98 54.86 L 707.06 53.90 Z" />
</g>
<g id="#b7b2b0ff">
<path fill="#b7b2b0" opacity="1.00" d=" M 730.13 70.25 C 730.84 62.31 721.42 58.90 720.44 51.60 C 731.08 59.07 737.54 71.77 738.66 84.59 C 738.67 90.55 739.26 96.85 736.63 102.41 C 736.20 92.71 736.75 82.43 732.25 73.54 C 731.56 72.42 730.85 71.33 730.13 70.25 Z" />
</g>
<g id="#888d7bff">
<path fill="#888d7b" opacity="1.00" d=" M 687.76 52.79 C 689.53 53.18 691.29 53.61 693.06 54.05 C 691.63 54.80 690.14 55.35 688.67 55.95 C 687.68 58.76 685.24 58.37 682.94 57.49 C 683.87 56.90 684.83 56.31 685.78 55.72 C 685.36 55.41 684.53 54.79 684.11 54.49 C 685.32 53.91 686.52 53.33 687.76 52.79 Z" />
</g>
<g id="#eeecebff">
<path fill="#eeeceb" opacity="1.00" d=" M 693.76 60.32 C 698.04 59.08 702.42 57.63 705.98 54.86 C 709.91 55.35 713.69 56.74 716.76 59.29 C 721.90 63.39 727.54 67.98 729.30 74.63 C 731.26 80.88 731.05 87.51 731.37 93.98 C 731.59 99.15 730.12 104.62 726.27 108.26 C 722.53 112.29 716.63 112.26 711.61 113.19 C 710.57 112.25 709.55 111.31 708.52 110.37 C 709.31 109.57 710.11 108.78 710.92 107.98 C 710.56 107.36 709.84 106.12 709.48 105.50 C 711.54 102.71 713.05 99.56 714.20 96.30 C 714.57 95.23 714.96 94.16 715.30 93.08 C 716.21 92.09 717.12 91.11 718.04 90.12 C 718.45 92.14 718.86 94.16 719.28 96.18 C 719.55 96.33 720.09 96.63 720.36 96.77 C 721.14 98.61 721.97 102.14 724.72 100.84 C 725.38 96.74 724.93 92.55 725.56 88.43 C 726.27 83.44 726.82 78.05 724.68 73.32 C 722.95 70.49 720.73 67.66 717.67 66.25 C 714.24 65.66 710.76 66.50 707.30 66.44 C 707.81 65.49 708.32 64.54 708.83 63.59 C 706.24 63.90 703.98 65.13 702.26 67.08 C 701.48 66.68 700.70 66.31 699.92 65.95 C 700.13 65.16 700.35 64.38 700.58 63.59 C 698.25 62.63 695.96 61.55 693.76 60.32 Z" />
</g>
<g id="#605f5eff">
<path fill="#605f5e" opacity="1.00" d=" M 664.76 81.83 C 668.75 68.19 685.29 59.70 698.52 65.42 C 694.39 66.90 690.03 67.37 685.71 67.88 C 676.73 69.38 669.30 76.84 667.37 85.68 C 666.97 85.59 666.18 85.41 665.79 85.32 C 665.43 84.16 665.09 82.99 664.76 81.83 Z" />
</g>
<g id="#f9f9f9ff">
<path fill="#f9f9f9" opacity="1.00" d=" M 702.26 67.08 C 703.98 65.13 706.24 63.90 708.83 63.59 C 708.32 64.54 707.81 65.49 707.30 66.44 C 710.76 66.50 714.24 65.66 717.67 66.25 C 720.73 67.66 722.95 70.49 724.68 73.32 C 726.82 78.05 726.27 83.44 725.56 88.43 C 724.93 92.55 725.38 96.74 724.72 100.84 C 721.97 102.14 721.14 98.61 720.36 96.77 C 720.09 96.63 719.55 96.33 719.28 96.18 C 718.86 94.16 718.45 92.14 718.04 90.12 C 717.12 91.11 716.21 92.09 715.30 93.08 C 715.77 89.22 715.45 85.27 713.93 81.67 C 711.88 75.64 707.72 70.37 702.26 67.08 Z" />
</g>
<g id="#4f4e4cff">
<path fill="#4f4e4c" opacity="1.00" d=" M 685.71 67.88 C 690.03 67.37 694.39 66.90 698.52 65.42 C 698.87 65.55 699.57 65.82 699.92 65.95 C 700.70 66.31 701.48 66.68 702.26 67.08 C 707.72 70.37 711.88 75.64 713.93 81.67 C 714.65 86.50 714.83 91.44 714.20 96.30 C 713.05 99.56 711.54 102.71 709.48 105.50 C 706.91 108.39 703.89 110.92 700.35 112.52 C 700.46 111.80 700.69 110.35 700.81 109.63 C 695.49 110.20 689.96 111.58 684.91 109.01 C 689.32 107.93 694.09 108.10 698.24 106.05 C 704.33 102.42 708.22 95.86 709.62 89.02 C 710.51 84.65 708.66 80.45 706.42 76.81 C 703.76 74.66 701.57 71.85 698.38 70.46 C 694.43 68.57 690.03 67.99 685.71 67.88 Z" />
</g>
<g id="#383533ff">
<path fill="#383533" opacity="1.00" d=" M 667.37 85.68 C 669.30 76.84 676.73 69.38 685.71 67.88 C 690.03 67.99 694.43 68.57 698.38 70.46 C 701.57 71.85 703.76 74.66 706.42 76.81 C 708.66 80.45 710.51 84.65 709.62 89.02 C 708.22 95.86 704.33 102.42 698.24 106.05 C 694.09 108.10 689.32 107.93 684.91 109.01 C 689.96 111.58 695.49 110.20 700.81 109.63 C 700.69 110.35 700.46 111.80 700.35 112.52 C 697.53 113.67 694.55 114.34 691.62 115.14 C 682.10 115.28 672.48 110.84 667.46 102.55 C 664.44 97.79 663.86 92.09 664.15 86.59 C 664.28 85.43 664.41 84.28 664.56 83.12 C 664.61 82.80 664.71 82.15 664.76 81.83 C 665.09 82.99 665.43 84.16 665.79 85.32 C 666.18 85.41 666.97 85.59 667.37 85.68 M 675.50 78.47 C 671.91 82.53 671.74 88.38 672.70 93.45 C 674.73 102.17 684.17 108.30 692.98 106.30 C 701.14 104.67 706.63 96.57 706.99 88.54 C 706.35 88.69 705.07 89.01 704.44 89.17 C 704.38 90.52 704.17 91.85 703.82 93.15 C 704.22 90.10 704.23 86.99 703.87 83.94 C 704.11 84.87 704.61 86.75 704.86 87.69 C 705.48 86.99 706.10 86.29 706.73 85.59 C 705.77 82.69 704.64 79.73 702.48 77.50 C 695.64 69.81 681.63 69.96 675.50 78.47 Z" />
</g>
<g id="#cbc6c3ff">
<path fill="#cbc6c3" opacity="1.00" d=" M 648.17 84.04 C 648.11 78.85 647.90 73.02 651.37 68.75 C 651.57 72.21 651.08 75.64 650.85 79.09 C 650.46 83.59 652.83 88.05 656.43 90.67 C 658.18 91.89 660.44 91.55 662.45 91.72 C 663.02 90.01 663.62 88.31 664.15 86.59 C 663.86 92.09 664.44 97.79 667.46 102.55 C 665.50 103.93 661.69 104.69 662.23 107.84 C 662.27 110.67 664.97 112.01 667.25 112.89 C 666.83 113.22 665.98 113.89 665.55 114.22 C 668.02 115.18 670.50 116.14 673.08 116.77 C 670.44 117.30 667.76 117.65 665.26 118.65 C 663.22 115.30 658.30 114.96 656.94 111.14 C 655.17 106.48 655.14 101.35 653.26 96.73 C 651.46 92.55 648.22 88.80 648.17 84.04 Z" />
</g>
<g id="#b1b0aeff">
<path fill="#b1b0ae" opacity="1.00" d=" M 675.50 78.47 C 681.63 69.96 695.64 69.81 702.48 77.50 C 704.64 79.73 705.77 82.69 706.73 85.59 C 706.10 86.29 705.48 86.99 704.86 87.69 C 704.61 86.75 704.11 84.87 703.87 83.94 C 701.12 77.10 693.35 72.25 685.99 74.18 C 680.41 75.26 675.95 79.89 674.43 85.28 C 672.59 93.02 677.45 101.61 684.97 104.17 C 691.22 105.41 698.13 103.28 701.82 97.89 C 702.28 97.06 702.71 96.21 703.12 95.36 C 703.30 94.80 703.65 93.70 703.82 93.15 C 704.17 91.85 704.38 90.52 704.44 89.17 C 705.07 89.01 706.35 88.69 706.99 88.54 C 706.63 96.57 701.14 104.67 692.98 106.30 C 684.17 108.30 674.73 102.17 672.70 93.45 C 671.74 88.38 671.91 82.53 675.50 78.47 Z" />
</g>
<g id="#181715ff">
<path fill="#181715" opacity="1.00" d=" M 674.43 85.28 C 675.95 79.89 680.41 75.26 685.99 74.18 C 693.35 72.25 701.12 77.10 703.87 83.94 C 704.23 86.99 704.22 90.10 703.82 93.15 C 703.65 93.70 703.30 94.80 703.12 95.36 C 701.01 93.04 698.73 90.61 695.51 90.00 C 694.19 90.50 692.94 91.12 691.73 91.83 C 691.26 91.81 690.32 91.78 689.85 91.77 C 689.31 90.96 688.77 90.16 688.24 89.36 C 690.40 89.13 692.52 88.58 693.96 86.81 C 691.63 86.61 689.30 86.59 686.98 86.61 C 686.74 87.31 686.51 88.02 686.29 88.72 C 685.73 88.87 684.61 89.17 684.04 89.32 C 683.59 89.03 682.67 88.43 682.22 88.14 C 681.79 90.44 680.65 92.51 680.07 94.76 C 682.47 100.56 689.50 100.17 694.42 102.25 C 691.22 102.66 688.02 103.13 684.97 104.17 C 677.45 101.61 672.59 93.02 674.43 85.28 Z" />
</g>
<g id="#c4bfbdff">
<path fill="#c4bfbd" opacity="1.00" d=" M 732.25 73.54 C 736.75 82.43 736.20 92.71 736.63 102.41 C 736.56 105.68 734.90 108.66 733.47 111.51 C 730.30 116.88 726.57 122.09 721.55 125.87 C 720.07 124.42 718.54 123.01 716.95 121.68 C 713.63 123.29 710.27 124.83 706.83 126.17 C 710.07 123.63 712.83 120.55 715.95 117.87 C 718.29 115.56 722.04 117.55 724.59 115.70 C 728.05 113.13 731.25 109.82 732.61 105.63 C 734.50 100.32 734.42 94.59 734.28 89.02 C 734.22 83.78 732.15 78.80 732.25 73.54 Z" />
</g>
<g id="#a79f9bff">
<path fill="#a79f9b" opacity="1.00" d=" M 644.94 78.53 C 646.68 82.26 646.83 86.42 647.73 90.37 C 649.91 97.72 652.46 105.01 653.58 112.62 C 653.78 113.55 653.84 114.65 654.66 115.31 C 658.22 118.69 663.07 120.13 667.48 122.03 C 671.35 124.49 675.23 127.02 679.53 128.67 C 688.52 131.67 698.44 130.40 706.83 126.17 C 710.27 124.83 713.63 123.29 716.95 121.68 C 718.54 123.01 720.07 124.42 721.55 125.87 C 719.89 126.95 718.24 128.05 716.60 129.15 C 715.66 128.34 715.02 127.25 714.03 126.52 C 708.28 129.65 702.20 132.15 695.86 133.79 C 694.19 134.11 692.54 133.56 690.96 133.12 C 690.72 132.80 690.24 132.14 690.00 131.81 L 689.42 132.29 C 685.28 133.62 680.55 133.17 676.90 130.75 C 673.08 128.10 669.15 125.62 665.14 123.27 C 663.95 124.22 662.76 125.18 661.58 126.13 C 647.50 115.20 640.75 95.87 644.94 78.53 Z" />
</g>
<g id="#a4a4a4ff">
<path fill="#a4a4a4" opacity="1.00" d=" M 713.93 81.67 C 715.45 85.27 715.77 89.22 715.30 93.08 C 714.96 94.16 714.57 95.23 714.20 96.30 C 714.83 91.44 714.65 86.50 713.93 81.67 Z" />
</g>
<g id="#3a3937ff">
<path fill="#3a3937" opacity="1.00" d=" M 686.98 86.61 C 689.30 86.59 691.63 86.61 693.96 86.81 C 692.52 88.58 690.40 89.13 688.24 89.36 C 688.77 90.16 689.31 90.96 689.85 91.77 C 690.32 91.78 691.26 91.81 691.73 91.83 C 691.35 92.92 690.99 94.01 690.66 95.12 C 693.00 94.16 695.01 92.64 695.51 90.00 C 698.73 90.61 701.01 93.04 703.12 95.36 C 702.71 96.21 702.28 97.06 701.82 97.89 C 700.44 97.35 699.09 96.82 697.73 96.29 C 697.67 97.26 697.62 98.24 697.58 99.21 C 695.00 99.50 692.40 99.67 689.82 99.73 C 691.15 98.90 692.48 98.08 693.83 97.26 C 690.66 95.69 685.78 96.66 683.97 93.11 C 685.17 93.34 687.57 93.79 688.77 94.01 C 688.11 92.89 687.34 91.83 686.66 90.73 C 686.26 90.55 685.48 90.17 685.08 89.98 L 684.04 89.32 C 684.61 89.17 685.73 88.87 686.29 88.72 C 686.51 88.02 686.74 87.31 686.98 86.61 Z" />
</g>
<g id="#000000ff">
<path fill="#000000" opacity="1.00" d=" M 47.75 87.49 C 68.90 87.48 90.06 87.46 111.21 87.50 C 111.23 88.55 111.25 90.66 111.27 91.71 C 107.08 91.63 102.91 91.84 98.79 92.66 C 94.89 94.40 91.34 97.60 90.84 102.07 C 89.47 110.30 90.60 118.71 89.99 127.01 C 89.89 141.32 90.19 155.65 90.13 170.00 C 89.34 178.33 90.33 186.68 89.93 195.01 C 90.14 199.07 89.46 203.16 90.22 207.20 L 89.81 207.79 C 90.84 213.78 89.11 220.31 92.10 225.88 C 96.00 231.06 103.01 232.24 109.11 231.83 C 112.02 231.26 111.10 234.53 111.31 236.22 C 90.12 236.27 68.92 236.23 47.73 236.24 C 48.16 234.89 46.85 232.37 48.72 231.90 C 54.09 231.76 60.11 232.35 64.43 228.44 C 68.54 225.33 68.53 219.62 68.75 214.95 C 68.83 179.96 68.77 144.97 68.78 109.99 C 68.64 106.15 68.91 102.11 67.27 98.54 C 65.56 95.50 62.32 93.93 59.24 92.67 C 55.48 91.83 51.65 91.57 47.81 91.79 C 47.78 90.35 47.76 88.92 47.75 87.49 Z" />
<path fill="#000000" opacity="1.00" d=" M 136.05 157.18 C 138.72 155.83 141.64 155.23 144.64 155.38 C 144.80 160.87 144.54 166.37 144.83 171.86 C 151.24 165.34 157.55 157.84 166.90 155.68 C 172.20 155.23 177.99 155.14 182.51 158.38 C 185.90 160.39 188.15 163.74 189.95 167.16 C 190.26 168.43 190.56 169.70 190.86 170.98 C 193.71 170.13 195.29 167.36 197.39 165.44 C 202.85 159.45 210.63 155.06 218.93 155.46 C 225.50 155.15 232.23 158.67 235.35 164.54 C 238.41 169.45 239.45 175.31 239.47 181.03 C 239.60 194.67 239.41 208.32 239.56 221.97 C 239.47 224.92 240.29 227.79 241.53 230.44 C 244.18 232.59 247.54 232.60 250.72 233.11 C 250.90 233.89 251.26 235.44 251.45 236.21 C 238.38 236.29 225.32 236.18 212.25 236.27 C 212.24 235.54 212.21 234.09 212.20 233.36 C 215.67 232.59 219.77 233.06 222.54 230.42 C 224.92 227.92 225.01 224.26 225.02 221.02 C 224.96 208.35 225.04 195.67 224.98 183.01 C 224.71 178.21 224.42 172.77 220.95 169.07 C 215.97 164.82 208.56 165.35 203.05 168.26 C 198.61 170.19 195.29 173.78 191.65 176.83 C 192.59 187.53 191.90 198.29 192.11 209.01 C 192.27 214.98 191.65 221.01 192.64 226.92 C 193.07 229.64 195.50 231.24 197.72 232.45 C 199.98 232.60 202.24 232.72 204.51 232.78 C 204.65 233.94 204.78 235.10 204.91 236.26 C 191.55 236.13 178.17 236.43 164.82 236.11 C 164.38 234.65 164.78 233.56 166.01 232.86 C 168.76 232.58 171.87 232.98 174.23 231.22 C 175.66 230.28 176.36 228.64 177.34 227.30 C 177.88 219.21 177.50 211.09 177.61 202.99 C 177.50 194.25 177.91 185.51 177.26 176.79 C 176.27 172.69 174.02 168.65 170.08 166.77 C 165.33 164.32 159.65 165.73 155.23 168.23 C 151.31 170.41 147.18 173.02 144.76 176.84 C 144.60 191.57 144.75 206.31 144.69 221.04 C 144.94 224.53 144.84 228.77 147.90 231.11 C 150.57 233.41 154.44 232.28 157.59 233.42 C 157.56 234.13 157.49 235.54 157.45 236.25 C 144.43 236.18 131.40 236.34 118.38 236.17 C 118.51 235.36 118.76 233.74 118.88 232.93 C 121.61 232.37 124.97 233.27 127.10 231.04 C 130.21 227.91 130.12 223.12 130.25 219.02 C 130.10 205.34 130.48 191.65 130.02 177.98 C 129.71 174.48 130.00 170.32 127.29 167.66 C 124.35 166.24 121.11 167.43 118.10 167.89 C 117.75 166.84 117.42 165.78 117.08 164.72 C 123.51 162.47 129.76 159.78 136.05 157.18 Z" />
<path fill="#000000" opacity="1.00" d=" M 622.71 204.45 C 626.26 199.10 632.40 195.07 639.00 195.48 C 643.76 195.13 647.89 197.88 651.13 201.07 C 651.78 203.20 651.87 205.41 651.61 207.62 C 649.59 208.58 647.21 209.17 645.10 208.11 C 642.31 206.18 643.42 202.15 641.42 199.62 C 639.06 198.86 636.52 198.14 634.11 199.14 C 630.86 199.98 629.13 203.12 627.62 205.82 C 627.46 206.92 627.30 208.01 627.14 209.11 C 625.76 215.14 627.49 221.90 631.49 226.61 C 634.98 230.93 641.83 231.62 646.22 228.27 C 649.40 226.39 650.49 222.69 652.57 219.86 C 653.51 229.63 643.69 238.81 634.00 237.21 C 627.73 236.00 622.96 230.92 620.69 225.15 C 619.11 218.32 618.86 210.60 622.71 204.45 Z" />
<path fill="#000000" opacity="1.00" d=" M 660.77 204.98 C 664.15 198.94 671.04 194.78 678.06 195.52 C 688.26 195.85 696.24 206.08 695.63 215.97 C 695.47 223.89 691.40 232.56 683.76 235.75 C 678.77 238.08 672.63 238.01 667.82 235.27 C 663.37 233.02 660.48 228.65 658.64 224.16 C 656.82 217.79 657.37 210.74 660.77 204.98 M 670.97 199.95 C 667.24 202.34 666.11 207.03 665.72 211.16 C 665.33 218.96 667.24 227.41 673.06 232.98 C 675.08 233.67 677.15 234.31 679.31 234.40 C 681.21 233.48 683.41 232.73 684.62 230.86 C 687.61 226.58 687.63 221.09 687.34 216.09 C 686.86 210.84 685.54 205.24 681.74 201.35 C 679.01 198.50 674.31 197.70 670.97 199.95 Z" />
<path fill="#000000" opacity="1.00" d=" M 712.30 203.74 C 715.92 199.79 720.25 195.15 726.10 195.48 C 730.86 195.37 734.48 199.33 735.72 203.63 C 739.01 199.54 743.47 195.44 749.07 195.51 C 754.09 195.02 758.47 199.28 759.34 204.03 C 760.46 213.76 758.43 223.75 760.57 233.36 C 762.15 234.07 763.82 234.51 765.54 234.77 C 765.53 235.15 765.50 235.90 765.49 236.27 C 758.97 236.17 752.45 236.34 745.94 236.16 C 746.37 234.17 748.65 234.75 750.06 234.04 C 751.80 233.62 752.58 231.69 752.44 230.03 C 752.46 222.70 752.50 215.36 752.42 208.03 C 752.51 204.93 750.68 201.03 747.07 201.22 C 742.98 200.57 739.38 202.94 736.64 205.69 C 735.44 206.85 735.89 208.58 735.80 210.05 C 735.96 216.68 735.60 223.33 735.98 229.95 C 735.91 231.60 736.90 232.89 737.86 234.13 C 739.61 234.42 741.76 234.25 742.81 236.05 C 736.02 236.48 729.21 236.12 722.42 236.25 L 722.44 234.73 C 724.80 234.62 728.62 234.29 728.47 231.03 C 728.68 223.68 728.51 216.31 728.56 208.96 C 728.64 206.80 727.89 204.77 727.15 202.79 C 722.96 199.72 717.23 201.36 713.81 204.81 C 711.29 206.33 712.50 209.58 712.23 211.99 C 712.50 218.66 711.67 225.41 712.74 232.03 C 713.20 234.63 716.48 234.35 718.50 234.82 L 718.47 236.21 C 711.99 236.27 705.51 236.25 699.03 236.23 C 699.07 235.83 699.17 235.02 699.21 234.62 C 700.55 234.50 701.89 234.37 703.24 234.24 C 705.53 230.91 704.64 226.77 704.80 222.99 C 704.62 215.87 705.28 208.69 704.24 201.62 C 702.43 201.44 700.62 201.46 698.82 201.53 C 698.98 201.19 699.29 200.49 699.45 200.15 C 703.61 198.35 707.69 196.11 712.19 195.27 C 712.23 198.09 712.23 200.92 712.30 203.74 Z" />
<path fill="#000000" opacity="1.00" d=" M 595.02 222.13 C 600.21 220.30 606.08 225.60 605.22 230.94 C 605.08 233.62 603.05 235.60 601.29 237.39 C 598.98 238.06 596.42 238.86 594.13 237.64 C 590.89 236.49 589.32 233.17 588.60 230.04 C 589.31 226.60 591.26 222.89 595.02 222.13 Z" />
</g>
<g id="#282725ff">
<path fill="#282725" opacity="1.00" d=" M 682.22 88.14 C 682.67 88.43 683.59 89.03 684.04 89.32 L 685.08 89.98 C 684.72 90.63 683.99 91.93 683.63 92.58 C 683.71 92.71 683.88 92.98 683.97 93.11 C 685.78 96.66 690.66 95.69 693.83 97.26 C 692.48 98.08 691.15 98.90 689.82 99.73 C 692.40 99.67 695.00 99.50 697.58 99.21 C 697.62 98.24 697.67 97.26 697.73 96.29 C 699.09 96.82 700.44 97.35 701.82 97.89 C 698.13 103.28 691.22 105.41 684.97 104.17 C 688.02 103.13 691.22 102.66 694.42 102.25 C 689.50 100.17 682.47 100.56 680.07 94.76 C 680.65 92.51 681.79 90.44 682.22 88.14 Z" />
</g>
<g id="#c5c4c2ff">
<path fill="#c5c4c2" opacity="1.00" d=" M 685.08 89.98 C 685.48 90.17 686.26 90.55 686.66 90.73 C 687.34 91.83 688.11 92.89 688.77 94.01 C 687.57 93.79 685.17 93.34 683.97 93.11 C 683.88 92.98 683.71 92.71 683.63 92.58 C 683.99 91.93 684.72 90.63 685.08 89.98 Z" />
</g>
<g id="#686765ff">
<path fill="#686765" opacity="1.00" d=" M 691.73 91.83 C 692.94 91.12 694.19 90.50 695.51 90.00 C 695.01 92.64 693.00 94.16 690.66 95.12 C 690.99 94.01 691.35 92.92 691.73 91.83 Z" />
</g>
<g id="#d7d2cfff">
<path fill="#d7d2cf" opacity="1.00" d=" M 662.23 107.84 C 661.69 104.69 665.50 103.93 667.46 102.55 C 672.48 110.84 682.10 115.28 691.62 115.14 L 690.24 116.10 C 682.36 117.13 674.92 113.99 667.25 112.89 C 664.97 112.01 662.27 110.67 662.23 107.84 Z" />
</g>
<g id="#e5e1ddff">
<path fill="#e5e1dd" opacity="1.00" d=" M 700.35 112.52 C 703.89 110.92 706.91 108.39 709.48 105.50 C 709.84 106.12 710.56 107.36 710.92 107.98 C 710.11 108.78 709.31 109.57 708.52 110.37 C 709.55 111.31 710.57 112.25 711.61 113.19 C 711.11 113.30 710.12 113.53 709.62 113.64 C 703.27 115.15 696.79 116.27 690.24 116.10 L 691.62 115.14 C 694.55 114.34 697.53 113.67 700.35 112.52 Z" />
</g>
<g id="#b1aca8ff">
<path fill="#b1aca8" opacity="1.00" d=" M 665.55 114.22 C 665.98 113.89 666.83 113.22 667.25 112.89 C 674.92 113.99 682.36 117.13 690.24 116.10 C 696.79 116.27 703.27 115.15 709.62 113.64 C 710.49 113.83 712.22 114.23 713.09 114.42 C 712.87 114.78 712.43 115.50 712.22 115.86 C 710.23 116.69 708.25 117.57 706.51 118.85 C 706.07 117.62 705.24 116.96 704.03 116.87 C 697.66 116.08 691.26 117.54 684.89 116.86 C 680.96 116.45 677.01 116.39 673.08 116.77 C 670.50 116.14 668.02 115.18 665.55 114.22 Z" />
</g>
<g id="#2b2623ff">
<path fill="#2b2623" opacity="1.00" d=" M 673.08 116.77 C 677.01 116.39 680.96 116.45 684.89 116.86 C 691.26 117.54 697.66 116.08 704.03 116.87 C 705.24 116.96 706.07 117.62 706.51 118.85 C 705.18 119.82 703.81 120.73 702.36 121.50 C 701.86 121.30 700.87 120.91 700.37 120.72 C 695.59 118.25 690.11 118.84 684.93 118.42 C 682.11 117.98 679.77 119.73 677.60 121.24 C 676.21 120.65 674.85 120.01 673.48 119.38 C 673.38 118.73 673.18 117.42 673.08 116.77 Z" />
</g>
<g id="#66615eff">
<path fill="#66615e" opacity="1.00" d=" M 677.60 121.24 C 679.77 119.73 682.11 117.98 684.93 118.42 C 690.11 118.84 695.59 118.25 700.37 120.72 C 695.41 120.55 690.32 120.04 685.52 121.62 C 689.01 122.36 692.56 122.76 696.12 123.04 C 689.93 123.82 683.44 123.59 677.60 121.24 Z" />
</g>
<g id="#898481ff">
<path fill="#898481" opacity="1.00" d=" M 685.52 121.62 C 690.32 120.04 695.41 120.55 700.37 120.72 C 700.87 120.91 701.86 121.30 702.36 121.50 C 700.33 122.19 698.24 122.76 696.12 123.04 C 692.56 122.76 689.01 122.36 685.52 121.62 Z" />
</g>
<g id="#8f8a88ff">
<path fill="#8f8a88" opacity="1.00" d=" M 661.58 126.13 C 662.76 125.18 663.95 124.22 665.14 123.27 C 669.15 125.62 673.08 128.10 676.90 130.75 C 680.55 133.17 685.28 133.62 689.42 132.29 C 689.20 133.00 688.75 134.43 688.53 135.14 C 685.29 134.98 681.95 134.32 678.77 135.27 L 678.43 135.34 C 672.43 133.11 666.58 130.20 661.58 126.13 Z" />
</g>
<g id="#8f8984ff">
<path fill="#8f8984" opacity="1.00" d=" M 695.86 133.79 C 702.20 132.15 708.28 129.65 714.03 126.52 C 715.02 127.25 715.66 128.34 716.60 129.15 C 713.58 131.21 710.34 132.94 706.88 134.08 C 705.30 134.80 703.24 134.96 702.32 136.60 C 699.04 136.69 695.76 136.70 692.50 136.93 C 689.46 137.25 686.23 137.14 683.41 138.46 C 681.21 140.14 681.38 143.24 680.69 145.68 C 677.86 143.86 678.95 140.28 678.84 137.52 L 678.84 137.72 C 682.92 136.76 687.08 136.18 691.28 136.10 C 691.20 135.36 691.04 133.87 690.96 133.12 C 692.54 133.56 694.19 134.11 695.86 133.79 Z" />
</g>
<g id="#756f6bff">
<path fill="#756f6b" opacity="1.00" d=" M 689.42 132.29 L 690.00 131.81 C 690.24 132.14 690.72 132.80 690.96 133.12 C 691.04 133.87 691.20 135.36 691.28 136.10 C 687.08 136.18 682.92 136.76 678.84 137.72 L 678.84 137.52 C 678.82 136.95 678.79 135.83 678.77 135.27 C 681.95 134.32 685.29 134.98 688.53 135.14 C 688.75 134.43 689.20 133.00 689.42 132.29 Z" />
</g>
<g id="#516f8fff">
<path fill="#516f8f" opacity="1.00" d=" M 502.68 136.17 C 505.07 134.95 507.77 134.99 510.32 135.66 C 510.51 139.35 510.41 143.08 509.41 146.66 C 508.67 143.84 508.32 140.95 507.66 138.12 C 506.30 137.34 504.65 137.49 503.17 137.17 C 503.05 136.92 502.80 136.42 502.68 136.17 Z" />
</g>
<g id="#c7c2c0ff">
<path fill="#c7c2c0" opacity="1.00" d=" M 678.43 135.34 L 678.77 135.27 C 678.79 135.83 678.82 136.95 678.84 137.52 C 678.95 140.28 677.86 143.86 680.69 145.68 C 686.22 147.39 692.26 146.15 697.98 146.45 C 697.80 147.05 697.44 148.24 697.26 148.84 C 703.04 149.29 708.79 150.46 714.61 150.23 C 714.57 149.53 714.48 148.13 714.43 147.43 C 715.85 148.79 716.80 150.49 717.38 152.36 C 716.32 152.48 715.29 152.61 714.25 152.74 C 714.14 153.15 713.93 153.96 713.82 154.37 C 711.76 152.76 709.40 151.99 707.16 153.81 C 703.36 151.99 699.25 150.69 695.03 150.49 C 687.60 150.09 679.95 150.18 672.94 152.95 C 669.32 152.41 665.35 152.85 662.28 150.49 C 663.05 149.50 663.82 148.52 664.61 147.53 C 668.09 147.42 671.57 147.26 675.05 147.00 C 676.15 145.97 677.24 144.95 678.36 143.94 C 678.33 141.10 677.48 138.08 678.43 135.34 Z" />
</g>
<g id="#a9a29aff">
<path fill="#a9a29a" opacity="1.00" d=" M 683.41 138.46 C 686.23 137.14 689.46 137.25 692.50 136.93 C 691.11 138.35 689.70 139.74 688.27 141.12 C 690.02 142.58 691.77 144.06 693.60 145.43 C 689.30 145.65 684.99 145.41 680.69 145.68 C 681.38 143.24 681.21 140.14 683.41 138.46 Z" />
</g>
<g id="#b9b1aeff">
<path fill="#b9b1ae" opacity="1.00" d=" M 692.50 136.93 C 695.76 136.70 699.04 136.69 702.32 136.60 C 702.35 139.24 703.71 142.78 701.96 144.91 C 699.37 146.20 696.35 145.82 693.60 145.43 C 691.77 144.06 690.02 142.58 688.27 141.12 C 689.70 139.74 691.11 138.35 692.50 136.93 Z" />
</g>
<g id="#b9b5b3ff">
<path fill="#b9b5b3" opacity="1.00" d=" M 699.37 147.12 C 700.74 145.85 702.81 145.61 704.43 146.61 C 707.49 148.27 711.11 147.48 714.43 147.43 C 714.48 148.13 714.57 149.53 714.61 150.23 C 708.79 150.46 703.04 149.29 697.26 148.84 C 697.44 148.24 697.80 147.05 697.98 146.45 C 698.33 146.62 699.02 146.95 699.37 147.12 Z" />
</g>
<g id="#f9ffffff">
</g>
<g id="#e4dfdeff">
<path fill="#e4dfde" opacity="1.00" d=" M 653.73 157.47 C 656.95 155.63 659.72 153.15 662.28 150.49 C 665.35 152.85 669.32 152.41 672.94 152.95 C 670.62 154.08 668.35 155.32 666.16 156.67 C 665.24 157.25 664.35 157.85 663.47 158.46 C 662.92 157.99 661.82 157.06 661.28 156.59 C 661.73 155.71 662.20 154.83 662.67 153.96 C 659.86 155.42 657.17 158.51 653.73 157.47 Z" />
</g>
<g id="#32312dff">
<path fill="#32312d" opacity="1.00" d=" M 672.94 152.95 C 679.95 150.18 687.60 150.09 695.03 150.49 C 699.25 150.69 703.36 151.99 707.16 153.81 C 708.81 154.75 710.46 155.73 712.07 156.78 C 712.58 157.17 713.60 157.93 714.11 158.31 C 711.05 159.16 707.90 159.67 704.72 159.53 C 697.50 159.32 690.30 160.12 683.08 159.75 C 684.24 159.07 685.41 158.39 686.59 157.71 C 684.10 155.18 680.93 156.82 678.27 158.05 C 678.74 158.76 679.22 159.47 679.71 160.18 C 675.10 159.36 670.79 157.39 666.16 156.67 C 668.35 155.32 670.62 154.08 672.94 152.95 Z" />
</g>
<g id="#c8c5c4ff">
<path fill="#c8c5c4" opacity="1.00" d=" M 625.46 152.65 C 627.26 152.09 629.09 151.55 630.98 151.37 C 630.50 151.79 629.52 152.62 629.04 153.03 C 634.36 156.65 640.95 158.23 647.34 157.43 L 647.61 157.43 C 648.76 157.85 649.92 158.31 651.07 158.79 C 644.72 160.18 638.24 158.51 632.10 156.93 C 630.11 156.34 628.02 156.46 626.04 156.91 L 625.64 156.99 L 625.60 156.31 C 625.57 155.40 625.50 153.56 625.46 152.65 Z" />
</g>
<g id="#3a3837ff">
<path fill="#3a3837" opacity="1.00" d=" M 629.04 153.03 C 629.52 152.62 630.50 151.79 630.98 151.37 C 637.21 150.67 642.16 154.76 647.34 157.43 C 640.95 158.23 634.36 156.65 629.04 153.03 Z" />
</g>
<g id="#d3cfceff">
<path fill="#d3cfce" opacity="1.00" d=" M 707.16 153.81 C 709.40 151.99 711.76 152.76 713.82 154.37 C 713.93 153.96 714.14 153.15 714.25 152.74 C 715.29 152.61 716.32 152.48 717.38 152.36 C 720.43 157.83 727.10 158.95 732.76 159.61 C 733.49 159.19 734.23 158.77 734.98 158.35 L 735.32 158.50 C 735.75 158.69 736.62 159.06 737.06 159.24 C 741.25 158.79 745.25 157.36 749.18 155.88 C 751.06 156.12 752.69 157.06 753.78 158.63 C 752.68 159.49 751.61 160.35 750.46 161.13 C 750.10 160.67 749.38 159.77 749.02 159.32 C 740.36 160.85 731.03 163.07 722.59 159.49 C 719.15 158.39 715.81 156.36 712.07 156.78 C 710.46 155.73 708.81 154.75 707.16 153.81 Z" />
</g>
<g id="#494544ff">
<path fill="#494544" opacity="1.00" d=" M 735.32 158.50 C 740.30 155.31 745.79 152.46 751.90 152.76 C 751.00 153.81 750.13 154.88 749.18 155.88 C 745.25 157.36 741.25 158.79 737.06 159.24 C 736.62 159.06 735.75 158.69 735.32 158.50 Z" />
</g>
<g id="#c2c2c2ff">
<path fill="#c2c2c2" opacity="1.00" d=" M 751.90 152.76 C 753.88 152.74 755.64 153.41 756.85 155.02 C 756.34 154.74 755.31 154.17 754.80 153.89 C 754.45 155.46 754.21 157.07 753.78 158.63 C 752.69 157.06 751.06 156.12 749.18 155.88 C 750.13 154.88 751.00 153.81 751.90 152.76 Z" />
</g>
<g id="#262626ff">
<path fill="#262626" opacity="1.00" d=" M 618.29 159.29 C 619.42 156.07 622.42 154.33 625.33 152.98 C 625.40 153.81 625.54 155.48 625.60 156.31 L 625.64 156.99 C 623.53 157.54 621.45 158.21 619.39 158.91 C 619.12 159.01 618.57 159.20 618.29 159.29 Z" />
</g>
<g id="#f4f3f1ff">
<path fill="#f4f3f1" opacity="1.00" d=" M 653.73 157.47 C 657.17 158.51 659.86 155.42 662.67 153.96 C 662.20 154.83 661.73 155.71 661.28 156.59 C 661.82 157.06 662.92 157.99 663.47 158.46 C 660.99 160.12 658.43 161.67 655.73 162.93 C 647.36 165.13 638.29 164.16 630.59 160.20 C 629.00 159.20 627.51 158.05 626.04 156.91 C 628.02 156.46 630.11 156.34 632.10 156.93 C 638.24 158.51 644.72 160.18 651.07 158.79 C 649.92 158.31 648.76 157.85 647.61 157.43 C 649.63 156.96 651.70 156.97 653.73 157.47 Z" />
</g>
<g id="#31302eff">
<path fill="#31302e" opacity="1.00" d=" M 754.80 153.89 C 755.31 154.17 756.34 154.74 756.85 155.02 C 761.24 156.88 764.50 161.66 762.23 166.40 C 761.17 164.10 759.72 162.00 757.01 161.69 C 757.11 164.23 757.59 166.80 757.31 169.35 C 756.29 171.97 753.88 173.96 753.52 176.84 L 753.29 178.10 C 748.96 180.72 744.41 183.16 739.40 184.16 C 733.00 185.41 726.46 184.70 720.00 184.65 C 706.99 184.28 693.97 184.26 680.95 184.06 C 667.32 183.26 653.63 183.65 640.02 182.45 C 637.76 182.28 635.59 181.61 633.40 181.06 L 633.32 180.76 C 633.12 179.96 632.70 178.36 632.50 177.56 C 629.07 174.93 624.36 173.16 622.65 168.91 C 624.70 168.41 626.81 168.52 628.89 168.61 C 632.01 166.82 635.58 166.30 639.09 165.88 C 638.45 165.23 637.82 164.59 637.19 163.94 C 643.34 165.29 649.82 166.09 655.97 164.27 C 659.59 164.80 663.34 163.99 666.90 165.09 C 671.52 166.45 676.39 166.08 681.12 165.58 C 692.07 164.46 703.13 165.85 714.07 164.85 C 716.72 166.52 719.37 165.03 721.68 163.51 C 730.89 167.80 741.76 165.69 750.46 161.13 C 751.61 160.35 752.68 159.49 753.78 158.63 C 754.21 157.07 754.45 155.46 754.80 153.89 M 746.32 169.24 C 746.76 170.00 747.21 170.77 747.68 171.54 C 746.72 172.03 745.77 172.53 744.84 173.03 C 747.32 173.95 749.97 173.90 752.58 173.72 C 752.96 172.42 754.66 170.98 753.32 169.73 C 751.04 169.13 748.64 169.32 746.32 169.24 M 642.15 171.21 C 637.97 173.11 633.32 173.83 628.76 173.28 C 633.57 177.80 640.57 178.36 646.85 178.62 C 657.22 179.94 667.69 178.86 678.08 179.88 C 696.05 180.05 714.04 179.43 732.01 180.22 C 736.70 180.48 741.44 179.43 745.30 176.68 C 741.18 176.52 737.09 175.75 732.97 175.65 C 729.86 175.53 727.10 177.24 724.08 177.58 C 715.38 178.12 706.68 177.18 697.98 177.65 C 694.08 177.86 690.96 173.70 686.99 175.54 C 681.39 169.98 672.88 173.70 666.33 170.66 C 663.41 169.29 660.14 169.76 657.04 169.73 C 652.06 169.83 646.83 169.13 642.15 171.21 Z" />
</g>
<g id="#3e3d3bff">
<path fill="#3e3d3b" opacity="1.00" d=" M 678.27 158.05 C 680.93 156.82 684.10 155.18 686.59 157.71 C 685.41 158.39 684.24 159.07 683.08 159.75 C 690.30 160.12 697.50 159.32 704.72 159.53 C 707.90 159.67 711.05 159.16 714.11 158.31 C 716.54 160.17 719.03 161.96 721.68 163.51 C 719.37 165.03 716.72 166.52 714.07 164.85 C 703.13 165.85 692.07 164.46 681.12 165.58 C 676.39 166.08 671.52 166.45 666.90 165.09 C 663.34 163.99 659.59 164.80 655.97 164.27 L 655.73 162.93 C 658.43 161.67 660.99 160.12 663.47 158.46 C 664.35 157.85 665.24 157.25 666.16 156.67 C 670.79 157.39 675.10 159.36 679.71 160.18 C 679.22 159.47 678.74 158.76 678.27 158.05 Z" />
</g>
<g id="#eeedebff">
<path fill="#eeedeb" opacity="1.00" d=" M 712.07 156.78 C 715.81 156.36 719.15 158.39 722.59 159.49 C 731.03 163.07 740.36 160.85 749.02 159.32 C 749.38 159.77 750.10 160.67 750.46 161.13 C 741.76 165.69 730.89 167.80 721.68 163.51 C 719.03 161.96 716.54 160.17 714.11 158.31 C 713.60 157.93 712.58 157.17 712.07 156.78 Z" />
</g>
<g id="#595957ff">
<path fill="#595957" opacity="1.00" d=" M 625.64 156.99 L 626.04 156.91 C 627.51 158.05 629.00 159.20 630.59 160.20 C 630.83 161.33 631.09 162.47 631.35 163.60 C 630.27 164.13 629.21 164.66 628.15 165.19 C 624.82 165.13 621.50 165.32 618.21 165.77 L 617.93 165.80 C 617.95 163.67 617.95 161.54 617.95 159.41 L 618.29 159.29 C 618.57 159.20 619.12 159.01 619.39 158.91 C 621.45 158.21 623.53 157.54 625.64 156.99 Z" />
</g>
<g id="#444342ff">
<path fill="#444342" opacity="1.00" d=" M 631.35 163.60 C 631.09 162.47 630.83 161.33 630.59 160.20 C 638.29 164.16 647.36 165.13 655.73 162.93 L 655.97 164.27 C 649.82 166.09 643.34 165.29 637.19 163.94 C 637.82 164.59 638.45 165.23 639.09 165.88 C 635.58 166.30 632.01 166.82 628.89 168.61 C 626.81 168.52 624.70 168.41 622.65 168.91 C 624.36 173.16 629.07 174.93 632.50 177.56 C 632.70 178.36 633.12 179.96 633.32 180.76 C 626.47 178.34 620.59 172.66 618.21 165.77 C 621.50 165.32 624.82 165.13 628.15 165.19 C 629.21 164.66 630.27 164.13 631.35 163.60 Z" />
</g>
<g id="#504f4dff">
<path fill="#504f4d" opacity="1.00" d=" M 757.01 161.69 C 759.72 162.00 761.17 164.10 762.23 166.40 C 760.76 171.15 757.32 174.89 753.57 177.98 L 753.52 176.84 C 753.88 173.96 756.29 171.97 757.31 169.35 C 757.59 166.80 757.11 164.23 757.01 161.69 Z" />
</g>
<g id="#474644ff">
<path fill="#474644" opacity="1.00" d=" M 746.32 169.24 C 748.64 169.32 751.04 169.13 753.32 169.73 C 754.66 170.98 752.96 172.42 752.58 173.72 C 749.97 173.90 747.32 173.95 744.84 173.03 C 745.77 172.53 746.72 172.03 747.68 171.54 C 747.21 170.77 746.76 170.00 746.32 169.24 Z" />
</g>
<g id="#1e1d1bff">
<path fill="#1e1d1b" opacity="1.00" d=" M 642.15 171.21 C 646.83 169.13 652.06 169.83 657.04 169.73 C 660.14 169.76 663.41 169.29 666.33 170.66 C 672.88 173.70 681.39 169.98 686.99 175.54 C 690.96 173.70 694.08 177.86 697.98 177.65 C 706.68 177.18 715.38 178.12 724.08 177.58 C 727.10 177.24 729.86 175.53 732.97 175.65 C 737.09 175.75 741.18 176.52 745.30 176.68 C 741.44 179.43 736.70 180.48 732.01 180.22 C 714.04 179.43 696.05 180.05 678.08 179.88 C 667.69 178.86 657.22 179.94 646.85 178.62 C 640.57 178.36 633.57 177.80 628.76 173.28 C 633.32 173.83 637.97 173.11 642.15 171.21 Z" />
</g>
</svg>
