<?xml version="1.0" encoding="utf-8"?>
<!-- Generator: Adobe Illustrator 22.0.0, SVG Export Plug-In . SVG Version: 6.00 Build 0)  -->
<svg version="1.1" id="Capa_1" xmlns="http://www.w3.org/2000/svg" xmlns:xlink="http://www.w3.org/1999/xlink" x="0px" y="0px"
	 viewBox="0 0 784 127" style="enable-background:new 0 0 784 127;" xml:space="preserve">
<style type="text/css">
	.st0{fill:#84BB48;}
	.st1{fill:#84BC49;}
</style>
<path class="st0" d="M66.9,65.2c5.6,0,10.1-4.5,10.1-10.1C77,49.5,72.4,45,66.9,45c-5.6,0-10.1,4.5-10.1,10.1
	C56.7,60.7,61.2,65.2,66.9,65.2L66.9,65.2z M82.3,105.1H46c-1.2,0-2.1,1-2.1,2.1c0,1.1,1,2.1,2.1,2.1h36.2c1.2,0,2.1-1,2.1-2.1
	C84.4,106,83.5,105.1,82.3,105.1L82.3,105.1z M79.2,70.1c8.3-8.3,8.3-21.7,0-30s-21.8-8.3-30,0s-8.3,21.7,0,30S70.9,78.4,79.2,70.1
	L79.2,70.1z M52.1,43.1c6.6-6.6,17.4-6.6,24,0c6.6,6.6,6.6,17.3,0,24c-6.6,6.6-17.4,6.6-24,0C45.5,60.5,45.5,49.7,52.1,43.1
	L52.1,43.1z M129.1,114.3l-27.2-27.1c0.6-0.5,1.2-1.1,1.8-1.7c18.6-18.5,18.6-48.7,0-67.2c-18.6-18.5-48.7-18.5-67.3,0
	c-18.6,18.6-18.6,48.7,0,67.2c0.9,0.9,1.8,1.8,2.8,2.6l-26,25.8c-3.9,3.9-1.8,9.1,3.8,9.1h108.8C130.5,123,132.5,117.1,129.1,114.3
	L129.1,114.3z M78.7,15.3c-2.8,3-6.1,5.6-9.6,7c-3.7,1.6-7.7,1.8-11.1-0.5c-1.4-0.9-2.7-2.2-3.9-4C61.8,14.2,70.5,13.4,78.7,15.3
	L78.7,15.3z M43.4,25.3c2.1-2.1,4.5-4,6.9-5.5c1.6,2.5,3.4,4.3,5.3,5.6c4.6,3.1,10.1,2.9,15.1,0.8c4.6-1.9,8.9-5.5,12.4-9.6
	c4.9,1.8,9.5,4.7,13.4,8.6c14.7,14.6,14.7,38.4,0,53.1c-15.1,15.1-39.1,14.1-53.2,0C28.7,63.8,28.7,39.9,43.4,25.3L43.4,25.3z
	 M28.1,113l19.4-19.3c14.4,7.7,32,7.5,46.2-0.7l20.1,20H28.1z"/>
<path d="M171,100.1V29.4h14.3v59.1h25.3v11.7H171z"/>
<path d="M216.7,100.1H231V29.4h-14.3V100.1z"/>
<path d="M251.2,29.4l10,52.3h0.3L272,29.4h14.8l-16.3,70.7h-18.3l-16.3-70.7H251.2z"/>
<path d="M330.6,29.4V41h-25.3v16.7h23.8v11.7h-23.8v19.1h26.3v11.7h-40.5V29.4H330.6z"/>
<path d="M368,53.2c0-10.3-2.1-14.8-8.5-14.8c-7.3,0-9,7.2-9,27.2c0,21.4,3,25.3,9.1,25.3c5.2,0,8.9-2.7,8.9-17.9h14.3
	c0,15.3-3.8,28.4-22.5,28.4c-21.4,0-24.1-15.3-24.1-36.8c0-21.5,2.7-36.8,24.1-36.8c20.4,0,21.9,15,21.9,25.3H368z"/>
<path d="M402.1,29.4h17.6l18.7,70.7h-14.9l-3.3-14.9h-18.8l-3.3,14.9h-14.9L402.1,29.4z M403.9,73.4h13.9L411,41.7h-0.2L403.9,73.4z
	"/>
<path d="M442.7,29.4H464l10.1,49.9h0.2l10.2-49.9h21.1v70.7h-13.1V43.6h-0.2l-12.6,56.5h-11.1L456,43.6h-0.2v56.5h-13.1V29.4z"/>
<path class="st1" d="M515.2,29.4h21.2l10.1,49.9h0.2l10.2-49.9H578v70.7h-13.1V43.6h-0.2l-12.6,56.5H541l-12.6-56.5h-0.2v56.5h-13.1
	V29.4z"/>
<path class="st1" d="M601.1,29.4h17.6l18.7,70.7h-14.9l-3.2-14.9h-18.8l-3.3,14.9h-14.9L601.1,29.4z M602.9,73.4h13.9L610,41.7h-0.2
	L602.9,73.4z"/>
<path class="st1" d="M677.4,29.4V41h-15.5v59.1h-14.3V41h-15.5V29.4H677.4z"/>
<path class="st1" d="M722.1,29.4V41h-25.3v16.7h23.8v11.7h-23.8v19.1h26.3v11.7h-40.5V29.4H722.1z"/>
<path class="st1" d="M740.8,78v2.1c0,6.6,1.9,10.9,9.4,10.9c4.4,0,8.5-2.8,8.5-8.7c0-6.4-3.3-8.8-12.7-12.1
	c-12.7-4.4-18.6-9.6-18.6-21.4c0-13.8,8.5-20.8,21.9-20.8c12.7,0,21.9,5.5,21.9,19.1v2h-13.7c0-6.6-2.3-10.5-7.7-10.5
	c-6.4,0-8.1,4.1-8.1,8.2c0,4.3,1.3,7,7.4,9.6l11,4.8c10.7,4.7,13.5,10.1,13.5,18.7c0,14.9-9.1,21.7-24.6,21.7
	c-16.1,0-22.5-7.5-22.5-20.6V78H740.8z"/>
</svg>
