<?xml version="1.0" encoding="UTF-8" ?>
<!DOCTYPE svg PUBLIC "-//W3C//DTD SVG 1.1//EN" "http://www.w3.org/Graphics/SVG/1.1/DTD/svg11.dtd">
<svg width="877pt" height="266pt" viewBox="0 0 877 266" version="1.1" xmlns="http://www.w3.org/2000/svg">
<g id="#fefefeff">
<path fill="#fefefe" opacity="1.00" d=" M 688.79 19.44 C 703.39 10.94 720.95 8.51 737.51 11.09 C 756.02 14.16 773.02 24.69 784.27 39.66 C 793.47 52.09 799.15 67.45 798.87 83.01 C 799.00 84.64 799.11 86.98 801.13 87.37 C 817.40 93.41 830.34 107.52 834.89 124.27 C 836.72 129.66 836.51 135.38 837.08 140.97 C 836.57 151.11 833.82 161.29 828.10 169.77 C 819.71 183.05 805.38 192.41 789.84 194.71 C 788.41 194.95 786.99 195.22 785.58 195.49 C 780.50 206.88 770.74 215.87 759.09 220.24 C 755.16 221.39 751.13 222.11 747.09 222.67 C 739.96 228.29 732.39 234.46 723.14 235.81 C 723.78 235.93 724.42 236.05 725.07 236.18 C 717.73 237.83 710.10 239.26 702.62 237.69 C 698.97 237.29 695.73 235.28 692.16 234.74 C 685.92 236.45 679.60 238.25 673.08 238.21 C 665.84 237.89 658.66 236.22 652.16 232.97 C 650.08 231.65 647.91 233.20 645.96 233.95 C 635.72 238.56 623.69 239.15 613.19 235.06 C 610.85 234.28 608.34 232.63 605.84 233.82 C 589.85 240.65 569.88 239.05 556.38 227.60 C 554.37 225.23 552.11 228.13 550.25 229.15 C 538.89 237.00 524.56 239.06 511.09 237.22 C 504.83 235.61 498.45 233.82 493.15 229.98 C 491.93 229.29 490.36 227.63 489.02 229.05 C 472.25 241.84 450.89 247.53 430.00 247.43 C 412.68 246.71 394.90 242.66 380.65 232.35 C 378.92 231.12 376.77 229.28 374.59 230.76 C 363.23 236.81 349.91 239.22 337.19 237.06 C 333.80 236.59 330.53 233.48 327.10 235.13 C 320.41 237.87 313.02 238.18 305.91 237.43 C 301.79 236.99 297.82 234.26 293.63 235.79 C 286.71 238.13 279.16 238.30 272.02 237.00 C 268.62 236.51 265.31 233.47 261.85 235.20 C 251.97 239.09 240.64 239.51 230.70 235.61 C 226.52 233.38 222.43 237.01 218.12 236.82 C 218.72 236.99 219.34 237.16 219.95 237.34 C 211.90 237.63 203.60 238.73 195.78 236.25 C 192.31 235.40 189.18 233.64 185.86 232.42 C 184.28 231.65 182.83 232.84 181.56 233.62 C 166.08 244.17 147.66 249.88 129.09 251.53 C 116.50 252.13 103.42 252.37 91.57 247.38 C 72.23 240.08 57.00 223.74 49.70 204.55 C 44.33 191.38 43.59 176.92 44.51 162.88 C 46.50 143.93 53.02 125.75 61.67 108.87 C 68.88 95.64 77.76 83.23 88.63 72.76 C 101.25 60.78 116.83 51.55 133.97 48.00 C 141.68 46.21 149.56 48.56 157.33 47.43 C 151.51 46.94 145.65 47.92 139.86 46.79 C 156.23 45.13 173.58 48.92 186.55 59.37 C 195.80 66.55 202.53 76.71 206.23 87.78 C 208.68 94.81 209.19 102.33 209.48 109.72 C 219.39 105.51 230.71 103.86 241.22 106.69 C 245.76 107.72 249.31 111.19 253.94 111.92 C 257.03 112.49 259.74 114.36 262.90 114.55 C 270.00 107.64 280.29 104.77 290.03 105.42 C 295.18 104.94 300.05 106.77 305.04 107.52 C 311.78 105.40 319.02 104.57 325.99 106.15 C 329.02 106.80 332.14 108.45 335.26 107.19 C 342.21 104.80 349.83 104.91 356.94 106.56 C 361.64 107.65 365.71 110.38 370.12 112.22 C 369.91 95.74 377.78 79.80 389.94 68.89 C 401.97 57.88 417.93 51.71 433.97 49.68 C 446.67 48.75 459.85 48.46 472.03 52.75 C 488.98 58.12 504.44 69.66 512.43 85.78 C 515.84 92.24 517.23 99.52 518.25 106.64 C 523.99 106.95 529.67 105.23 535.42 105.98 C 548.48 106.58 561.10 111.33 571.96 118.47 C 573.65 117.61 575.36 116.77 577.08 115.95 C 580.17 103.15 582.93 90.15 588.39 78.10 C 594.30 65.60 602.24 53.51 613.91 45.69 C 627.69 35.75 647.94 33.88 662.24 43.78 C 669.51 34.15 678.01 25.16 688.79 19.44 M 696.16 25.42 C 683.05 31.21 672.32 41.87 665.74 54.54 C 664.90 56.01 664.45 57.79 663.12 58.92 C 660.60 56.47 658.50 53.56 655.53 51.63 C 648.56 47.15 639.76 45.26 631.66 47.39 C 618.92 49.90 609.05 59.58 602.29 70.18 C 592.13 85.45 588.88 103.78 584.54 121.26 C 580.17 122.96 576.59 126.02 572.65 128.45 C 569.56 129.80 567.29 126.49 564.87 125.15 C 556.75 120.04 547.59 116.14 537.96 115.27 C 527.23 113.55 516.32 116.11 506.34 119.99 C 510.16 105.01 505.48 88.32 494.51 77.46 C 484.34 66.46 469.78 60.29 455.04 58.62 C 442.02 57.61 428.66 58.74 416.46 63.69 C 399.76 69.74 385.40 83.72 381.65 101.43 C 379.05 111.34 380.98 121.79 384.74 131.13 C 381.87 134.94 378.64 138.45 375.74 142.22 C 375.71 131.70 369.87 120.92 359.85 116.87 C 354.29 113.98 347.94 114.03 341.87 114.63 C 338.05 115.40 334.25 119.06 330.36 116.57 C 322.32 112.89 312.91 113.89 305.05 117.53 C 299.04 113.80 291.67 114.14 284.89 114.47 C 276.74 115.18 269.36 120.35 265.77 127.69 C 262.91 125.34 260.03 122.87 256.55 121.50 C 253.18 120.06 249.24 120.27 246.15 118.12 C 242.54 115.75 238.39 114.02 233.99 114.31 C 219.47 113.34 206.10 121.28 195.95 130.98 C 202.67 116.72 203.33 99.55 196.91 85.07 C 191.19 71.74 179.10 61.40 165.07 57.74 C 158.58 55.72 151.70 56.18 145.00 56.32 C 134.46 57.05 124.42 61.04 115.35 66.28 C 99.34 75.84 86.83 90.35 77.17 106.12 C 67.87 122.12 61.00 139.68 58.19 158.02 C 55.59 176.50 58.28 196.31 68.79 212.05 C 78.22 226.46 93.74 237.02 110.94 239.26 C 124.85 240.67 138.99 239.19 152.44 235.40 C 165.00 231.80 176.31 225.05 186.79 217.40 C 197.78 226.66 214.02 228.46 226.98 222.49 C 228.44 221.75 230.19 221.21 231.61 222.37 C 241.38 227.75 253.64 227.37 263.43 222.25 C 266.29 220.21 269.03 222.95 271.69 223.94 C 280.24 227.16 290.27 226.21 298.05 221.41 C 305.03 226.29 314.14 226.75 322.17 224.63 C 325.31 224.01 327.91 221.58 331.08 221.35 C 343.68 229.15 359.97 225.84 372.22 218.95 C 374.50 218.01 376.40 215.42 378.96 215.69 C 381.95 218.04 384.63 220.79 387.83 222.88 C 399.38 230.64 413.24 234.27 427.00 235.16 C 430.36 235.37 433.72 235.34 437.08 235.30 L 437.87 234.74 C 456.54 234.11 475.38 226.85 488.71 213.57 C 489.68 212.68 490.85 213.88 491.58 214.52 C 495.53 218.25 500.15 221.35 505.24 223.31 C 512.13 226.04 519.69 226.08 526.97 225.40 C 537.44 223.63 547.09 218.06 554.09 210.11 C 558.07 214.55 562.16 219.15 567.61 221.84 C 579.05 227.82 593.31 226.79 604.55 220.83 C 607.53 219.10 610.33 221.81 613.03 222.82 C 622.12 227.12 632.98 226.46 641.91 222.06 C 644.30 221.06 646.50 219.32 649.18 219.21 C 652.93 220.46 656.03 223.22 659.92 224.18 C 670.05 227.54 681.18 225.78 690.75 221.58 C 697.22 224.95 704.61 227.15 711.96 225.99 C 723.14 224.78 732.87 218.19 740.78 210.58 C 756.25 211.47 771.86 200.15 774.91 184.83 C 775.30 184.55 776.07 184.00 776.46 183.72 C 787.12 184.15 797.92 180.71 806.31 174.11 C 822.00 162.22 828.14 139.45 820.56 121.28 C 814.76 106.76 801.10 95.46 785.53 93.25 C 790.66 64.48 772.68 33.69 745.16 23.94 C 729.55 17.63 711.39 18.40 696.16 25.42 Z" />
<path fill="#fefefe" opacity="1.00" d=" M 716.80 37.23 C 729.68 34.39 743.75 37.69 753.92 46.09 C 770.33 58.85 775.49 83.75 765.13 101.84 C 758.81 113.49 747.07 122.03 734.03 124.43 C 725.53 125.23 716.61 125.18 708.74 121.46 C 696.32 116.30 686.59 105.05 683.28 92.01 C 679.70 78.84 682.72 64.04 691.19 53.34 C 697.45 45.15 706.75 39.43 716.80 37.23 M 721.71 44.76 C 719.97 45.92 719.58 48.13 718.78 49.92 C 719.64 51.84 720.46 54.66 723.10 54.47 C 730.89 54.62 739.70 55.72 745.02 62.12 C 749.07 66.08 747.59 73.98 753.99 75.69 C 756.09 74.72 757.94 73.33 759.54 71.66 C 758.99 65.15 756.29 58.84 751.85 54.05 C 744.03 46.40 732.46 42.96 721.71 44.76 Z" />
<path fill="#fefefe" opacity="1.00" d=" M 624.82 74.92 C 629.79 68.49 638.20 62.20 646.68 65.61 C 652.35 69.91 653.93 77.31 654.28 84.03 C 654.70 93.39 653.85 102.88 650.90 111.81 C 646.47 123.75 643.33 136.21 637.40 147.55 C 634.28 155.00 629.80 161.99 628.34 170.05 C 627.25 175.30 627.08 180.87 628.73 186.03 C 629.66 186.87 630.60 187.72 631.53 188.58 C 633.44 188.30 635.31 187.82 637.18 187.29 C 645.11 182.94 652.44 177.40 658.47 170.65 C 661.87 161.88 665.87 153.17 672.17 146.05 C 678.85 138.78 687.87 132.49 698.12 132.65 C 700.81 133.89 702.08 137.00 704.82 138.17 C 707.92 138.52 711.05 138.40 714.17 138.61 C 714.92 140.03 715.67 141.45 716.43 142.87 C 715.95 152.37 713.87 161.70 711.86 170.97 C 710.69 176.75 709.39 182.95 711.72 188.62 C 713.96 188.48 716.46 188.78 718.38 187.33 C 722.34 184.75 725.84 181.50 728.92 177.93 C 730.86 175.88 730.84 172.91 731.65 170.36 C 733.68 164.05 740.44 159.56 747.07 160.47 C 754.23 161.21 760.45 167.66 760.48 174.93 C 760.75 181.29 756.27 187.32 750.30 189.33 C 745.88 190.38 741.29 189.66 737.06 188.20 C 732.17 194.64 726.21 200.61 718.82 204.10 C 713.58 206.64 706.23 206.59 702.38 201.68 C 700.14 199.63 699.46 196.26 697.19 194.40 C 691.54 199.65 684.88 204.44 677.05 205.48 C 667.73 206.84 658.54 199.50 657.04 190.35 C 649.94 195.37 643.06 200.96 634.83 204.05 C 626.01 208.33 615.90 200.92 613.06 192.52 C 612.67 192.49 611.90 192.44 611.51 192.41 C 606.01 198.32 599.02 203.07 591.15 205.10 C 584.61 206.68 577.28 204.16 573.48 198.53 C 568.52 192.22 567.83 183.64 568.98 175.96 C 569.36 173.07 570.80 170.31 570.59 167.38 C 564.04 160.99 557.76 154.12 549.90 149.28 C 549.08 148.84 548.23 148.51 547.34 148.28 C 553.02 159.67 553.33 173.56 548.31 185.23 C 545.26 192.53 540.14 199.33 532.86 202.77 C 526.51 206.25 518.47 206.43 511.98 203.23 C 506.08 199.48 501.38 193.61 499.77 186.73 C 497.95 181.33 498.23 175.57 498.24 169.96 C 497.93 156.89 504.77 143.26 516.64 137.20 C 524.99 132.85 534.94 132.44 543.92 134.88 C 551.81 137.59 559.37 141.77 564.98 148.05 C 568.44 151.85 571.67 155.85 574.92 159.84 C 580.17 147.63 591.28 136.21 605.34 136.10 C 606.60 130.83 606.04 125.32 607.53 120.09 C 611.43 104.47 614.46 87.82 624.82 74.92 M 636.94 82.00 C 632.99 84.23 631.95 88.95 630.72 92.95 C 629.05 99.95 626.96 106.90 626.31 114.10 C 625.11 126.02 623.43 138.02 624.49 150.03 C 629.89 135.58 635.27 121.08 639.13 106.12 C 640.62 98.40 642.01 90.33 640.32 82.53 C 639.22 82.26 638.03 81.15 636.94 82.00 M 527.39 147.60 C 519.21 151.72 515.97 161.46 514.62 169.96 C 514.36 175.52 513.58 181.63 516.57 186.65 C 518.67 189.84 522.73 192.39 526.62 191.14 C 531.12 188.76 533.33 183.76 535.08 179.22 C 537.42 171.80 538.55 163.77 537.09 156.05 C 536.13 151.64 532.71 146.03 527.39 147.60 M 596.56 154.26 C 591.70 159.81 589.86 167.13 587.51 173.94 C 586.28 178.62 584.78 184.73 588.96 188.37 C 592.29 188.41 596.39 189.74 599.06 187.07 C 602.76 183.88 605.41 179.67 607.32 175.21 C 605.84 165.90 606.81 156.40 606.29 147.02 C 602.51 148.60 599.28 151.24 596.56 154.26 M 682.16 159.36 C 677.57 167.40 674.07 176.61 675.47 186.03 C 675.46 188.69 677.82 190.27 679.77 191.61 C 680.64 191.55 682.38 191.44 683.24 191.38 C 689.53 186.50 691.83 178.40 693.34 170.94 C 694.92 162.96 697.53 155.15 698.07 147.00 C 690.75 147.48 685.78 153.63 682.16 159.36 Z" />
<path fill="#fefefe" opacity="1.00" d=" M 129.92 80.22 C 140.52 75.33 153.61 73.61 164.25 79.30 C 170.96 82.70 175.76 88.96 178.27 95.95 C 183.49 113.74 174.00 132.57 160.12 143.57 C 157.07 144.80 154.44 141.92 154.38 139.03 C 153.84 132.75 157.48 127.28 160.01 121.83 C 163.59 115.14 165.17 106.58 161.59 99.57 C 159.36 94.42 153.30 92.01 147.98 92.18 C 142.48 91.76 137.26 94.04 132.65 96.81 C 121.73 103.95 114.56 115.29 108.69 126.66 C 101.27 141.95 95.96 158.76 96.45 175.91 C 96.94 183.69 99.44 191.84 105.40 197.18 C 110.22 201.37 116.74 202.90 123.00 202.67 C 135.58 203.17 147.44 197.67 157.71 190.88 C 170.11 182.56 181.43 172.38 195.27 166.41 C 200.30 154.10 208.16 142.28 220.18 135.90 C 224.02 133.64 228.53 132.79 232.93 132.63 C 235.28 133.22 236.71 135.40 238.07 137.24 C 241.17 138.94 244.75 138.16 248.11 138.57 C 250.29 139.30 251.67 141.62 251.48 143.88 C 251.55 150.66 249.81 157.29 248.60 163.91 C 247.12 171.96 244.07 180.34 246.70 188.48 C 252.18 189.69 256.44 185.56 260.06 182.11 C 265.41 176.71 269.57 170.29 274.51 164.54 C 277.80 161.16 277.35 156.14 278.50 151.89 C 279.98 145.63 280.76 138.85 284.73 133.55 C 286.78 133.03 288.87 132.69 290.99 132.71 C 292.69 133.08 294.40 133.39 296.12 133.66 C 296.51 134.74 296.90 135.82 297.31 136.90 C 297.26 138.60 297.20 140.30 297.13 142.00 C 296.20 149.63 295.20 157.26 293.44 164.76 C 293.84 164.69 294.64 164.55 295.04 164.48 C 298.65 156.12 303.51 148.33 308.57 140.76 C 310.43 137.80 312.92 135.31 315.78 133.29 C 318.26 133.24 320.75 133.28 323.24 133.41 C 324.33 134.49 325.43 135.57 326.53 136.66 C 327.86 146.70 323.18 156.06 322.39 165.88 C 325.29 161.78 327.12 157.05 330.03 152.96 C 334.43 146.51 337.81 139.08 343.97 134.07 C 347.63 131.21 352.32 133.32 355.48 135.86 C 357.57 143.87 354.78 152.05 354.21 160.09 L 353.77 160.87 C 352.62 168.53 351.72 176.31 352.50 184.06 C 352.78 185.76 354.00 187.09 354.81 188.57 C 356.18 188.37 357.67 188.54 358.93 187.89 C 365.21 184.67 370.39 179.82 376.01 175.64 C 381.49 171.48 387.18 167.59 392.14 162.79 C 395.35 159.67 400.20 158.90 404.28 160.67 C 407.00 166.28 403.51 172.14 403.71 177.95 C 403.16 185.03 407.78 191.64 414.03 194.63 C 423.27 199.02 434.06 199.22 443.89 196.84 C 452.04 195.06 460.13 190.90 464.72 183.69 C 467.24 179.75 467.04 174.81 466.43 170.36 C 465.00 165.31 460.98 161.53 457.08 158.27 C 442.34 147.43 423.62 142.71 410.35 129.74 C 404.62 124.55 400.74 116.89 401.40 109.03 C 401.38 98.98 408.02 90.18 416.15 84.88 C 426.97 77.88 440.30 75.85 452.99 76.50 C 464.64 77.65 476.53 82.50 483.83 92.00 C 489.87 99.14 491.02 109.68 487.42 118.21 C 484.80 124.20 481.21 130.36 475.20 133.48 C 472.89 134.77 470.16 134.50 467.63 134.57 C 466.93 133.83 466.24 133.09 465.54 132.36 C 464.01 124.96 469.90 119.44 472.08 112.95 C 473.34 108.31 473.35 102.15 468.98 99.11 C 462.71 93.62 453.96 93.27 446.07 92.72 C 438.34 93.03 429.90 94.39 424.24 100.17 C 418.97 104.74 418.67 113.70 423.51 118.68 C 430.77 127.61 441.99 131.37 451.77 136.74 C 461.34 141.45 470.99 146.68 478.17 154.76 C 479.59 156.43 480.51 158.49 482.22 159.91 C 486.81 169.23 487.03 180.78 482.27 190.12 C 478.87 197.72 472.10 203.10 465.08 207.21 C 451.10 214.65 434.57 216.15 419.12 213.52 C 407.84 211.22 396.43 205.85 389.92 195.97 C 387.22 192.37 386.10 187.95 385.15 183.64 C 374.95 191.98 365.40 202.44 351.97 205.29 C 349.52 205.37 347.07 205.42 344.62 205.52 C 341.64 203.54 339.79 200.47 338.70 197.13 C 336.65 186.06 337.30 174.66 338.66 163.55 C 338.24 163.49 337.39 163.37 336.97 163.31 C 333.02 174.97 328.01 186.26 323.70 197.79 C 322.62 201.45 319.64 204.02 316.20 205.43 C 314.36 205.43 312.53 205.45 310.70 205.50 C 308.35 203.66 306.48 201.12 306.40 198.04 C 304.86 191.00 306.91 183.97 307.64 176.98 C 308.20 171.74 309.64 166.59 309.43 161.29 C 302.11 174.09 296.82 187.93 289.83 200.90 C 287.49 205.77 280.52 206.97 276.53 203.50 C 272.51 199.32 273.64 193.12 272.62 187.89 C 267.75 194.00 262.16 199.78 255.23 203.52 C 250.82 206.02 245.09 206.63 240.53 204.20 C 236.88 201.84 234.66 197.92 232.99 194.02 C 225.85 200.96 216.25 206.82 205.90 205.41 C 197.10 202.73 191.25 194.08 191.35 184.98 C 185.74 189.13 180.79 194.06 175.52 198.61 C 158.42 214.82 133.81 221.59 110.64 219.14 C 102.66 217.42 94.95 213.69 89.39 207.60 C 77.84 196.14 73.95 178.80 76.00 163.03 C 78.20 145.65 84.92 129.10 93.91 114.16 C 102.83 100.14 114.54 87.19 129.92 80.22 M 228.90 147.64 C 218.80 153.66 213.59 165.04 210.72 175.99 C 210.37 180.85 209.13 187.07 213.43 190.62 C 215.74 192.73 219.16 191.04 220.94 189.03 C 225.67 183.77 227.38 176.66 228.75 169.91 C 230.45 162.33 232.24 154.78 233.89 147.19 C 232.22 147.33 230.56 147.48 228.90 147.64 Z" />
<path fill="#fefefe" opacity="1.00" d=" M 761.11 125.66 C 764.87 119.03 771.50 114.28 778.94 112.68 C 784.61 111.88 790.57 112.51 795.65 115.28 C 804.20 119.72 810.09 129.29 809.52 139.01 C 809.50 146.87 805.20 154.34 799.10 159.13 C 793.35 163.21 785.93 165.20 778.96 163.70 C 771.35 162.49 764.72 157.39 760.98 150.74 C 756.82 143.08 756.62 133.23 761.11 125.66 Z" />
</g>
<g id="#05affaff">
<path fill="#05affa" opacity="1.00" d=" M 692.87 11.75 C 706.62 5.46 722.14 4.08 737.04 5.90 C 754.88 8.71 771.71 17.75 783.75 31.23 C 794.67 43.28 801.68 58.79 803.58 74.94 C 803.82 77.69 804.14 80.44 804.48 83.18 C 818.18 89.05 829.78 99.81 836.10 113.36 C 842.55 126.47 843.49 141.98 839.75 156.00 C 833.99 177.35 815.61 194.62 793.95 199.06 C 791.88 199.74 788.87 199.28 787.90 201.71 C 781.10 214.49 768.24 223.87 754.04 226.60 C 751.62 227.16 748.93 227.31 747.05 229.12 C 735.63 238.47 720.89 244.39 705.99 243.24 C 701.19 242.94 696.75 240.94 692.05 240.26 C 688.57 240.50 685.32 242.04 681.86 242.41 C 671.09 244.34 659.91 242.20 650.07 237.63 C 639.58 242.66 627.34 244.23 616.03 241.23 C 613.27 240.55 610.67 239.37 607.92 238.71 C 604.07 239.52 600.47 241.29 596.57 241.91 C 584.15 244.05 570.75 242.71 559.83 236.05 C 557.98 234.87 556.13 233.68 554.26 232.54 C 537.24 244.48 513.64 246.27 495.05 236.97 C 493.00 236.13 490.68 233.32 488.55 235.48 C 479.35 241.97 468.85 246.29 458.02 249.19 C 431.25 255.65 401.29 252.46 378.21 236.78 C 374.95 235.14 371.78 237.93 368.75 238.83 C 356.81 243.09 343.28 244.49 331.10 240.47 C 329.73 240.11 328.36 240.12 327.01 240.52 C 317.84 243.41 307.70 243.69 298.49 240.79 C 295.33 239.80 292.30 241.81 289.20 242.20 C 284.18 242.96 279.04 242.84 273.99 242.43 C 269.65 242.18 265.52 238.99 261.14 240.72 C 251.10 244.25 239.91 244.17 229.86 240.73 C 226.72 239.49 223.57 241.12 220.52 241.78 C 208.60 244.33 195.85 242.94 184.95 237.39 C 166.26 250.13 143.60 256.70 121.04 256.76 C 114.33 256.75 107.52 256.93 100.94 255.37 C 81.79 251.47 64.69 239.36 53.82 223.22 C 43.73 208.26 38.59 190.02 39.27 171.98 C 39.00 157.36 42.62 142.99 47.28 129.23 C 53.16 113.32 61.00 98.02 71.43 84.59 C 84.63 67.31 102.14 52.83 122.92 45.78 C 136.18 41.50 150.59 40.09 164.26 43.30 C 177.14 46.25 189.04 53.26 197.85 63.10 C 204.70 71.12 209.83 80.68 212.34 90.94 C 213.35 94.82 213.60 98.84 214.38 102.76 C 225.01 99.57 236.97 98.99 247.26 103.66 C 251.86 105.96 256.73 108.14 261.87 108.63 C 266.01 106.01 270.22 103.38 275.01 102.08 C 281.43 99.89 288.29 100.39 294.96 100.51 C 299.00 100.54 302.92 103.09 306.95 101.80 C 312.14 100.10 317.66 100.29 323.05 100.51 C 327.19 100.65 331.14 103.40 335.30 101.98 C 345.21 98.82 355.94 100.46 365.50 104.07 C 367.73 90.01 374.40 76.62 384.84 66.87 C 403.42 48.77 430.72 42.04 456.03 44.35 C 474.05 45.93 491.68 53.68 504.51 66.53 C 514.07 75.90 520.49 88.32 522.67 101.52 C 526.76 101.36 530.85 100.23 534.95 100.93 C 537.94 101.35 540.96 101.54 543.98 101.78 C 545.62 102.19 547.28 102.53 548.96 102.85 C 553.88 104.15 558.74 105.75 563.35 107.94 C 566.63 109.41 569.62 111.54 573.09 112.61 C 575.76 98.35 579.44 84.04 586.34 71.16 C 592.65 58.96 601.21 47.41 613.14 40.21 C 624.69 32.67 639.49 30.21 652.82 33.85 C 655.93 34.62 658.73 36.40 661.96 36.77 C 669.27 25.42 680.86 17.48 692.87 11.75 M 688.79 19.44 C 678.01 25.16 669.51 34.15 662.24 43.78 C 647.94 33.88 627.69 35.75 613.91 45.69 C 602.24 53.51 594.30 65.60 588.39 78.10 C 582.93 90.15 580.17 103.15 577.08 115.95 C 575.36 116.77 573.65 117.61 571.96 118.47 C 561.10 111.33 548.48 106.58 535.42 105.98 C 529.67 105.23 523.99 106.95 518.25 106.64 C 517.23 99.52 515.84 92.24 512.43 85.78 C 504.44 69.66 488.98 58.12 472.03 52.75 C 459.85 48.46 446.67 48.75 433.97 49.68 C 417.93 51.71 401.97 57.88 389.94 68.89 C 377.78 79.80 369.91 95.74 370.12 112.22 C 365.71 110.38 361.64 107.65 356.94 106.56 C 349.83 104.91 342.21 104.80 335.26 107.19 C 332.14 108.45 329.02 106.80 325.99 106.15 C 319.02 104.57 311.78 105.40 305.04 107.52 C 300.05 106.77 295.18 104.94 290.03 105.42 C 280.29 104.77 270.00 107.64 262.90 114.55 C 259.74 114.36 257.03 112.49 253.94 111.92 C 249.31 111.19 245.76 107.72 241.22 106.69 C 230.71 103.86 219.39 105.51 209.48 109.72 C 209.19 102.33 208.68 94.81 206.23 87.78 C 202.53 76.71 195.80 66.55 186.55 59.37 C 173.58 48.92 156.23 45.13 139.86 46.79 C 145.65 47.92 151.51 46.94 157.33 47.43 C 149.56 48.56 141.68 46.21 133.97 48.00 C 116.83 51.55 101.25 60.78 88.63 72.76 C 77.76 83.23 68.88 95.64 61.67 108.87 C 53.02 125.75 46.50 143.93 44.51 162.88 C 43.59 176.92 44.33 191.38 49.70 204.55 C 57.00 223.74 72.23 240.08 91.57 247.38 C 103.42 252.37 116.50 252.13 129.09 251.53 C 147.66 249.88 166.08 244.17 181.56 233.62 C 182.83 232.84 184.28 231.65 185.86 232.42 C 189.18 233.64 192.31 235.40 195.78 236.25 C 203.60 238.73 211.90 237.63 219.95 237.34 C 219.34 237.16 218.72 236.99 218.12 236.82 C 222.43 237.01 226.52 233.38 230.70 235.61 C 240.64 239.51 251.97 239.09 261.85 235.20 C 265.31 233.47 268.62 236.51 272.02 237.00 C 279.16 238.30 286.71 238.13 293.63 235.79 C 297.82 234.26 301.79 236.99 305.91 237.43 C 313.02 238.18 320.41 237.87 327.10 235.13 C 330.53 233.48 333.80 236.59 337.19 237.06 C 349.91 239.22 363.23 236.81 374.59 230.76 C 376.77 229.28 378.92 231.12 380.65 232.35 C 394.90 242.66 412.68 246.71 430.00 247.43 C 450.89 247.53 472.25 241.84 489.02 229.05 C 490.36 227.63 491.93 229.29 493.15 229.98 C 498.45 233.82 504.83 235.61 511.09 237.22 C 524.56 239.06 538.89 237.00 550.25 229.15 C 552.11 228.13 554.37 225.23 556.38 227.60 C 569.88 239.05 589.85 240.65 605.84 233.82 C 608.34 232.63 610.85 234.28 613.19 235.06 C 623.69 239.15 635.72 238.56 645.96 233.95 C 647.91 233.20 650.08 231.65 652.16 232.97 C 658.66 236.22 665.84 237.89 673.08 238.21 C 679.60 238.25 685.92 236.45 692.16 234.74 C 695.73 235.28 698.97 237.29 702.62 237.69 C 710.10 239.26 717.73 237.83 725.07 236.18 C 724.42 236.05 723.78 235.93 723.14 235.81 C 732.39 234.46 739.96 228.29 747.09 222.67 C 751.13 222.11 755.16 221.39 759.09 220.24 C 770.74 215.87 780.50 206.88 785.58 195.49 C 786.99 195.22 788.41 194.95 789.84 194.71 C 805.38 192.41 819.71 183.05 828.10 169.77 C 833.82 161.29 836.57 151.11 837.08 140.97 C 836.51 135.38 836.72 129.66 834.89 124.27 C 830.34 107.52 817.40 93.41 801.13 87.37 C 799.11 86.98 799.00 84.64 798.87 83.01 C 799.15 67.45 793.47 52.09 784.27 39.66 C 773.02 24.69 756.02 14.16 737.51 11.09 C 720.95 8.51 703.39 10.94 688.79 19.44 Z" />
<path fill="#05affa" opacity="1.00" d=" M 696.16 25.42 C 711.39 18.40 729.55 17.63 745.16 23.94 C 772.68 33.69 790.66 64.48 785.53 93.25 C 801.10 95.46 814.76 106.76 820.56 121.28 C 828.14 139.45 822.00 162.22 806.31 174.11 C 797.92 180.71 787.12 184.15 776.46 183.72 C 776.07 184.00 775.30 184.55 774.91 184.83 C 771.86 200.15 756.25 211.47 740.78 210.58 C 732.87 218.19 723.14 224.78 711.96 225.99 C 704.61 227.15 697.22 224.95 690.75 221.58 C 681.18 225.78 670.05 227.54 659.92 224.18 C 656.03 223.22 652.93 220.46 649.18 219.21 C 646.50 219.32 644.30 221.06 641.91 222.06 C 632.98 226.46 622.12 227.12 613.03 222.82 C 610.33 221.81 607.53 219.10 604.55 220.83 C 593.31 226.79 579.05 227.82 567.61 221.84 C 562.16 219.15 558.07 214.55 554.09 210.11 C 547.09 218.06 537.44 223.63 526.97 225.40 C 519.69 226.08 512.13 226.04 505.24 223.31 C 500.15 221.35 495.53 218.25 491.58 214.52 C 490.85 213.88 489.68 212.68 488.71 213.57 C 475.38 226.85 456.54 234.11 437.87 234.74 L 437.08 235.30 C 433.72 235.34 430.36 235.37 427.00 235.16 C 413.24 234.27 399.38 230.64 387.83 222.88 C 384.63 220.79 381.95 218.04 378.96 215.69 C 376.40 215.42 374.50 218.01 372.22 218.95 C 359.97 225.84 343.68 229.15 331.08 221.35 C 327.91 221.58 325.31 224.01 322.17 224.63 C 314.14 226.75 305.03 226.29 298.05 221.41 C 290.27 226.21 280.24 227.16 271.69 223.94 C 269.03 222.95 266.29 220.21 263.43 222.25 C 253.64 227.37 241.38 227.75 231.61 222.37 C 230.19 221.21 228.44 221.75 226.98 222.49 C 214.02 228.46 197.78 226.66 186.79 217.40 C 176.31 225.05 165.00 231.80 152.44 235.40 C 138.99 239.19 124.85 240.67 110.94 239.26 C 93.74 237.02 78.22 226.46 68.79 212.05 C 58.28 196.31 55.59 176.50 58.19 158.02 C 61.00 139.68 67.87 122.12 77.17 106.12 C 86.83 90.35 99.34 75.84 115.35 66.28 C 124.42 61.04 134.46 57.05 145.00 56.32 C 151.70 56.18 158.58 55.72 165.07 57.74 C 179.10 61.40 191.19 71.74 196.91 85.07 C 203.33 99.55 202.67 116.72 195.95 130.98 C 206.10 121.28 219.47 113.34 233.99 114.31 C 238.39 114.02 242.54 115.75 246.15 118.12 C 249.24 120.27 253.18 120.06 256.55 121.50 C 260.03 122.87 262.91 125.34 265.77 127.69 C 269.36 120.35 276.74 115.18 284.89 114.47 C 291.67 114.14 299.04 113.80 305.05 117.53 C 312.91 113.89 322.32 112.89 330.36 116.57 C 334.25 119.06 338.05 115.40 341.87 114.63 C 347.94 114.03 354.29 113.98 359.85 116.87 C 369.87 120.92 375.71 131.70 375.74 142.22 C 378.64 138.45 381.87 134.94 384.74 131.13 C 380.98 121.79 379.05 111.34 381.65 101.43 C 385.40 83.72 399.76 69.74 416.46 63.69 C 428.66 58.74 442.02 57.61 455.04 58.62 C 469.78 60.29 484.34 66.46 494.51 77.46 C 505.48 88.32 510.16 105.01 506.34 119.99 C 516.32 116.11 527.23 113.55 537.96 115.27 C 547.59 116.14 556.75 120.04 564.87 125.15 C 567.29 126.49 569.56 129.80 572.65 128.45 C 576.59 126.02 580.17 122.96 584.54 121.26 C 588.88 103.78 592.13 85.45 602.29 70.18 C 609.05 59.58 618.92 49.90 631.66 47.39 C 639.76 45.26 648.56 47.15 655.53 51.63 C 658.50 53.56 660.60 56.47 663.12 58.92 C 664.45 57.79 664.90 56.01 665.74 54.54 C 672.32 41.87 683.05 31.21 696.16 25.42 M 716.80 37.23 C 706.75 39.43 697.45 45.15 691.19 53.34 C 682.72 64.04 679.70 78.84 683.28 92.01 C 686.59 105.05 696.32 116.30 708.74 121.46 C 716.61 125.18 725.53 125.23 734.03 124.43 C 747.07 122.03 758.81 113.49 765.13 101.84 C 775.49 83.75 770.33 58.85 753.92 46.09 C 743.75 37.69 729.68 34.39 716.80 37.23 M 624.82 74.92 C 614.46 87.82 611.43 104.47 607.53 120.09 C 606.04 125.32 606.60 130.83 605.34 136.10 C 591.28 136.21 580.17 147.63 574.92 159.84 C 571.67 155.85 568.44 151.85 564.98 148.05 C 559.37 141.77 551.81 137.59 543.92 134.88 C 534.94 132.44 524.99 132.85 516.64 137.20 C 504.77 143.26 497.93 156.89 498.24 169.96 C 498.23 175.57 497.95 181.33 499.77 186.73 C 501.38 193.61 506.08 199.48 511.98 203.23 C 518.47 206.43 526.51 206.25 532.86 202.77 C 540.14 199.33 545.26 192.53 548.31 185.23 C 553.33 173.56 553.02 159.67 547.34 148.28 C 548.23 148.51 549.08 148.84 549.90 149.28 C 557.76 154.12 564.04 160.99 570.59 167.38 C 570.80 170.31 569.36 173.07 568.98 175.96 C 567.83 183.64 568.52 192.22 573.48 198.53 C 577.28 204.16 584.61 206.68 591.15 205.10 C 599.02 203.07 606.01 198.32 611.51 192.41 C 611.90 192.44 612.67 192.49 613.06 192.52 C 615.90 200.92 626.01 208.33 634.83 204.05 C 643.06 200.96 649.94 195.37 657.04 190.35 C 658.54 199.50 667.73 206.84 677.05 205.48 C 684.88 204.44 691.54 199.65 697.19 194.40 C 699.46 196.26 700.14 199.63 702.38 201.68 C 706.23 206.59 713.58 206.64 718.82 204.10 C 726.21 200.61 732.17 194.64 737.06 188.20 C 741.29 189.66 745.88 190.38 750.30 189.33 C 756.27 187.32 760.75 181.29 760.48 174.93 C 760.45 167.66 754.23 161.21 747.07 160.47 C 740.44 159.56 733.68 164.05 731.65 170.36 C 730.84 172.91 730.86 175.88 728.92 177.93 C 725.84 181.50 722.34 184.75 718.38 187.33 C 716.46 188.78 713.96 188.48 711.72 188.62 C 709.39 182.95 710.69 176.75 711.86 170.97 C 713.87 161.70 715.95 152.37 716.43 142.87 C 715.67 141.45 714.92 140.03 714.17 138.61 C 711.05 138.40 707.92 138.52 704.82 138.17 C 702.08 137.00 700.81 133.89 698.12 132.65 C 687.87 132.49 678.85 138.78 672.17 146.05 C 665.87 153.17 661.87 161.88 658.47 170.65 C 652.44 177.40 645.11 182.94 637.18 187.29 C 635.31 187.82 633.44 188.30 631.53 188.58 C 630.60 187.72 629.66 186.87 628.73 186.03 C 627.08 180.87 627.25 175.30 628.34 170.05 C 629.80 161.99 634.28 155.00 637.40 147.55 C 643.33 136.21 646.47 123.75 650.90 111.81 C 653.85 102.88 654.70 93.39 654.28 84.03 C 653.93 77.31 652.35 69.91 646.68 65.61 C 638.20 62.20 629.79 68.49 624.82 74.92 M 129.92 80.22 C 114.54 87.19 102.83 100.14 93.91 114.16 C 84.92 129.10 78.20 145.65 76.00 163.03 C 73.95 178.80 77.84 196.14 89.39 207.60 C 94.95 213.69 102.66 217.42 110.64 219.14 C 133.81 221.59 158.42 214.82 175.52 198.61 C 180.79 194.06 185.74 189.13 191.35 184.98 C 191.25 194.08 197.10 202.73 205.90 205.41 C 216.25 206.82 225.85 200.96 232.99 194.02 C 234.66 197.92 236.88 201.84 240.53 204.20 C 245.09 206.63 250.82 206.02 255.23 203.52 C 262.16 199.78 267.75 194.00 272.62 187.89 C 273.64 193.12 272.51 199.32 276.53 203.50 C 280.52 206.97 287.49 205.77 289.83 200.90 C 296.82 187.93 302.11 174.09 309.43 161.29 C 309.64 166.59 308.20 171.74 307.64 176.98 C 306.91 183.97 304.86 191.00 306.40 198.04 C 306.48 201.12 308.35 203.66 310.70 205.50 C 312.53 205.45 314.36 205.43 316.20 205.43 C 319.64 204.02 322.62 201.45 323.70 197.79 C 328.01 186.26 333.02 174.97 336.97 163.31 C 337.39 163.37 338.24 163.49 338.66 163.55 C 337.30 174.66 336.65 186.06 338.70 197.13 C 339.79 200.47 341.64 203.54 344.62 205.52 C 347.07 205.42 349.52 205.37 351.97 205.29 C 365.40 202.44 374.95 191.98 385.15 183.64 C 386.10 187.95 387.22 192.37 389.92 195.97 C 396.43 205.85 407.84 211.22 419.12 213.52 C 434.57 216.15 451.10 214.65 465.08 207.21 C 472.10 203.10 478.87 197.72 482.27 190.12 C 487.03 180.78 486.81 169.23 482.22 159.91 C 480.51 158.49 479.59 156.43 478.17 154.76 C 470.99 146.68 461.34 141.45 451.77 136.74 C 441.99 131.37 430.77 127.61 423.51 118.68 C 418.67 113.70 418.97 104.74 424.24 100.17 C 429.90 94.39 438.34 93.03 446.07 92.72 C 453.96 93.27 462.71 93.62 468.98 99.11 C 473.35 102.15 473.34 108.31 472.08 112.95 C 469.90 119.44 464.01 124.96 465.54 132.36 C 466.24 133.09 466.93 133.83 467.63 134.57 C 470.16 134.50 472.89 134.77 475.20 133.48 C 481.21 130.36 484.80 124.20 487.42 118.21 C 491.02 109.68 489.87 99.14 483.83 92.00 C 476.53 82.50 464.64 77.65 452.99 76.50 C 440.30 75.85 426.97 77.88 416.15 84.88 C 408.02 90.18 401.38 98.98 401.40 109.03 C 400.74 116.89 404.62 124.55 410.35 129.74 C 423.62 142.71 442.34 147.43 457.08 158.27 C 460.98 161.53 465.00 165.31 466.43 170.36 C 467.04 174.81 467.24 179.75 464.72 183.69 C 460.13 190.90 452.04 195.06 443.89 196.84 C 434.06 199.22 423.27 199.02 414.03 194.63 C 407.78 191.64 403.16 185.03 403.71 177.95 C 403.51 172.14 407.00 166.28 404.28 160.67 C 400.20 158.90 395.35 159.67 392.14 162.79 C 387.18 167.59 381.49 171.48 376.01 175.64 C 370.39 179.82 365.21 184.67 358.93 187.89 C 357.67 188.54 356.18 188.37 354.81 188.57 C 354.00 187.09 352.78 185.76 352.50 184.06 C 351.72 176.31 352.62 168.53 353.77 160.87 L 354.21 160.09 C 354.78 152.05 357.57 143.87 355.48 135.86 C 352.32 133.32 347.63 131.21 343.97 134.07 C 337.81 139.08 334.43 146.51 330.03 152.96 C 327.12 157.05 325.29 161.78 322.39 165.88 C 323.18 156.06 327.86 146.70 326.53 136.66 C 325.43 135.57 324.33 134.49 323.24 133.41 C 320.75 133.28 318.26 133.24 315.78 133.29 C 312.92 135.31 310.43 137.80 308.57 140.76 C 303.51 148.33 298.65 156.12 295.04 164.48 C 294.64 164.55 293.84 164.69 293.44 164.76 C 295.20 157.26 296.20 149.63 297.13 142.00 C 297.20 140.30 297.26 138.60 297.31 136.90 C 296.90 135.82 296.51 134.74 296.12 133.66 C 294.40 133.39 292.69 133.08 290.99 132.71 C 288.87 132.69 286.78 133.03 284.73 133.55 C 280.76 138.85 279.98 145.63 278.50 151.89 C 277.35 156.14 277.80 161.16 274.51 164.54 C 269.57 170.29 265.41 176.71 260.06 182.11 C 256.44 185.56 252.18 189.69 246.70 188.48 C 244.07 180.34 247.12 171.96 248.60 163.91 C 249.81 157.29 251.55 150.66 251.48 143.88 C 251.67 141.62 250.29 139.30 248.11 138.57 C 244.75 138.16 241.17 138.94 238.07 137.24 C 236.71 135.40 235.28 133.22 232.93 132.63 C 228.53 132.79 224.02 133.64 220.18 135.90 C 208.16 142.28 200.30 154.10 195.27 166.41 C 181.43 172.38 170.11 182.56 157.71 190.88 C 147.44 197.67 135.58 203.17 123.00 202.67 C 116.74 202.90 110.22 201.37 105.40 197.18 C 99.44 191.84 96.94 183.69 96.45 175.91 C 95.96 158.76 101.27 141.95 108.69 126.66 C 114.56 115.29 121.73 103.95 132.65 96.81 C 137.26 94.04 142.48 91.76 147.98 92.18 C 153.30 92.01 159.36 94.42 161.59 99.57 C 165.17 106.58 163.59 115.14 160.01 121.83 C 157.48 127.28 153.84 132.75 154.38 139.03 C 154.44 141.92 157.07 144.80 160.12 143.57 C 174.00 132.57 183.49 113.74 178.27 95.95 C 175.76 88.96 170.96 82.70 164.25 79.30 C 153.61 73.61 140.52 75.33 129.92 80.22 M 761.11 125.66 C 756.62 133.23 756.82 143.08 760.98 150.74 C 764.72 157.39 771.35 162.49 778.96 163.70 C 785.93 165.20 793.35 163.21 799.10 159.13 C 805.20 154.34 809.50 146.87 809.52 139.01 C 810.09 129.29 804.20 119.72 795.65 115.28 C 790.57 112.51 784.61 111.88 778.94 112.68 C 771.50 114.28 764.87 119.03 761.11 125.66 Z" />
<path fill="#05affa" opacity="1.00" d=" M 721.71 44.76 C 732.46 42.96 744.03 46.40 751.85 54.05 C 756.29 58.84 758.99 65.15 759.54 71.66 C 757.94 73.33 756.09 74.72 753.99 75.69 C 747.59 73.98 749.07 66.08 745.02 62.12 C 739.70 55.72 730.89 54.62 723.10 54.47 C 720.46 54.66 719.64 51.84 718.78 49.92 C 719.58 48.13 719.97 45.92 721.71 44.76 Z" />
<path fill="#05affa" opacity="1.00" d=" M 636.94 82.00 C 638.03 81.15 639.22 82.26 640.32 82.53 C 642.01 90.33 640.62 98.40 639.13 106.12 C 635.27 121.08 629.89 135.58 624.49 150.03 C 623.43 138.02 625.11 126.02 626.31 114.10 C 626.96 106.90 629.05 99.95 630.72 92.95 C 631.95 88.95 632.99 84.23 636.94 82.00 Z" />
<path fill="#05affa" opacity="1.00" d=" M 228.90 147.64 C 230.56 147.48 232.22 147.33 233.89 147.19 C 232.24 154.78 230.45 162.33 228.75 169.91 C 227.38 176.66 225.67 183.77 220.94 189.03 C 219.16 191.04 215.74 192.73 213.43 190.62 C 209.13 187.07 210.37 180.85 210.72 175.99 C 213.59 165.04 218.80 153.66 228.90 147.64 Z" />
<path fill="#05affa" opacity="1.00" d=" M 527.39 147.60 C 532.71 146.03 536.13 151.64 537.09 156.05 C 538.55 163.77 537.42 171.80 535.08 179.22 C 533.33 183.76 531.12 188.76 526.62 191.14 C 522.73 192.39 518.67 189.84 516.57 186.65 C 513.58 181.63 514.36 175.52 514.62 169.96 C 515.97 161.46 519.21 151.72 527.39 147.60 Z" />
<path fill="#05affa" opacity="1.00" d=" M 596.56 154.26 C 599.28 151.24 602.51 148.60 606.29 147.02 C 606.81 156.40 605.84 165.90 607.32 175.21 C 605.41 179.67 602.76 183.88 599.06 187.07 C 596.39 189.74 592.29 188.41 588.96 188.37 C 584.78 184.73 586.28 178.62 587.51 173.94 C 589.86 167.13 591.70 159.81 596.56 154.26 Z" />
<path fill="#05affa" opacity="1.00" d=" M 682.16 159.36 C 685.78 153.63 690.75 147.48 698.07 147.00 C 697.53 155.15 694.92 162.96 693.34 170.94 C 691.83 178.40 689.53 186.50 683.24 191.38 C 682.38 191.44 680.64 191.55 679.77 191.61 C 677.82 190.27 675.46 188.69 675.47 186.03 C 674.07 176.61 677.57 167.40 682.16 159.36 Z" />
</g>
</svg>
