<?xml version="1.0" encoding="UTF-8" ?>
<!DOCTYPE svg PUBLIC "-//W3C//DTD SVG 1.1//EN" "http://www.w3.org/Graphics/SVG/1.1/DTD/svg11.dtd">
<svg width="2000pt" height="408pt" viewBox="0 0 2000 408" version="1.1" xmlns="http://www.w3.org/2000/svg">
<g id="#ffffffff">
</g>
<g id="#9c282eff">
<path fill="#9c282e" opacity="1.00" d=" M 88.16 45.15 C 129.33 20.33 178.30 9.64 226.12 12.48 C 264.68 14.68 302.90 25.87 335.88 46.13 C 364.31 63.56 388.87 87.94 404.50 117.56 C 417.88 142.69 424.24 171.61 421.90 200.04 C 419.74 228.06 409.18 255.14 392.91 277.96 C 376.51 301.07 354.59 320.00 330.06 334.03 C 299.85 351.29 265.66 361.26 231.02 363.88 C 226.53 364.62 222.65 360.40 223.07 356.03 C 222.74 321.35 222.58 286.67 222.42 251.99 C 222.11 247.25 225.43 243.61 228.75 240.75 C 255.25 212.91 281.60 184.93 308.09 157.08 C 309.91 155.07 312.52 153.07 312.10 150.01 C 312.29 147.97 311.87 144.90 309.10 145.41 C 244.06 145.39 179.02 145.49 113.99 145.47 C 111.58 145.80 108.50 144.64 106.59 146.47 C 105.96 149.28 105.76 152.75 108.16 154.81 C 136.56 184.75 164.78 214.87 193.26 244.71 C 195.13 247.02 195.70 250.07 195.64 252.97 C 195.57 287.33 195.61 321.70 195.74 356.06 C 196.21 360.35 192.21 364.11 188.01 363.83 C 177.94 362.95 168.01 360.97 158.08 359.13 C 150.64 357.73 143.21 360.35 136.67 363.70 C 101.30 381.00 62.93 391.36 24.20 397.71 C 34.22 382.80 42.72 366.95 51.15 351.10 C 55.25 343.21 60.02 335.65 63.49 327.45 C 66.05 321.40 62.68 314.91 58.22 310.79 C 47.17 299.45 36.05 288.02 27.24 274.80 C 10.36 250.12 0.47 220.59 0.00 190.63 L 0.00 185.42 C 0.56 163.86 5.74 142.44 15.15 123.03 C 30.82 90.40 57.29 63.68 88.16 45.15 Z" />
<path fill="#9c282e" opacity="1.00" d=" M 556.95 112.89 C 572.28 103.15 590.99 99.88 608.92 100.82 C 624.14 101.68 639.74 104.81 652.71 113.21 C 664.30 120.53 673.15 132.35 676.16 145.80 C 677.37 150.89 677.71 156.12 677.86 161.33 C 664.50 161.34 651.14 161.34 637.78 161.33 C 637.30 153.37 634.56 145.02 628.02 140.00 C 619.15 133.52 607.60 132.57 596.97 133.00 C 587.89 133.41 578.29 137.37 573.80 145.69 C 571.53 150.64 571.39 156.62 573.37 161.69 C 575.65 166.76 581.20 169.04 586.03 171.04 C 596.71 175.05 607.93 177.38 618.93 180.35 C 631.37 183.75 644.47 185.65 655.87 192.04 C 667.98 198.53 678.56 209.27 682.32 222.75 C 685.55 235.67 684.59 249.75 679.02 261.90 C 673.60 273.90 663.29 283.20 651.47 288.74 C 634.30 296.91 614.79 298.65 596.03 297.40 C 575.90 295.82 554.88 289.36 540.92 274.03 C 530.11 262.56 525.12 246.63 525.56 231.04 C 538.92 231.04 552.29 231.02 565.66 231.05 C 565.55 239.85 568.45 248.90 574.95 255.05 C 583.68 263.37 596.30 265.86 607.98 265.85 C 618.41 265.59 629.84 264.11 637.88 256.81 C 645.72 250.10 646.38 236.30 638.51 229.38 C 631.48 223.02 622.12 220.30 613.22 217.74 C 602.11 214.96 591.01 212.14 580.01 208.96 C 565.23 204.61 549.81 198.37 540.46 185.48 C 532.30 174.90 530.65 160.72 532.73 147.85 C 534.99 133.29 544.70 120.68 556.95 112.89 Z" />
<path fill="#9c282e" opacity="1.00" d=" M 1339.07 121.13 C 1352.56 109.25 1370.06 102.20 1387.97 101.00 C 1409.31 99.29 1431.98 103.59 1449.24 116.83 C 1463.42 127.57 1472.36 144.33 1474.62 161.87 C 1466.26 161.85 1457.90 161.89 1449.55 161.85 C 1447.45 151.99 1443.03 142.34 1435.48 135.47 C 1423.59 124.56 1406.71 120.64 1390.93 122.01 C 1374.59 122.71 1358.83 130.92 1348.96 143.97 C 1336.81 159.81 1332.71 180.38 1332.91 199.99 C 1333.29 217.81 1336.56 236.31 1346.57 251.40 C 1352.09 259.77 1359.89 266.61 1368.90 271.02 C 1379.72 276.34 1392.14 277.61 1404.04 276.58 C 1417.53 275.36 1430.49 268.56 1438.85 257.84 C 1446.77 247.85 1450.43 235.13 1451.43 222.58 C 1459.77 222.60 1468.11 222.58 1476.46 222.59 C 1474.49 241.80 1468.04 261.31 1454.42 275.45 C 1442.45 288.32 1425.28 295.30 1408.00 297.06 C 1386.70 299.34 1363.89 296.48 1345.83 284.21 C 1329.21 273.48 1318.12 255.76 1312.82 236.95 C 1306.83 215.57 1306.22 192.68 1310.98 171.00 C 1315.22 152.16 1324.37 133.95 1339.07 121.13 Z" />
<path fill="#9c282e" opacity="1.00" d=" M 693.98 105.11 C 745.46 105.10 796.93 105.11 848.41 105.11 C 848.42 116.72 848.41 128.34 848.41 139.95 C 829.58 139.96 810.75 139.94 791.92 139.96 C 791.89 191.18 791.96 242.40 791.89 293.62 C 778.08 293.57 764.28 293.62 750.48 293.60 C 750.47 242.38 750.49 191.17 750.47 139.96 C 731.64 139.95 712.81 139.96 693.98 139.95 C 693.97 128.33 693.97 116.72 693.98 105.11 Z" />
<path fill="#9c282e" opacity="1.00" d=" M 870.07 105.11 C 900.71 105.10 931.35 105.10 961.99 105.11 C 970.31 105.11 978.76 104.81 986.91 106.84 C 1001.54 110.24 1014.85 119.96 1021.49 133.57 C 1026.85 144.12 1027.82 156.41 1025.98 167.97 C 1024.85 175.18 1022.31 182.21 1018.32 188.33 C 1013.16 195.96 1005.14 201.10 996.74 204.54 C 1001.41 206.50 1006.43 208.12 1010.10 211.80 C 1017.03 217.98 1020.98 226.81 1022.70 235.81 C 1025.85 251.08 1024.18 266.92 1027.67 282.14 C 1028.52 286.21 1030.17 290.07 1032.36 293.62 C 1018.57 293.58 1004.79 293.60 991.01 293.61 C 984.54 276.01 987.60 256.62 982.20 238.77 C 980.36 233.04 977.23 227.32 971.93 224.13 C 966.26 220.74 959.48 220.02 953.02 219.95 C 939.18 219.94 925.35 219.95 911.52 219.95 C 911.50 244.50 911.52 269.05 911.51 293.60 C 897.70 293.62 883.89 293.58 870.09 293.61 C 870.04 230.78 870.08 167.94 870.07 105.11 M 911.50 137.33 C 911.52 155.01 911.50 172.69 911.52 190.37 C 926.35 190.37 941.19 190.39 956.03 190.37 C 963.48 190.32 971.51 189.38 977.54 184.59 C 983.20 180.28 985.04 172.79 985.36 166.02 C 985.59 158.33 984.63 149.65 978.76 144.06 C 972.96 138.66 964.66 137.46 957.05 137.35 C 941.87 137.27 926.68 137.31 911.50 137.33 Z" />
<path fill="#9c282e" opacity="1.00" d=" M 1060.68 105.11 C 1074.49 105.10 1088.30 105.10 1102.11 105.11 C 1102.06 167.96 1102.27 230.81 1102.01 293.66 C 1088.23 293.51 1074.45 293.66 1060.68 293.59 C 1060.69 230.76 1060.67 167.93 1060.68 105.11 Z" />
<path fill="#9c282e" opacity="1.00" d=" M 1138.56 105.11 C 1167.04 105.13 1195.52 105.06 1224.00 105.14 C 1237.04 105.17 1250.41 107.51 1261.73 114.30 C 1274.30 121.38 1283.34 134.00 1286.59 148.01 C 1290.99 166.07 1288.81 186.45 1278.09 201.97 C 1267.33 217.37 1248.35 225.04 1230.03 225.78 C 1213.36 226.28 1196.68 225.88 1180.01 226.02 C 1179.97 248.55 1180.05 271.09 1179.96 293.62 C 1166.16 293.56 1152.36 293.63 1138.56 293.59 C 1138.57 230.76 1138.55 167.93 1138.56 105.11 M 1180.01 137.31 C 1179.99 156.14 1179.99 174.98 1180.01 193.81 C 1188.00 193.81 1196.00 193.81 1204.00 193.81 C 1213.66 193.73 1223.66 194.20 1232.90 190.90 C 1240.68 188.23 1246.70 181.18 1247.97 173.04 C 1249.47 163.83 1248.82 153.11 1241.97 146.05 C 1235.35 139.09 1225.20 137.83 1216.10 137.44 C 1204.07 137.15 1192.04 137.39 1180.01 137.31 Z" />
<path fill="#9c282e" opacity="1.00" d=" M 1507.64 105.11 C 1516.00 105.11 1524.35 105.09 1532.72 105.11 C 1532.71 132.13 1532.70 159.14 1532.72 186.15 C 1565.80 186.16 1598.89 186.15 1631.98 186.15 C 1631.99 159.14 1631.97 132.12 1631.99 105.11 C 1640.34 105.10 1648.69 105.10 1657.05 105.11 C 1657.04 167.94 1657.11 230.78 1657.01 293.61 C 1648.68 293.59 1640.34 293.60 1632.01 293.61 C 1631.93 264.83 1632.01 236.05 1631.97 207.27 C 1598.89 207.28 1565.80 207.27 1532.72 207.27 C 1532.70 236.05 1532.72 264.82 1532.71 293.60 C 1524.35 293.59 1515.99 293.62 1507.63 293.59 C 1507.64 230.76 1507.63 167.93 1507.64 105.11 Z" />
<path fill="#9c282e" opacity="1.00" d=" M 1749.37 105.15 C 1758.64 105.05 1767.92 105.13 1777.19 105.10 C 1801.75 167.93 1826.29 230.76 1850.83 293.60 C 1841.59 293.61 1832.36 293.59 1823.14 293.61 C 1816.31 274.73 1809.35 255.90 1802.67 236.97 C 1776.05 236.67 1749.42 236.93 1722.80 236.84 C 1715.74 255.75 1708.72 274.68 1701.67 293.60 C 1693.14 293.60 1684.61 293.60 1676.08 293.60 C 1700.48 230.77 1725.02 167.99 1749.37 105.15 M 1762.77 127.64 C 1751.99 156.97 1741.41 186.36 1730.72 215.72 C 1752.02 215.72 1773.31 215.74 1794.61 215.71 C 1786.89 194.14 1779.19 172.55 1771.48 150.97 C 1768.46 143.25 1766.32 135.12 1762.77 127.64 Z" />
<path fill="#9c282e" opacity="1.00" d=" M 1849.25 105.11 C 1899.50 105.10 1949.75 105.11 2000.00 105.10 L 2000.00 126.22 C 1979.05 126.22 1958.11 126.22 1937.17 126.22 C 1937.15 182.02 1937.18 237.81 1937.15 293.60 C 1928.79 293.60 1920.44 293.60 1912.10 293.61 C 1912.07 237.81 1912.10 182.02 1912.08 126.23 C 1891.14 126.21 1870.20 126.23 1849.26 126.22 C 1849.24 119.18 1849.25 112.15 1849.25 105.11 Z" />
</g>
</svg>
