<?xml version="1.0" encoding="UTF-8" ?>
<!DOCTYPE svg PUBLIC "-//W3C//DTD SVG 1.1//EN" "http://www.w3.org/Graphics/SVG/1.1/DTD/svg11.dtd">
<svg width="1920pt" height="500pt" viewBox="0 0 1920 500" version="1.1" xmlns="http://www.w3.org/2000/svg">
<g id="#9a0000ff">
<path fill="#9a0000" opacity="1.00" d=" M 0.00 0.00 L 1920.00 0.00 L 1920.00 500.00 L 0.00 500.00 L 0.00 0.00 M 697.84 220.95 C 694.97 224.11 695.16 228.59 694.26 232.51 C 698.10 227.98 701.82 223.08 707.00 219.99 C 708.71 218.87 711.07 218.78 712.54 220.36 C 716.28 224.12 718.01 229.32 719.87 234.16 C 723.30 244.25 726.63 254.36 729.97 264.48 C 720.54 275.14 711.62 286.37 700.91 295.80 C 697.93 298.24 694.86 300.98 690.99 301.77 C 688.28 302.27 686.36 300.03 684.65 298.35 C 681.06 301.91 677.49 305.49 673.87 309.02 C 676.67 311.69 679.86 314.33 683.83 314.86 C 688.00 315.61 692.05 313.73 695.43 311.45 C 701.30 307.40 706.05 301.99 710.59 296.56 C 717.72 287.80 724.80 279.01 731.91 270.24 C 734.86 278.66 737.72 287.10 740.66 295.52 C 742.73 301.21 745.32 306.97 749.83 311.17 C 752.99 314.18 757.54 315.63 761.86 314.83 C 768.29 313.67 773.28 308.91 777.24 304.00 C 779.70 301.29 779.55 297.37 780.40 294.02 C 777.66 297.38 774.90 300.83 771.35 303.38 C 769.14 304.96 765.92 306.50 763.42 304.64 C 759.26 301.36 757.43 296.12 755.49 291.38 C 751.37 279.70 747.51 267.93 743.51 256.22 C 751.95 246.78 759.95 236.89 769.45 228.47 C 772.38 225.98 775.42 223.38 779.14 222.18 C 781.23 221.47 783.31 222.59 785.30 223.14 C 789.15 219.31 793.04 215.51 796.86 211.64 C 792.75 208.87 787.46 208.22 782.80 209.91 C 774.36 212.89 767.83 219.42 761.92 225.89 C 755.01 233.93 748.46 242.27 741.70 250.44 C 737.84 240.03 735.36 229.00 729.80 219.30 C 726.72 213.99 721.65 208.51 714.95 209.00 C 707.56 209.59 702.16 215.49 697.84 220.95 M 783.25 241.28 C 781.80 242.38 782.22 244.39 782.10 245.96 C 782.15 256.99 782.09 268.03 782.12 279.06 C 782.00 282.90 783.52 286.93 786.81 289.10 C 791.82 292.54 798.16 292.79 804.03 293.13 C 815.02 293.27 826.01 293.15 837.00 293.20 C 838.43 293.07 840.44 293.42 841.22 291.82 C 842.14 289.67 841.81 285.71 838.92 285.41 C 825.94 284.99 812.93 285.75 799.96 284.97 C 796.58 284.63 791.53 283.30 791.78 279.00 C 791.65 267.34 791.89 255.67 791.69 244.02 C 791.67 239.89 785.93 240.32 783.25 241.28 M 1046.49 241.77 C 1041.23 243.24 1035.37 246.94 1035.12 252.97 C 1034.96 261.67 1035.08 270.38 1035.06 279.09 C 1034.98 282.20 1035.80 285.56 1038.29 287.65 C 1042.60 291.35 1048.32 293.17 1053.97 293.13 C 1066.30 293.23 1078.64 293.22 1090.98 293.15 C 1095.65 293.65 1095.60 284.83 1090.94 285.35 C 1078.99 285.15 1067.03 285.51 1055.09 285.18 C 1051.53 284.80 1046.75 284.61 1044.95 280.94 C 1044.32 272.99 1044.90 264.97 1044.66 256.99 C 1044.84 254.98 1044.14 252.36 1045.98 250.92 C 1048.86 248.83 1052.62 248.84 1056.04 248.65 C 1067.39 248.59 1078.74 248.66 1090.09 248.63 C 1091.53 248.59 1093.62 248.65 1094.19 246.93 C 1095.06 244.55 1094.27 240.37 1090.98 240.78 C 1080.66 240.68 1070.33 240.79 1060.01 240.74 C 1055.49 240.76 1050.88 240.59 1046.49 241.77 M 863.14 252.23 C 856.90 253.12 849.12 256.08 847.82 263.07 C 847.40 269.02 847.65 275.02 847.67 280.99 C 847.63 285.28 850.87 288.80 854.62 290.44 C 862.22 294.00 870.81 293.07 878.94 293.19 C 885.60 293.21 892.82 293.48 898.67 289.76 C 901.72 287.96 903.83 284.63 903.85 281.05 C 903.91 275.36 903.93 269.67 903.83 263.99 C 903.75 260.18 901.55 256.57 898.20 254.77 C 892.99 251.88 886.83 251.88 881.03 251.86 C 875.07 251.97 869.08 251.60 863.14 252.23 M 906.55 252.61 C 904.53 253.98 905.82 256.53 907.10 257.91 C 916.30 269.04 925.59 280.10 934.78 291.25 C 935.91 292.50 937.08 294.13 938.97 294.16 C 941.19 294.40 942.63 292.45 943.92 290.97 C 953.10 279.78 962.40 268.69 971.59 257.51 C 972.86 256.17 973.60 253.61 971.65 252.50 C 968.90 251.26 964.91 251.24 963.07 254.01 C 955.14 263.73 947.21 273.45 939.27 283.17 C 931.23 273.40 923.23 263.59 915.18 253.83 C 913.25 251.17 909.22 251.27 906.55 252.61 M 985.97 252.95 C 980.93 254.20 975.22 257.26 974.35 262.89 C 973.86 268.58 974.18 274.31 974.14 280.02 C 974.01 285.24 978.09 289.70 982.81 291.38 C 988.98 293.51 995.62 293.21 1002.05 293.16 C 1006.01 293.73 1006.56 287.70 1003.89 285.98 C 998.28 284.72 991.91 286.49 986.76 283.29 C 984.45 282.05 983.83 279.39 983.35 277.04 C 997.93 276.95 1012.51 277.02 1027.09 277.01 C 1028.38 276.91 1030.09 277.25 1030.83 275.82 C 1031.53 272.94 1031.18 269.93 1031.28 266.99 C 1031.27 263.60 1031.55 259.68 1028.89 257.11 C 1023.93 252.22 1016.49 251.75 1009.92 251.86 C 1001.94 252.11 993.82 251.20 985.97 252.95 M 1135.11 259.55 C 1141.15 259.92 1149.13 257.97 1153.25 263.69 C 1144.16 263.95 1135.06 263.75 1125.97 263.80 C 1119.84 263.79 1113.31 263.55 1107.77 266.60 C 1104.56 268.20 1101.88 271.29 1101.77 275.02 C 1101.47 279.72 1101.00 285.59 1105.46 288.60 C 1113.63 294.86 1124.46 292.85 1134.02 293.19 C 1142.10 292.88 1151.32 294.57 1158.26 289.38 C 1163.22 285.43 1161.73 278.53 1161.95 273.02 C 1161.66 267.50 1163.34 260.61 1158.45 256.58 C 1151.80 251.56 1142.83 252.10 1134.93 251.95 C 1130.65 251.80 1131.04 259.70 1135.11 259.55 M 1173.84 254.66 C 1170.06 256.60 1167.83 260.79 1167.96 264.98 C 1167.93 273.36 1167.87 281.74 1167.99 290.12 C 1167.81 291.83 1169.26 293.34 1171.00 293.19 C 1172.99 293.17 1176.40 293.69 1176.87 291.00 C 1177.41 282.01 1176.78 272.97 1177.15 263.97 C 1177.28 261.56 1179.97 260.59 1181.96 260.11 C 1186.89 259.13 1191.97 259.50 1196.96 259.80 C 1199.35 259.87 1202.08 261.33 1202.24 263.99 C 1202.78 272.85 1202.14 281.75 1202.53 290.61 C 1202.52 292.38 1204.31 293.35 1205.93 293.21 C 1207.91 293.25 1211.29 293.50 1211.53 290.75 C 1212.06 281.86 1211.31 272.92 1211.87 264.03 C 1213.34 258.94 1219.87 259.93 1224.00 259.51 C 1228.22 259.69 1234.30 258.95 1236.66 263.28 C 1237.45 272.75 1236.16 282.38 1237.28 291.79 C 1239.27 294.06 1246.04 294.29 1245.96 290.10 C 1246.08 282.06 1245.95 274.03 1246.01 266.00 C 1246.11 262.51 1245.25 258.78 1242.59 256.35 C 1238.95 252.97 1233.76 252.14 1228.99 251.93 C 1221.65 251.80 1213.91 251.63 1207.28 255.25 C 1203.46 253.36 1199.33 252.02 1195.04 251.99 C 1187.95 251.90 1180.32 251.20 1173.84 254.66 Z" />
<path fill="#9a0000" opacity="1.00" d=" M 861.41 260.62 C 868.10 258.81 875.12 259.94 881.97 259.61 C 886.08 259.81 891.41 259.17 894.24 262.81 C 895.22 267.09 894.44 271.59 894.71 275.96 C 894.55 278.52 895.42 282.08 892.58 283.50 C 887.19 286.41 880.85 285.36 875.00 285.56 C 869.51 285.42 863.55 286.21 858.58 283.40 C 856.54 282.36 856.67 279.88 856.67 277.95 C 856.74 273.62 856.54 269.28 856.79 264.96 C 856.84 262.50 859.39 261.29 861.41 260.62 Z" />
<path fill="#9a0000" opacity="1.00" d=" M 983.47 263.34 C 984.85 260.67 988.29 260.37 990.95 259.98 C 998.62 259.34 1006.37 259.23 1014.04 259.99 C 1016.83 260.46 1020.16 260.70 1022.13 263.04 C 1022.39 265.05 1022.29 267.09 1022.34 269.12 C 1009.29 269.12 996.25 269.12 983.20 269.11 C 983.25 267.19 983.12 265.24 983.47 263.34 Z" />
<path fill="#9a0000" opacity="1.00" d=" M 1112.55 273.49 C 1116.93 270.95 1122.19 271.47 1127.07 271.43 C 1135.62 271.45 1144.18 271.44 1152.74 271.44 C 1152.75 275.10 1153.47 278.94 1152.26 282.48 C 1151.03 285.30 1147.53 285.34 1144.91 285.52 C 1136.42 285.57 1127.92 285.64 1119.43 285.49 C 1116.47 285.09 1112.64 284.76 1110.97 281.96 C 1110.97 279.20 1109.66 275.20 1112.55 273.49 Z" />
</g>
<g id="#fffefeff">
<path fill="#fffefe" opacity="1.00" d=" M 697.84 220.95 C 702.16 215.49 707.56 209.59 714.95 209.00 C 721.65 208.51 726.72 213.99 729.80 219.30 C 735.36 229.00 737.84 240.03 741.70 250.44 C 748.46 242.27 755.01 233.93 761.92 225.89 C 767.83 219.42 774.36 212.89 782.80 209.91 C 787.46 208.22 792.75 208.87 796.86 211.64 C 793.04 215.51 789.15 219.31 785.30 223.14 C 783.31 222.59 781.23 221.47 779.14 222.18 C 775.42 223.38 772.38 225.98 769.45 228.47 C 759.95 236.89 751.95 246.78 743.51 256.22 C 747.51 267.93 751.37 279.70 755.49 291.38 C 757.43 296.12 759.26 301.36 763.42 304.64 C 765.92 306.50 769.14 304.96 771.35 303.38 C 774.90 300.83 777.66 297.38 780.40 294.02 C 779.55 297.37 779.70 301.29 777.24 304.00 C 773.28 308.91 768.29 313.67 761.86 314.83 C 757.54 315.63 752.99 314.18 749.83 311.17 C 745.32 306.97 742.73 301.21 740.66 295.52 C 737.72 287.10 734.86 278.66 731.91 270.24 C 724.80 279.01 717.72 287.80 710.59 296.56 C 706.05 301.99 701.30 307.40 695.43 311.45 C 692.05 313.73 688.00 315.61 683.83 314.86 C 679.86 314.33 676.67 311.69 673.87 309.02 C 677.49 305.49 681.06 301.91 684.65 298.35 C 686.36 300.03 688.28 302.27 690.99 301.77 C 694.86 300.98 697.93 298.24 700.91 295.80 C 711.62 286.37 720.54 275.14 729.97 264.48 C 726.63 254.36 723.30 244.25 719.87 234.16 C 718.01 229.32 716.28 224.12 712.54 220.36 C 711.07 218.78 708.71 218.87 707.00 219.99 C 701.82 223.08 698.10 227.98 694.26 232.51 C 695.16 228.59 694.97 224.11 697.84 220.95 Z" />
<path fill="#fffefe" opacity="1.00" d=" M 783.25 241.28 C 785.93 240.32 791.67 239.89 791.69 244.02 C 791.89 255.67 791.65 267.34 791.78 279.00 C 791.53 283.30 796.58 284.63 799.96 284.97 C 812.93 285.75 825.94 284.99 838.92 285.41 C 841.81 285.71 842.14 289.67 841.22 291.82 C 840.44 293.42 838.43 293.07 837.00 293.20 C 826.01 293.15 815.02 293.27 804.03 293.13 C 798.16 292.79 791.82 292.54 786.81 289.10 C 783.52 286.93 782.00 282.90 782.12 279.06 C 782.09 268.03 782.15 256.99 782.10 245.96 C 782.22 244.39 781.80 242.38 783.25 241.28 Z" />
<path fill="#fffefe" opacity="1.00" d=" M 1046.49 241.77 C 1050.88 240.59 1055.49 240.76 1060.01 240.74 C 1070.33 240.79 1080.66 240.68 1090.98 240.78 C 1094.27 240.37 1095.06 244.55 1094.19 246.93 C 1093.62 248.65 1091.53 248.59 1090.09 248.63 C 1078.74 248.66 1067.39 248.59 1056.04 248.65 C 1052.62 248.84 1048.86 248.83 1045.98 250.92 C 1044.14 252.36 1044.84 254.98 1044.66 256.99 C 1044.90 264.97 1044.32 272.99 1044.95 280.94 C 1046.75 284.61 1051.53 284.80 1055.09 285.18 C 1067.03 285.51 1078.99 285.15 1090.94 285.35 C 1095.60 284.83 1095.65 293.65 1090.98 293.15 C 1078.64 293.22 1066.30 293.23 1053.97 293.13 C 1048.32 293.17 1042.60 291.35 1038.29 287.65 C 1035.80 285.56 1034.98 282.20 1035.06 279.09 C 1035.08 270.38 1034.96 261.67 1035.12 252.97 C 1035.37 246.94 1041.23 243.24 1046.49 241.77 Z" />
<path fill="#fffefe" opacity="1.00" d=" M 863.14 252.23 C 869.08 251.60 875.07 251.97 881.03 251.86 C 886.83 251.88 892.99 251.88 898.20 254.77 C 901.55 256.57 903.75 260.18 903.83 263.99 C 903.93 269.67 903.91 275.36 903.85 281.05 C 903.83 284.63 901.72 287.96 898.67 289.76 C 892.82 293.48 885.60 293.21 878.94 293.19 C 870.81 293.07 862.22 294.00 854.62 290.44 C 850.87 288.80 847.63 285.28 847.67 280.99 C 847.65 275.02 847.40 269.02 847.82 263.07 C 849.12 256.08 856.90 253.12 863.14 252.23 M 861.41 260.62 C 859.39 261.29 856.84 262.50 856.79 264.96 C 856.54 269.28 856.74 273.62 856.67 277.95 C 856.67 279.88 856.54 282.36 858.58 283.40 C 863.55 286.21 869.51 285.42 875.00 285.56 C 880.85 285.36 887.19 286.41 892.58 283.50 C 895.42 282.08 894.55 278.52 894.71 275.96 C 894.44 271.59 895.22 267.09 894.24 262.81 C 891.41 259.17 886.08 259.81 881.97 259.61 C 875.12 259.94 868.10 258.81 861.41 260.62 Z" />
<path fill="#fffefe" opacity="1.00" d=" M 906.55 252.61 C 909.22 251.27 913.25 251.17 915.18 253.83 C 923.23 263.59 931.23 273.40 939.27 283.17 C 947.21 273.45 955.14 263.73 963.07 254.01 C 964.91 251.24 968.90 251.26 971.65 252.50 C 973.60 253.61 972.86 256.17 971.59 257.51 C 962.40 268.69 953.10 279.78 943.92 290.97 C 942.63 292.45 941.19 294.40 938.97 294.16 C 937.08 294.13 935.91 292.50 934.78 291.25 C 925.59 280.10 916.30 269.04 907.10 257.91 C 905.82 256.53 904.53 253.98 906.55 252.61 Z" />
<path fill="#fffefe" opacity="1.00" d=" M 985.97 252.95 C 993.82 251.20 1001.94 252.11 1009.92 251.86 C 1016.49 251.75 1023.93 252.22 1028.89 257.11 C 1031.55 259.68 1031.27 263.60 1031.28 266.99 C 1031.18 269.93 1031.53 272.94 1030.83 275.82 C 1030.09 277.25 1028.38 276.91 1027.09 277.01 C 1012.51 277.02 997.93 276.95 983.35 277.04 C 983.83 279.39 984.45 282.05 986.76 283.29 C 991.91 286.49 998.28 284.72 1003.89 285.98 C 1006.56 287.70 1006.01 293.73 1002.05 293.16 C 995.62 293.21 988.98 293.51 982.81 291.38 C 978.09 289.70 974.01 285.24 974.14 280.02 C 974.18 274.31 973.86 268.58 974.35 262.89 C 975.22 257.26 980.93 254.20 985.97 252.95 M 983.47 263.34 C 983.12 265.24 983.25 267.19 983.20 269.11 C 996.25 269.12 1009.29 269.12 1022.34 269.12 C 1022.29 267.09 1022.39 265.05 1022.13 263.04 C 1020.16 260.70 1016.83 260.46 1014.04 259.99 C 1006.37 259.23 998.62 259.34 990.95 259.98 C 988.29 260.37 984.85 260.67 983.47 263.34 Z" />
<path fill="#fffefe" opacity="1.00" d=" M 1135.11 259.55 C 1131.04 259.70 1130.65 251.80 1134.93 251.95 C 1142.83 252.10 1151.80 251.56 1158.45 256.58 C 1163.34 260.61 1161.66 267.50 1161.95 273.02 C 1161.73 278.53 1163.22 285.43 1158.26 289.38 C 1151.32 294.57 1142.10 292.88 1134.02 293.19 C 1124.46 292.85 1113.63 294.86 1105.46 288.60 C 1101.00 285.59 1101.47 279.72 1101.77 275.02 C 1101.88 271.29 1104.56 268.20 1107.77 266.60 C 1113.31 263.55 1119.84 263.79 1125.97 263.80 C 1135.06 263.75 1144.16 263.95 1153.25 263.69 C 1149.13 257.97 1141.15 259.92 1135.11 259.55 M 1112.55 273.49 C 1109.66 275.20 1110.97 279.20 1110.97 281.96 C 1112.64 284.76 1116.47 285.09 1119.43 285.49 C 1127.92 285.64 1136.42 285.57 1144.91 285.52 C 1147.53 285.34 1151.03 285.30 1152.26 282.48 C 1153.47 278.94 1152.75 275.10 1152.74 271.44 C 1144.18 271.44 1135.62 271.45 1127.07 271.43 C 1122.19 271.47 1116.93 270.95 1112.55 273.49 Z" />
<path fill="#fffefe" opacity="1.00" d=" M 1173.84 254.66 C 1180.32 251.20 1187.95 251.90 1195.04 251.99 C 1199.33 252.02 1203.46 253.36 1207.28 255.25 C 1213.91 251.63 1221.65 251.80 1228.99 251.93 C 1233.76 252.14 1238.95 252.97 1242.59 256.35 C 1245.25 258.78 1246.11 262.51 1246.01 266.00 C 1245.95 274.03 1246.08 282.06 1245.96 290.10 C 1246.04 294.29 1239.27 294.06 1237.28 291.79 C 1236.16 282.38 1237.45 272.75 1236.66 263.28 C 1234.30 258.95 1228.22 259.69 1224.00 259.51 C 1219.87 259.93 1213.34 258.94 1211.87 264.03 C 1211.31 272.92 1212.06 281.86 1211.53 290.75 C 1211.29 293.50 1207.91 293.25 1205.93 293.21 C 1204.31 293.35 1202.52 292.38 1202.53 290.61 C 1202.14 281.75 1202.78 272.85 1202.24 263.99 C 1202.08 261.33 1199.35 259.87 1196.96 259.80 C 1191.97 259.50 1186.89 259.13 1181.96 260.11 C 1179.97 260.59 1177.28 261.56 1177.15 263.97 C 1176.78 272.97 1177.41 282.01 1176.87 291.00 C 1176.40 293.69 1172.99 293.17 1171.00 293.19 C 1169.26 293.34 1167.81 291.83 1167.99 290.12 C 1167.87 281.74 1167.93 273.36 1167.96 264.98 C 1167.83 260.79 1170.06 256.60 1173.84 254.66 Z" />
</g>
</svg>
